<svg width="208" height="716" viewBox="0 0 208 716" fill="none" xmlns="http://www.w3.org/2000/svg">
<g clip-path="url(#clip0_157_4106)">
<path d="M138.495 158.19V52.8261H202.033V71.1404H206.818V48.2739H65.5879V162.743H206.818V139.861H202.033V158.19H138.495Z" stroke="#EAEAE8" stroke-width="0.1"/>
<path d="M65.5723 162.772H206.834" stroke="#EAEAE8" stroke-width="0.1"/>
<path d="M65.5879 261.286H206.818V714.73H65.5879V261.286Z" stroke="#EAEAE8" stroke-width="0.1"/>
<path d="M204.425 17.437H67.9808M65.5879 43.6004V17.437M206.818 43.6004V17.437" stroke="#EAEAE8" stroke-width="0.1"/>
<path d="M206.85 17.4072H207.906L207.813 16.8325L207.331 16.4544L206.85 16.2729V17.4072Z" stroke="#EAEAE8" stroke-width="0.1"/>
<path d="M207.813 16.8476L207.906 17.4072H206.85M207.813 16.8476L206.85 17.4072M207.813 16.8476L207.331 16.4696M206.85 17.4072L207.331 16.4696M206.85 17.4072V17.4223V16.2881L207.331 16.4696" stroke="#EAEAE8" stroke-width="0.1"/>
<path d="M206.245 16.4544L205.748 16.8325L205.654 17.4072H206.82V16.2729L206.245 16.4544Z" stroke="#EAEAE8" stroke-width="0.1"/>
<path d="M206.245 16.4544L206.82 16.2729V16.2578V17.3921M206.245 16.4544L206.82 17.3921M206.245 16.4544H206.229L205.748 16.8325M206.82 17.3921L205.748 16.8325M206.82 17.3921H205.654L205.748 16.8325" stroke="#EAEAE8" stroke-width="0.1"/>
<path d="M206.82 17.437H205.654L205.748 17.9966L206.245 18.3747L206.82 17.437ZM206.82 17.437L206.245 18.3747L206.82 18.5561V17.437Z" stroke="#EAEAE8" stroke-width="0.1"/>
<path d="M205.748 17.9966L205.654 17.437H206.82M205.748 17.9966L206.82 17.437M205.748 17.9966H205.763L206.245 18.3746M206.82 17.437L206.245 18.3746M206.82 17.437V17.4219V18.5561L206.245 18.3746" stroke="#EAEAE8" stroke-width="0.1"/>
<path d="M206.85 17.437V18.5561L207.331 18.3747L206.85 17.437ZM206.85 17.437L207.331 18.3747L207.813 17.9966L207.906 17.437H206.85Z" stroke="#EAEAE8" stroke-width="0.1"/>
<path d="M207.331 18.3747L206.85 18.5561V18.5713V17.437M207.331 18.3747L206.85 17.437M207.331 18.3747L207.813 17.9966M206.85 17.437L207.813 17.9966M206.85 17.437H207.906L207.813 17.9966" stroke="#EAEAE8" stroke-width="0.1"/>
<path d="M205.637 17.437H204.441" stroke="#EAEAE8" stroke-width="0.1"/>
<path d="M65.558 17.437H64.3926L64.5946 17.9966L64.9675 18.3747L65.558 17.437ZM65.558 17.437L64.9675 18.3747L65.558 18.5561V17.437Z" stroke="#EAEAE8" stroke-width="0.1"/>
<path d="M64.579 17.9966L64.3925 17.437H64.377H65.5423M64.579 17.9966L65.5423 17.437M64.579 17.9966L64.9674 18.3746M65.5423 17.437L64.9674 18.3746M65.5423 17.437V17.4219V18.5561L64.9674 18.3746" stroke="#EAEAE8" stroke-width="0.1"/>
<path d="M65.5879 17.437V18.5561L66.1628 18.3747L65.5879 17.437ZM65.5879 17.437L66.1628 18.3747L66.5513 17.9966L66.7533 17.437H65.5879Z" stroke="#EAEAE8" stroke-width="0.1"/>
<path d="M66.1627 18.3747L65.5878 18.5561V18.5713V17.437M66.1627 18.3747L65.5878 17.437M66.1627 18.3747L66.5512 17.9966M65.5878 17.437L66.5512 17.9966M65.5878 17.437H65.5723H66.7377L66.5512 17.9966" stroke="#EAEAE8" stroke-width="0.1"/>
<path d="M65.5879 17.4072H66.7533L66.5513 16.8325L66.1628 16.4544L65.5879 16.2729V17.4072Z" stroke="#EAEAE8" stroke-width="0.1"/>
<path d="M66.5669 16.8476L66.7534 17.4072H66.7689H65.6035M66.5669 16.8476L65.6035 17.4072M66.5669 16.8476L66.1784 16.4696M65.6035 17.4072L66.1784 16.4696M65.6035 17.4072V17.4223V16.2881L66.1784 16.4696" stroke="#EAEAE8" stroke-width="0.1"/>
<path d="M64.9675 16.4544L64.5946 16.8325L64.3926 17.4072H65.558V16.2729L64.9675 16.4544Z" stroke="#EAEAE8" stroke-width="0.1"/>
<path d="M64.9831 16.4544L65.5581 16.2729V16.2578V17.3921M64.9831 16.4544L65.5581 17.3921M64.9831 16.4544L64.5947 16.8325M65.5581 17.3921L64.5947 16.8325M65.5581 17.3921H65.5736H64.4082L64.5947 16.8325" stroke="#EAEAE8" stroke-width="0.1"/>
<path d="M66.7695 17.437H67.9648" stroke="#EAEAE8" stroke-width="0.1"/>
<path d="M25.5449 50.4971V160.414M60.8953 162.743H25.5449M60.8953 48.2739H25.5449" stroke="#EAEAE8" stroke-width="0.1"/>
<path d="M24.9245 47.2001L24.4428 47.6689L24.3496 48.2285H25.4995V47.1094L24.9245 47.2001Z" stroke="#EAEAE8" stroke-width="0.1"/>
<path d="M24.9245 47.2001L25.4994 47.1094V47.0942V48.2285M24.9245 47.2001L25.4994 48.2285M24.9245 47.2001H24.9089L24.4272 47.6689M25.4994 48.2285L24.4272 47.6689M25.4994 48.2285H24.334L24.4272 47.6689" stroke="#EAEAE8" stroke-width="0.1"/>
<path d="M25.4995 48.2739H24.3496L24.4428 48.7427L24.9245 49.2116L25.4995 48.2739ZM25.4995 48.2739L24.9245 49.2116L25.4995 49.3023V48.2739Z" stroke="#EAEAE8" stroke-width="0.1"/>
<path d="M24.4428 48.7427L24.3496 48.2739H25.515M24.4428 48.7427L25.515 48.2739M24.4428 48.7427H24.4584L24.9401 49.2116M25.515 48.2739L24.9401 49.2116M25.515 48.2739V49.3023L24.9401 49.2116" stroke="#EAEAE8" stroke-width="0.1"/>
<path d="M25.5449 48.2739V49.3023L26.0266 49.2116L25.5449 48.2739ZM25.5449 48.2739L26.0266 49.2116L26.5083 48.7427L26.6015 48.2739H25.5449Z" stroke="#EAEAE8" stroke-width="0.1"/>
<path d="M26.0266 49.2116L25.5449 49.3023V48.2739M26.0266 49.2116L25.5449 48.2739M26.0266 49.2116L26.5083 48.7427M25.5449 48.2739L26.5083 48.7427M25.5449 48.2739H26.6015L26.5083 48.7427" stroke="#EAEAE8" stroke-width="0.1"/>
<path d="M25.5449 48.2285H26.6015L26.5083 47.6689L26.0266 47.2001L25.5449 47.1094V48.2285Z" stroke="#EAEAE8" stroke-width="0.1"/>
<path d="M26.5083 47.6689L26.6015 48.2285H25.5449M26.5083 47.6689L25.5449 48.2285M26.5083 47.6689L26.0266 47.2001M25.5449 48.2285L26.0266 47.2001M25.5449 48.2285V48.2436V47.1094L26.0266 47.2001" stroke="#EAEAE8" stroke-width="0.1"/>
<path d="M25.5449 49.3174V50.4819" stroke="#EAEAE8" stroke-width="0.1"/>
<path d="M25.5449 162.772V163.907L26.0266 163.725L25.5449 162.772ZM25.5449 162.772L26.0266 163.725L26.5083 163.347L26.6015 162.772H25.5449Z" stroke="#EAEAE8" stroke-width="0.1"/>
<path d="M26.0266 163.725L25.5449 163.907V163.922V162.788M26.0266 163.725L25.5449 162.788M26.0266 163.725L26.5083 163.347M25.5449 162.788L26.5083 163.347M25.5449 162.788H26.6015L26.5083 163.347" stroke="#EAEAE8" stroke-width="0.1"/>
<path d="M25.5449 162.742H26.6015L26.5083 162.183L26.0266 161.805L25.5449 161.608V162.742Z" stroke="#EAEAE8" stroke-width="0.1"/>
<path d="M26.5083 162.183L26.6015 162.742H25.5449M26.5083 162.183L25.5449 162.742M26.5083 162.183L26.0266 161.805M25.5449 162.742L26.0266 161.805M25.5449 162.742V162.757V161.623L26.0266 161.805" stroke="#EAEAE8" stroke-width="0.1"/>
<path d="M24.9245 161.805L24.4428 162.183L24.3496 162.742H25.4995V161.608L24.9245 161.805Z" stroke="#EAEAE8" stroke-width="0.1"/>
<path d="M24.9245 161.789L25.4994 161.608V161.593V162.727M24.9245 161.789L25.4994 162.727M24.9245 161.789H24.9089L24.4272 162.167M25.4994 162.727L24.4272 162.167M25.4994 162.727H24.334L24.4272 162.167" stroke="#EAEAE8" stroke-width="0.1"/>
<path d="M25.4995 162.772H24.3496L24.4428 163.347L24.9245 163.725L25.4995 162.772ZM25.4995 162.772L24.9245 163.725L25.4995 163.907V162.772Z" stroke="#EAEAE8" stroke-width="0.1"/>
<path d="M24.4428 163.332L24.3496 162.772H25.515M24.4428 163.332L25.515 162.772M24.4428 163.332H24.4584L24.9401 163.71M25.515 162.772L24.9401 163.71M25.515 162.772V162.757V163.892L24.9401 163.71" stroke="#EAEAE8" stroke-width="0.1"/>
<path d="M25.5449 161.593V160.429" stroke="#EAEAE8" stroke-width="0.1"/>
<path d="M204.425 219.984H67.9808M65.5879 256.719V219.984M206.818 256.719V219.984" stroke="#EAEAE8" stroke-width="0.1"/>
<path d="M206.85 219.954H207.906L207.813 219.379L207.331 219.001L206.85 218.82V219.954Z" stroke="#EAEAE8" stroke-width="0.1"/>
<path d="M207.813 219.395L207.906 219.954H206.85M207.813 219.395L206.85 219.954M207.813 219.395L207.331 219.016M206.85 219.954L207.331 219.016M206.85 219.954V219.969V218.835L207.331 219.016" stroke="#EAEAE8" stroke-width="0.1"/>
<path d="M206.245 219.001L205.748 219.379L205.654 219.954H206.82V218.82L206.245 219.001Z" stroke="#EAEAE8" stroke-width="0.1"/>
<path d="M206.245 219.001L206.82 218.82V218.805V219.939M206.245 219.001L206.82 219.939M206.245 219.001H206.229L205.748 219.379M206.82 219.939L205.748 219.379M206.82 219.939H205.654L205.748 219.379" stroke="#EAEAE8" stroke-width="0.1"/>
<path d="M206.82 219.984H205.654L205.748 220.544L206.245 220.922L206.82 219.984ZM206.82 219.984L206.245 220.922L206.82 221.119V219.984Z" stroke="#EAEAE8" stroke-width="0.1"/>
<path d="M205.748 220.544L205.654 219.984H206.82M205.748 220.544L206.82 219.984M205.748 220.544H205.763L206.245 220.922M206.82 219.984L206.245 220.922M206.82 219.984V219.969V221.103L206.245 220.922" stroke="#EAEAE8" stroke-width="0.1"/>
<path d="M206.85 219.984V221.119L207.331 220.922L206.85 219.984ZM206.85 219.984L207.331 220.922L207.813 220.544L207.906 219.984H206.85Z" stroke="#EAEAE8" stroke-width="0.1"/>
<path d="M207.331 220.937L206.85 221.119V221.134V220M207.331 220.937L206.85 220M207.331 220.937L207.813 220.559M206.85 220L207.813 220.559M206.85 220H207.906L207.813 220.559" stroke="#EAEAE8" stroke-width="0.1"/>
<path d="M205.637 219.969H204.441" stroke="#EAEAE8" stroke-width="0.1"/>
<path d="M65.558 219.984H64.3926L64.5946 220.544L64.9675 220.922L65.558 219.984ZM65.558 219.984L64.9675 220.922L65.558 221.119V219.984Z" stroke="#EAEAE8" stroke-width="0.1"/>
<path d="M64.579 220.544L64.3925 219.984H64.377H65.5423M64.579 220.544L65.5423 219.984M64.579 220.544L64.9674 220.922M65.5423 219.984L64.9674 220.922M65.5423 219.984V219.969V221.103L64.9674 220.922" stroke="#EAEAE8" stroke-width="0.1"/>
<path d="M65.5879 219.984V221.119L66.1628 220.922L65.5879 219.984ZM65.5879 219.984L66.1628 220.922L66.5513 220.544L66.7533 219.984H65.5879Z" stroke="#EAEAE8" stroke-width="0.1"/>
<path d="M66.1627 220.937L65.5878 221.119V221.134V220M66.1627 220.937L65.5878 220M66.1627 220.937L66.5512 220.559M65.5878 220L66.5512 220.559M65.5878 220H65.5723H66.7377L66.5512 220.559" stroke="#EAEAE8" stroke-width="0.1"/>
<path d="M65.5879 219.954H66.7533L66.5513 219.379L66.1628 219.001L65.5879 218.82V219.954Z" stroke="#EAEAE8" stroke-width="0.1"/>
<path d="M66.5669 219.395L66.7534 219.954H66.7689H65.6035M66.5669 219.395L65.6035 219.954M66.5669 219.395L66.1784 219.016M65.6035 219.954L66.1784 219.016M65.6035 219.954V219.969V218.835L66.1784 219.016" stroke="#EAEAE8" stroke-width="0.1"/>
<path d="M64.9675 219.001L64.5946 219.379L64.3926 219.954H65.558V218.82L64.9675 219.001Z" stroke="#EAEAE8" stroke-width="0.1"/>
<path d="M64.9831 219.001L65.5581 218.82V218.805V219.939M64.9831 219.001L65.5581 219.939M64.9831 219.001L64.5947 219.379M65.5581 219.939L64.5947 219.379M65.5581 219.939H65.5736H64.4082L64.5947 219.379" stroke="#EAEAE8" stroke-width="0.1"/>
<path d="M66.7695 219.969H67.9648" stroke="#EAEAE8" stroke-width="0.1"/>
<path d="M24.9395 263.615V712.506M60.8803 714.73H24.9395M60.8958 261.286H24.9395" stroke="#EAEAE8" stroke-width="0.1"/>
<path d="M24.3327 260.318L23.9442 260.787L23.7422 261.256H24.9076V260.212L24.3327 260.318Z" stroke="#EAEAE8" stroke-width="0.1"/>
<path d="M24.3327 260.303L24.9077 260.212V261.241M24.3327 260.303L24.9077 261.241M24.3327 260.303L23.9443 260.772M24.9077 261.241L23.9443 260.772M24.9077 261.241H24.9232H23.7578L23.9443 260.772" stroke="#EAEAE8" stroke-width="0.1"/>
<path d="M24.9076 261.286H23.7422L23.9442 261.846L24.3327 262.315L24.9076 261.286ZM24.9076 261.286L24.3327 262.315L24.9076 262.42V261.286Z" stroke="#EAEAE8" stroke-width="0.1"/>
<path d="M23.9286 261.846L23.7421 261.286H23.7266H24.892M23.9286 261.846L24.892 261.286M23.9286 261.846V261.861L24.317 262.33M24.892 261.286L24.317 262.33M24.892 261.286V262.42L24.317 262.33" stroke="#EAEAE8" stroke-width="0.1"/>
<path d="M24.9395 261.286V262.42L25.5299 262.315L24.9395 261.286ZM24.9395 261.286L25.5299 262.315L25.9028 261.846L26.1048 261.286H24.9395Z" stroke="#EAEAE8" stroke-width="0.1"/>
<path d="M25.5143 262.33L24.9394 262.42V261.286M25.5143 262.33L24.9394 261.286M25.5143 262.33V262.315L25.9028 261.846M24.9394 261.286L25.9028 261.846M24.9394 261.286H24.9238H26.0892L25.9028 261.846" stroke="#EAEAE8" stroke-width="0.1"/>
<path d="M24.9395 261.256H26.1048L25.9028 260.787L25.5299 260.318L24.9395 260.212V261.256Z" stroke="#EAEAE8" stroke-width="0.1"/>
<path d="M25.9185 260.787L26.1049 261.256H26.1205H24.9551M25.9185 260.787L24.9551 261.256M25.9185 260.787L25.53 260.318M24.9551 261.256L25.53 260.318M24.9551 261.256V260.228L25.53 260.318" stroke="#EAEAE8" stroke-width="0.1"/>
<path d="M24.9395 262.436V263.6" stroke="#EAEAE8" stroke-width="0.1"/>
<path d="M24.9395 714.76V715.894L25.5299 715.713L24.9395 714.76ZM24.9395 714.76L25.5299 715.713L25.9028 715.334L26.1048 714.76H24.9395Z" stroke="#EAEAE8" stroke-width="0.1"/>
<path d="M25.5143 715.713L24.9394 715.894V715.909V714.775M25.5143 715.713L24.9394 714.775M25.5143 715.713L25.9028 715.334M24.9394 714.775L25.9028 715.334M24.9394 714.775H24.9238H26.0892L25.9028 715.334" stroke="#EAEAE8" stroke-width="0.1"/>
<path d="M24.9395 714.729H26.1048L25.9028 714.17L25.5299 713.792L24.9395 713.595V714.729Z" stroke="#EAEAE8" stroke-width="0.1"/>
<path d="M25.9185 714.17L26.1049 714.73H26.1205H24.9551M25.9185 714.17L24.9551 714.73M25.9185 714.17L25.53 713.792M24.9551 714.73L25.53 713.792M24.9551 714.73V714.745V713.61L25.53 713.792" stroke="#EAEAE8" stroke-width="0.1"/>
<path d="M24.3327 713.792L23.9442 714.17L23.7422 714.729H24.9076V713.595L24.3327 713.792Z" stroke="#EAEAE8" stroke-width="0.1"/>
<path d="M24.3327 713.777L24.9077 713.595V713.58V714.714M24.3327 713.777L24.9077 714.714M24.3327 713.777L23.9443 714.155M24.9077 714.714L23.9443 714.155M24.9077 714.714H24.9232H23.7578L23.9443 714.155" stroke="#EAEAE8" stroke-width="0.1"/>
<path d="M24.9076 714.76H23.7422L23.9442 715.334L24.3327 715.713L24.9076 714.76ZM24.9076 714.76L24.3327 715.713L24.9076 715.894V714.76Z" stroke="#EAEAE8" stroke-width="0.1"/>
<path d="M23.9286 715.319L23.7421 714.76H23.7266H24.892M23.9286 715.319L24.892 714.76M23.9286 715.319L24.317 715.697M24.892 714.76L24.317 715.697M24.892 714.76V714.745V715.879L24.317 715.697" stroke="#EAEAE8" stroke-width="0.1"/>
<path d="M24.9395 713.58V712.521" stroke="#EAEAE8" stroke-width="0.1"/>
<path d="M133.927 52.7202V158.1M133.927 158.19H70.2656V52.811H133.927" stroke="#EAEAE8" stroke-width="0.1"/>
<path d="M122.288 6.69978L120.501 7.78866L120.424 7.51644H124.401V8.51458H119.134V7.51644C119.74 7.13835 120.284 6.82076 120.765 6.56367C121.247 6.30657 121.651 6.0646 121.977 5.86799C122.304 5.65627 122.568 5.44454 122.739 5.23281C122.91 5.02109 123.003 4.76399 123.003 4.49177C123.003 4.28004 122.956 4.08344 122.848 3.91708C122.754 3.75072 122.599 3.62974 122.381 3.52387C122.179 3.43313 121.9 3.37264 121.573 3.37264C121.154 3.37264 120.812 3.4785 120.517 3.70535C120.237 3.91708 120.082 4.20442 120.082 4.56738H118.978C118.947 4.14393 119.041 3.76585 119.258 3.43313C119.476 3.10042 119.786 2.84332 120.19 2.64672C120.594 2.45012 121.045 2.35938 121.558 2.35938C121.977 2.35938 122.335 2.40475 122.661 2.51061C122.987 2.61647 123.267 2.75258 123.5 2.93406C123.733 3.11554 123.904 3.32727 124.029 3.56924C124.153 3.81122 124.215 4.08344 124.215 4.35566C124.215 4.59763 124.168 4.82448 124.091 5.02108C124.013 5.21769 123.889 5.41429 123.718 5.59577C123.562 5.77725 123.36 5.95873 123.112 6.14021C122.879 6.32169 122.599 6.50317 122.273 6.68465L122.288 6.69978Z" fill="#B5B5B5"/>
<path d="M125.801 10.2689L125.552 9.95126C125.676 9.73953 125.785 9.52781 125.894 9.31608C126.003 9.10435 126.065 8.8775 126.065 8.66578L125.428 8.52967V7.28955H126.951V8.18183C126.951 8.69602 126.842 9.11948 126.609 9.45219C126.376 9.7849 126.111 10.0571 125.785 10.284L125.801 10.2689Z" fill="#B5B5B5"/>
<path d="M131.224 6.69978L129.437 7.78866L129.359 7.51644H133.337V8.51458H128.069V7.51644C128.675 7.13835 129.219 6.82076 129.701 6.56367C130.183 6.30657 130.587 6.0646 130.913 5.86799C131.239 5.65627 131.503 5.44454 131.674 5.23281C131.845 5.02109 131.939 4.76399 131.939 4.49177C131.939 4.28004 131.892 4.08344 131.783 3.91708C131.69 3.75072 131.535 3.62974 131.317 3.52387C131.115 3.43313 130.835 3.37264 130.509 3.37264C130.089 3.37264 129.748 3.4785 129.452 3.70535C129.173 3.91708 129.017 4.20442 129.017 4.56738H127.914C127.883 4.14393 127.976 3.76585 128.194 3.43313C128.411 3.10042 128.722 2.84332 129.126 2.64672C129.53 2.45012 129.981 2.35938 130.493 2.35938C130.913 2.35938 131.27 2.40475 131.597 2.51061C131.923 2.61647 132.203 2.75258 132.436 2.93406C132.669 3.11554 132.84 3.32727 132.964 3.56924C133.088 3.81122 133.151 4.08344 133.151 4.35566C133.151 4.59763 133.104 4.82448 133.026 5.02108C132.949 5.21769 132.824 5.41429 132.653 5.59577C132.498 5.77725 132.296 5.95873 132.047 6.14021C131.814 6.32169 131.535 6.50317 131.208 6.68465L131.224 6.69978Z" fill="#B5B5B5"/>
<path d="M137.267 8.66567C136.63 8.66567 136.086 8.55981 135.651 8.36321C135.2 8.15148 134.874 7.87926 134.641 7.53142C134.408 7.18358 134.299 6.8055 134.299 6.38205C134.299 5.8981 134.423 5.50489 134.672 5.1873C134.92 4.86971 135.278 4.64286 135.728 4.49163C136.179 4.3404 136.692 4.26478 137.267 4.26478C137.842 4.26478 138.354 4.3404 138.805 4.49163C139.256 4.64286 139.597 4.88484 139.846 5.1873C140.095 5.48977 140.219 5.8981 140.219 6.38205C140.219 6.8055 140.11 7.18358 139.877 7.53142C139.644 7.87926 139.318 8.15148 138.883 8.36321C138.448 8.57493 137.904 8.66567 137.267 8.66567ZM137.267 4.537C136.738 4.537 136.272 4.4765 135.868 4.34039C135.464 4.21941 135.153 4.00768 134.92 3.73546C134.703 3.46324 134.579 3.10028 134.579 2.67683C134.579 2.2685 134.687 1.90554 134.889 1.58794C135.107 1.27035 135.402 1.01326 135.806 0.831777C136.21 0.635174 136.692 0.544434 137.267 0.544434C137.842 0.544434 138.323 0.635174 138.727 0.831777C139.131 1.01326 139.427 1.27035 139.644 1.58794C139.862 1.90554 139.955 2.2685 139.955 2.67683C139.955 3.1154 139.846 3.46324 139.613 3.73546C139.395 4.00768 139.069 4.20428 138.665 4.34039C138.261 4.4765 137.795 4.537 137.267 4.537ZM137.267 7.60704C137.655 7.60704 137.981 7.54655 138.246 7.44068C138.51 7.33482 138.696 7.18358 138.836 6.98698C138.96 6.79038 139.023 6.56353 139.023 6.32155C139.023 6.04933 138.96 5.82248 138.836 5.62588C138.712 5.42928 138.51 5.26292 138.246 5.15706C137.981 5.05119 137.655 4.9907 137.267 4.9907C136.878 4.9907 136.536 5.05119 136.288 5.15706C136.024 5.26292 135.837 5.42928 135.713 5.62588C135.589 5.82248 135.526 6.06446 135.526 6.32155C135.526 6.56353 135.589 6.79038 135.713 6.98698C135.837 7.18358 136.024 7.33482 136.288 7.44068C136.552 7.54655 136.878 7.60704 137.267 7.60704ZM137.267 3.94719C137.577 3.94719 137.857 3.90182 138.075 3.79595C138.292 3.69009 138.463 3.55398 138.572 3.3725C138.696 3.19102 138.743 2.99442 138.743 2.76757C138.743 2.54072 138.681 2.32899 138.572 2.16263C138.463 1.99628 138.292 1.86017 138.075 1.7543C137.857 1.66356 137.593 1.60307 137.267 1.60307C136.94 1.60307 136.676 1.64844 136.459 1.7543C136.241 1.84504 136.07 1.98115 135.961 2.16263C135.853 2.34411 135.791 2.54072 135.791 2.76757C135.791 2.99442 135.853 3.19102 135.961 3.3725C136.07 3.55398 136.241 3.69009 136.459 3.79595C136.676 3.90182 136.94 3.94719 137.267 3.94719Z" fill="#B5B5B5"/>
<path d="M145.658 0V1.24011H144.166V0H145.658ZM144.321 2.49535H145.518V8.52957H144.321V2.49535Z" fill="#B5B5B5"/>
<path d="M147.197 2.4955H148.409V8.52972H147.197V2.4955ZM150.787 2.37451C151.129 2.37451 151.455 2.41988 151.735 2.52575C152.014 2.63161 152.263 2.76772 152.465 2.9492C152.667 3.1458 152.822 3.37265 152.931 3.64487C153.04 3.91709 153.102 4.24981 153.102 4.61277V8.52972H151.89V4.86986C151.89 4.38592 151.766 4.02296 151.548 3.79611C151.315 3.56926 150.958 3.44827 150.46 3.44827C150.087 3.44827 149.746 3.52389 149.435 3.69024C149.124 3.8566 148.875 4.08345 148.673 4.35567C148.471 4.62789 148.363 4.94548 148.316 5.29332V4.62789C148.347 4.3103 148.44 4.00783 148.565 3.73561C148.705 3.46339 148.875 3.22142 149.093 3.02482C149.311 2.81309 149.559 2.66186 149.839 2.54087C150.119 2.41988 150.429 2.37451 150.771 2.37451H150.787Z" fill="#B5B5B5"/>
<path d="M119.85 206.994V205.935H122.615V211.969H121.403V206.979H119.85V206.994Z" fill="#B5B5B5"/>
<path d="M124.76 213.723L124.511 213.406C124.635 213.194 124.744 212.982 124.853 212.771C124.962 212.559 125.024 212.332 125.024 212.12L124.387 211.984V210.744H125.909V211.636C125.909 212.151 125.801 212.574 125.568 212.907C125.335 213.239 125.07 213.512 124.744 213.739L124.76 213.723Z" fill="#B5B5B5"/>
<path d="M129.608 211.031C129.111 211.031 128.66 210.926 128.241 210.699C127.837 210.487 127.51 210.169 127.262 209.776C127.013 209.383 126.904 208.914 126.904 208.385C126.904 207.856 127.044 207.387 127.308 207.009C127.572 206.615 127.945 206.313 128.396 206.101C128.847 205.89 129.39 205.784 129.981 205.784C130.571 205.784 131.115 205.89 131.581 206.101C132.048 206.313 132.405 206.6 132.669 206.994C132.933 207.387 133.058 207.84 133.042 208.385C133.042 208.581 132.995 208.778 132.949 209.005C132.887 209.217 132.809 209.459 132.669 209.731C132.654 209.776 132.607 209.882 132.514 210.048C132.421 210.215 132.312 210.427 132.172 210.669C132.032 210.926 131.892 211.183 131.737 211.455C131.581 211.727 131.426 212.014 131.271 212.287C131.115 212.559 130.975 212.816 130.851 213.043C130.727 213.27 130.587 213.512 130.432 213.784H129.033L132.11 208.823L132.514 208.491C132.281 208.884 132.063 209.232 131.846 209.534C131.628 209.852 131.411 210.109 131.193 210.336C130.975 210.563 130.727 210.729 130.463 210.85C130.198 210.971 129.919 211.031 129.592 211.031H129.608ZM129.996 206.842C129.468 206.842 129.033 206.978 128.676 207.236C128.318 207.508 128.132 207.886 128.132 208.415C128.132 208.914 128.287 209.307 128.629 209.58C128.971 209.852 129.406 210.003 129.934 210.003C130.509 210.003 130.975 209.852 131.317 209.549C131.659 209.247 131.83 208.869 131.846 208.415C131.846 208.082 131.783 207.795 131.612 207.568C131.442 207.341 131.224 207.16 130.944 207.039C130.665 206.918 130.354 206.857 129.996 206.857V206.842Z" fill="#B5B5B5"/>
<path d="M137.128 210.154L135.341 211.243L135.263 210.971H139.241V211.969H133.974V210.971C134.58 210.593 135.124 210.275 135.605 210.018C136.087 209.761 136.491 209.519 136.817 209.323C137.144 209.111 137.408 208.899 137.579 208.687C137.75 208.476 137.843 208.219 137.843 207.946C137.843 207.735 137.796 207.538 137.687 207.372C137.594 207.205 137.439 207.084 137.221 206.978C137.019 206.888 136.74 206.827 136.413 206.827C135.994 206.827 135.652 206.933 135.357 207.16C135.077 207.372 134.922 207.659 134.922 208.022H133.818C133.787 207.599 133.88 207.22 134.098 206.888C134.316 206.555 134.626 206.298 135.03 206.101C135.434 205.905 135.885 205.814 136.398 205.814C136.817 205.814 137.175 205.859 137.501 205.965C137.827 206.071 138.107 206.207 138.34 206.389C138.573 206.57 138.744 206.782 138.868 207.024C138.993 207.266 139.055 207.538 139.055 207.81C139.055 208.052 139.008 208.279 138.931 208.476C138.853 208.672 138.729 208.869 138.558 209.05C138.402 209.232 138.2 209.413 137.952 209.595C137.719 209.776 137.439 209.958 137.113 210.139L137.128 210.154Z" fill="#B5B5B5"/>
<path d="M144.697 203.455V204.695H143.205V203.455H144.697ZM143.36 205.95H144.557V211.984H143.36V205.95Z" fill="#B5B5B5"/>
<path d="M146.234 205.95H147.446V211.984H146.234V205.95ZM149.824 205.829C150.166 205.829 150.492 205.874 150.772 205.98C151.051 206.086 151.3 206.222 151.502 206.404C151.704 206.6 151.859 206.827 151.968 207.099C152.077 207.372 152.139 207.704 152.139 208.067V211.984H150.927V208.324C150.927 207.84 150.803 207.478 150.585 207.251C150.352 207.024 149.995 206.903 149.497 206.903C149.125 206.903 148.783 206.978 148.472 207.145C148.161 207.311 147.913 207.538 147.711 207.81C147.509 208.082 147.4 208.4 147.353 208.748V208.082C147.384 207.765 147.477 207.462 147.602 207.19C147.742 206.918 147.913 206.676 148.13 206.479C148.348 206.268 148.596 206.116 148.876 205.995C149.156 205.874 149.466 205.829 149.808 205.829H149.824Z" fill="#B5B5B5"/>
<path d="M3.63653 500.825H2.54883V498.133H8.74874V499.312H3.63653V500.825Z" fill="#B5B5B5"/>
<path d="M3.63653 496.606H2.54883V493.914H8.74874V495.093H3.63653V496.606Z" fill="#B5B5B5"/>
<path d="M2.50195 487.229H10.5665V488.409H3.76058L3.86935 488.091L8.20463 491.116L7.76955 491.327V488.212H8.81063V492.144H7.76955L2.50195 488.409V487.229ZM8.81063 487.426H7.76955V486.019H8.81063V487.426Z" fill="#B5B5B5"/>
<path d="M0 480.681H1.27417V482.132H0V480.681ZM2.56387 481.981V480.817H8.76378V481.981H2.56387Z" fill="#B5B5B5"/>
<path d="M2.43945 475.69C2.43945 475.357 2.48607 475.04 2.59484 474.767C2.68807 474.495 2.84346 474.253 3.02992 474.057C3.23192 473.86 3.465 473.709 3.7447 473.603C4.02439 473.497 4.36624 473.437 4.73917 473.437H8.76367V474.616H5.00333C4.50609 474.616 4.13316 474.737 3.90008 474.949C3.65147 475.176 3.5427 475.524 3.5427 476.008C3.5427 476.37 3.62039 476.703 3.79131 477.006C3.96224 477.308 4.19532 477.55 4.47501 477.747C4.75471 477.928 5.08102 478.049 5.43841 478.095H4.75471C4.4284 478.064 4.11762 477.974 3.83793 477.853C3.55823 477.716 3.30962 477.55 3.10761 477.338C2.89007 477.127 2.73469 476.885 2.61038 476.612C2.50161 476.34 2.43945 476.038 2.43945 475.705V475.69ZM2.56376 479.183V478.004H8.76367V479.183H2.56376Z" fill="#B5B5B5"/>
<path d="M3.63653 120.125H2.54883V117.433H8.74874V118.612H3.63653V120.125Z" fill="#B5B5B5"/>
<path d="M10.5513 115.346L10.225 115.588C10.0075 115.467 9.78995 115.361 9.57241 115.255C9.35487 115.149 9.12179 115.089 8.90425 115.089L8.7644 115.709H7.49023V114.227H8.40701C8.93533 114.227 9.37041 114.332 9.71226 114.559C10.0541 114.786 10.3338 115.043 10.5669 115.361L10.5513 115.346Z" fill="#B5B5B5"/>
<path d="M7.80011 110.612C7.80011 111.096 7.69134 111.535 7.45826 111.943C7.24072 112.336 6.9144 112.654 6.5104 112.896C6.1064 113.138 5.6247 113.244 5.08085 113.244C4.53699 113.244 4.0553 113.107 3.66683 112.85C3.26283 112.593 2.95205 112.23 2.73451 111.792C2.51697 111.338 2.4082 110.824 2.4082 110.249C2.4082 109.674 2.51697 109.145 2.73451 108.691C2.95205 108.238 3.24729 107.89 3.65129 107.633C4.03976 107.376 4.52146 107.255 5.08085 107.27C5.28285 107.27 5.48485 107.315 5.71793 107.361C5.93547 107.421 6.18409 107.497 6.46378 107.633C6.5104 107.648 6.61917 107.693 6.79009 107.784C6.96102 107.875 7.17856 107.981 7.42718 108.117C7.69134 108.253 7.95549 108.389 8.23519 108.54C8.51488 108.691 8.81012 108.843 9.08981 108.994C9.36951 109.145 9.63366 109.281 9.86674 109.402C10.0998 109.523 10.3484 109.659 10.6281 109.811V111.172L5.53147 108.177L5.18962 107.784C5.59362 108.011 5.95101 108.223 6.26178 108.434C6.58809 108.646 6.85225 108.858 7.08533 109.069C7.31841 109.281 7.48933 109.523 7.61364 109.78C7.73795 110.037 7.80011 110.31 7.80011 110.627V110.612ZM3.49591 110.234C3.49591 110.748 3.63575 111.172 3.89991 111.519C4.17961 111.867 4.56807 112.049 5.11192 112.049C5.6247 112.049 6.0287 111.898 6.3084 111.565C6.58809 111.232 6.74348 110.809 6.74348 110.294C6.74348 109.735 6.58809 109.281 6.27732 108.949C5.96655 108.616 5.57808 108.449 5.11192 108.434C4.77007 108.434 4.47484 108.495 4.24176 108.661C4.00868 108.828 3.82222 109.039 3.69791 109.311C3.5736 109.584 3.51145 109.886 3.51145 110.234H3.49591Z" fill="#B5B5B5"/>
<path d="M6.88341 103.292L8.00219 105.031L7.7225 105.107V101.235H8.74805V106.362H7.7225C7.33403 105.772 7.00772 105.243 6.74357 104.774C6.47941 104.305 6.23079 103.912 6.02879 103.595C5.81125 103.277 5.59371 103.02 5.37617 102.854C5.15863 102.687 4.89447 102.596 4.61477 102.596C4.39723 102.596 4.19523 102.642 4.02431 102.748C3.85338 102.838 3.72907 102.99 3.6203 103.201C3.52707 103.398 3.46492 103.67 3.46492 103.988C3.46492 104.396 3.57369 104.729 3.80677 105.016C4.02431 105.288 4.31954 105.44 4.69247 105.44V106.513C4.25739 106.544 3.86892 106.453 3.52707 106.241C3.18522 106.029 2.92106 105.727 2.71906 105.334C2.51706 104.941 2.42383 104.502 2.42383 104.003C2.42383 103.595 2.48598 103.247 2.57921 102.929C2.67245 102.612 2.82783 102.339 3.0143 102.112C3.20076 101.886 3.4183 101.719 3.66692 101.598C3.91554 101.477 4.19523 101.417 4.47493 101.417C4.72354 101.417 4.95662 101.462 5.15863 101.538C5.36063 101.613 5.56263 101.734 5.74909 101.901C5.93556 102.052 6.12202 102.249 6.30848 102.491C6.49495 102.717 6.68141 102.99 6.86787 103.307L6.88341 103.292Z" fill="#B5B5B5"/>
<path d="M0 95.9272H1.27417V97.3791H0V95.9272ZM2.56387 97.2279V96.0634H8.76378V97.2279H2.56387Z" fill="#B5B5B5"/>
<path d="M2.43945 90.9365C2.43945 90.6038 2.48607 90.2862 2.59484 90.014C2.70361 89.7417 2.84346 89.4998 3.02992 89.3032C3.21638 89.1066 3.465 88.9553 3.7447 88.8495C4.02439 88.7436 4.36624 88.6831 4.73917 88.6831H8.76367V89.8627H5.00333C4.50609 89.8627 4.13316 89.9837 3.90008 90.1954C3.667 90.4223 3.5427 90.7701 3.5427 91.2541C3.5427 91.617 3.62039 91.9498 3.79131 92.2522C3.96224 92.5547 4.19532 92.7967 4.47501 92.9933C4.75471 93.1899 5.08102 93.2957 5.43841 93.3411H4.75471C4.4284 93.3109 4.11762 93.2201 3.83793 93.0991C3.55823 92.963 3.30962 92.7967 3.10761 92.5849C2.90561 92.3732 2.73469 92.1312 2.61038 91.859C2.48607 91.5868 2.43945 91.2843 2.43945 90.9516V90.9365ZM2.56376 94.43V93.2504H8.76367V94.43H2.56376Z" fill="#B5B5B5"/>
</g>
<defs>
<clipPath id="clip0_157_4106">
<rect width="208" height="716" fill="white"/>
</clipPath>
</defs>
</svg>
