<svg width="65" height="65" viewBox="0 0 65 65" fill="none" xmlns="http://www.w3.org/2000/svg">
<path d="M32.274 63.1826C15.5204 63.1826 2 49.6622 2 32.9086C2 16.1549 15.5204 2.63452 32.274 2.63452C49.0276 2.63452 62.5481 16.1549 62.5481 32.9086C62.5481 49.5887 48.9542 63.1826 32.274 63.1826Z" fill="white"/>
<path d="M32.274 63.1826C15.5204 63.1826 2 49.6622 2 32.9085C2 16.1549 15.5204 2.63452 32.274 2.63452C49.0276 2.63452 62.5482 16.1549 62.5482 32.9085C62.5482 49.5887 48.9542 63.1826 32.274 63.1826Z" stroke="#E51E39" stroke-width="3.43118" stroke-miterlimit="10"/>
<g clip-path="url(#clip0_291_1721)">
<path d="M23.1725 46.3076C22.9981 46.3076 22.8421 46.2611 22.7045 46.1682C22.5485 46.066 22.3466 45.8522 22.264 45.4248C21.8052 43.0644 22.4567 41.0013 24.1818 39.3007C24.347 39.1335 24.5305 38.9941 24.7141 38.8454C24.8517 38.7339 24.9894 38.6316 25.1178 38.5108C24.8242 37.3957 24.7141 36.1597 24.7967 34.9331C23.6955 34.3569 22.3282 34.5428 21.4014 35.4256C21.3188 35.5092 21.2362 35.5836 21.1537 35.6672C21.0619 35.7601 20.9793 35.8438 20.8875 35.9367C20.5021 36.2991 19.9883 36.3084 19.6212 35.9553C19.2358 35.5836 19.2175 35.0725 19.5845 34.6357C21.0435 32.8979 23.0532 32.3404 25.127 33.0838C25.2371 32.7399 25.3564 32.3961 25.4941 32.0616C25.6317 31.7363 25.7969 31.4111 25.9621 31.1044L26.0263 30.9836C25.9529 30.8814 25.8795 30.7791 25.8061 30.6769C25.5124 30.268 25.2188 29.8499 24.9527 29.3945C24.2277 28.1214 23.8607 26.7182 23.8607 25.222V23.921C23.8607 23.159 24.3287 22.8895 24.76 22.8802C25.1821 22.8802 25.6684 23.1404 25.6868 23.8931C25.6868 24.1068 25.6868 24.3299 25.6959 24.5436C25.6959 25.064 25.7051 25.5472 25.7602 26.0305C25.8978 27.3129 26.3933 28.4745 27.2192 29.4874L28.4397 28.5489C28.1368 27.1177 28.8434 25.9004 30.3942 25.1569C30.4217 25.1569 30.4217 25.0733 30.4126 25.0361C30.2107 22.7594 28.4488 21.1517 26.0263 21.0402C25.7235 21.0216 25.4023 20.8915 25.2004 20.6871C24.9527 20.4362 24.9251 19.9157 25.1454 19.6277C25.3472 19.3861 25.6868 19.2095 25.9896 19.2095C27.5404 19.2095 28.9994 19.7299 30.2015 20.78C31.3486 21.7929 32.0368 23.1125 32.2387 24.6923H32.7434C32.8902 23.5214 33.3031 22.4992 33.9638 21.6628C35.221 20.0737 36.9002 19.2467 38.9741 19.2002C39.5338 19.2002 39.9468 19.5069 39.9835 20.0644C40.011 20.3897 39.8825 20.6034 39.7816 20.7242C39.6072 20.9194 39.3503 21.0309 39.0108 21.0402C36.9002 21.1331 35.2577 22.3505 34.7254 24.2184C34.6796 24.3763 34.652 24.4693 34.6337 24.5622C34.6245 24.6458 34.6062 24.7295 34.5878 24.8224C34.5694 24.9246 34.5327 25.1012 34.5511 25.1569C34.5511 25.1291 34.652 25.1848 34.7254 25.222C34.808 25.2685 34.8998 25.3056 34.9732 25.3614C36.1111 26.0769 36.6341 26.9691 36.5882 28.0935C36.5882 28.2422 36.5515 28.4002 36.524 28.5489L37.7628 29.4967C38.4602 28.6604 38.9007 27.7682 39.0658 26.8297C39.1851 26.1234 39.2218 25.38 39.2585 24.6551C39.2677 24.3856 39.2861 24.1161 39.3044 23.8374C39.3595 22.9731 39.9651 22.8802 40.2221 22.8802C40.7359 22.8802 41.0938 23.2333 41.1213 23.7723C41.314 26.7646 40.6075 29.1064 38.9741 30.9278L39.8825 33.0559C39.9376 33.0466 39.9927 33.028 40.0569 33.0187C40.4974 32.9072 40.9562 32.805 41.4425 32.7771C42.9383 32.6935 44.278 33.3254 45.4342 34.6636C45.7829 35.0632 45.7646 35.5836 45.3792 35.9553C45.0213 36.2991 44.5258 36.3084 44.1495 35.9832C44.0302 35.8809 43.9201 35.7694 43.81 35.6579C43.7458 35.5929 43.6815 35.5278 43.6173 35.4628C42.6813 34.5614 41.3507 34.3662 40.2221 34.9609C40.2771 36.2062 40.1762 37.3771 39.8825 38.4644C39.8734 38.5015 39.8642 38.5294 39.8642 38.5387C39.8642 38.5387 39.8917 38.5573 39.9284 38.5852C41.4242 39.6539 42.3601 41.0478 42.718 42.7019C42.9107 43.6033 42.9107 44.5233 42.718 45.4433C42.5528 46.2146 42.0298 46.3912 41.5985 46.2983C41.3599 46.2518 41.1672 46.1124 41.0388 45.9173C40.9378 45.7593 40.8277 45.4712 40.9195 45.0437C41.1489 43.9472 41.002 42.9064 40.4698 41.8749C40.167 41.2894 39.7724 40.8062 39.2677 40.388C38.2124 42.7019 36.524 45.2296 33.037 45.8708L32.4956 45.973L31.9634 45.8708C28.5131 45.2482 26.843 42.832 25.7235 40.3973C25.4482 40.6575 25.1821 40.9084 24.971 41.1779C24.0901 42.3116 23.7873 43.6126 24.0717 45.0437C24.2277 45.8243 23.8056 46.2054 23.4019 46.2983C23.3284 46.3169 23.255 46.3262 23.1816 46.3262L23.1725 46.3076ZM41.0571 41.0199C41.1397 41.15 41.2131 41.2894 41.2865 41.4288C41.9105 42.6462 42.0849 43.9193 41.8187 45.2203C41.8187 45.2575 41.8096 45.2947 41.8004 45.3225C41.8004 45.3039 41.8187 45.2668 41.8279 45.2389C41.9931 44.4583 41.9931 43.6684 41.8279 42.8971C41.6811 42.2094 41.4242 41.5961 41.0571 41.0292V41.0199ZM24.0626 40.8341C23.1357 42.1165 22.8421 43.5662 23.1633 45.2389C23.1633 45.2668 23.1725 45.2947 23.1816 45.3132C23.1816 45.2854 23.1816 45.2482 23.1633 45.211C22.8421 43.6126 23.1449 42.1351 24.0626 40.8341ZM26.0355 38.7803L26.3016 39.403C27.2651 41.6704 28.6507 44.0494 31.5871 44.8114V28.4095H33.4224V44.8207C36.3497 44.0587 37.7077 41.7076 38.6621 39.4866L38.8731 38.9848L39.332 39.2821L39.3503 39.3007C38.9833 39.0127 38.8731 38.6781 39.0016 38.2228C39.2677 37.2284 39.3595 36.1597 39.2769 35.0446C39.2402 34.4963 39.5614 34.264 39.7999 34.1339C39.9468 34.0595 40.1028 33.9852 40.2588 33.9294C40.0661 33.9759 39.8734 34.0224 39.6898 34.0595L39.3228 34.1339L37.8821 30.742L38.0932 30.5189C38.5336 30.0636 38.9098 29.5618 39.2127 29.0228C38.9282 29.5153 38.5703 29.9985 38.139 30.4539L37.8546 30.7606L35.4963 28.9484L35.588 28.4466C35.6155 28.3165 35.6431 28.1864 35.6523 28.0563C35.689 27.2757 35.3219 26.6903 34.4685 26.1513C34.4134 26.1141 34.3584 26.0862 34.2942 26.0584C34.0647 25.9468 33.7895 25.8074 33.6702 25.5008C33.6243 25.3893 33.6059 25.287 33.6059 25.1755C33.6059 25.1848 33.6059 25.1941 33.6059 25.2034L33.5784 25.6309H31.3853L31.3577 25.2034C31.3577 25.0919 31.3394 24.9897 31.3302 24.8874C31.3302 24.9153 31.3302 24.9339 31.3302 24.9618C31.3577 25.2313 31.4036 25.7238 30.7888 26.0119C29.5408 26.5973 29.0637 27.4988 29.4032 28.6046L29.4949 28.9206L27.0999 30.7606L26.8155 30.4539C26.6778 30.3052 26.5493 30.1472 26.43 29.9985C26.4668 30.045 26.5035 30.1008 26.5402 30.1472C26.6686 30.3331 26.8063 30.5189 26.9347 30.7048L27.0907 30.9371L26.7604 31.569C26.6044 31.8571 26.4576 32.1452 26.3199 32.4519C26.1915 32.7585 26.0813 33.0838 25.9712 33.409L25.6776 34.2733L25.2647 34.1525C25.1912 34.1339 25.1362 34.1153 25.0811 34.0874C25.0444 34.0688 25.0077 34.0595 24.971 34.041C25.0536 34.0781 25.1362 34.1246 25.2188 34.1618C25.3472 34.2361 25.7418 34.4498 25.7051 35.0167C25.6317 36.1504 25.7326 37.2842 25.9988 38.3993C26.0355 38.5573 26.0079 38.7339 25.9529 38.8826L26.0263 38.8082L26.0355 38.7803ZM24.8976 39.8862C24.8976 39.8862 24.8517 39.9327 24.8242 39.9605L24.76 40.0256C24.8058 39.9791 24.8517 39.9327 24.8976 39.8862ZM41.6811 33.6785C42.6171 33.7064 43.5347 34.0781 44.2505 34.7658C44.3239 34.8308 44.3973 34.9052 44.4615 34.9795C44.5533 35.0725 44.645 35.1747 44.746 35.2583C43.8192 34.1989 42.8281 33.6785 41.6994 33.6785H41.6719H41.6811ZM22.943 33.7064C21.952 33.8179 21.0435 34.329 20.2819 35.2304C20.3461 35.1654 20.4287 35.0911 20.5113 35.0074C20.6031 34.9145 20.6857 34.8216 20.7866 34.7379C21.4014 34.1525 22.1631 33.8086 22.9522 33.7064H22.943ZM24.7875 24.4135V25.2127C24.7875 26.3464 25.0169 27.4244 25.4849 28.4095C25.1545 27.6939 24.9435 26.9226 24.8609 26.1234C24.8058 25.5937 24.7967 25.064 24.7875 24.5436C24.7875 24.4971 24.7875 24.4507 24.7875 24.4042V24.4135ZM40.2129 23.9024C40.1945 24.1626 40.1854 24.4321 40.1762 24.6923C40.1395 25.445 40.1028 26.2256 39.9743 26.9784C39.9376 27.1921 39.8917 27.3965 39.8275 27.6103C40.167 26.523 40.2955 25.287 40.2221 23.9024H40.2129ZM38.5611 20.1481C36.9645 20.2782 35.689 20.9658 34.6887 22.239C34.1565 22.9174 33.817 23.7165 33.6793 24.6644V24.6365C33.6977 24.5715 33.716 24.4971 33.7252 24.4321C33.7436 24.2927 33.7803 24.1533 33.8262 24.0139C34.4593 21.8301 36.2487 20.3897 38.5611 20.1481Z" fill="#EE2340"/>
</g>
<defs>
<clipPath id="clip0_291_1721">
<rect width="26.3544" height="27.1074" fill="white" transform="translate(19.3174 19.2002)"/>
</clipPath>
</defs>
</svg>
