<svg width="65" height="65" viewBox="0 0 65 65" fill="none" xmlns="http://www.w3.org/2000/svg">
<path d="M32.274 62.5481C15.5204 62.5481 2 49.0276 2 32.274C2 15.5204 15.5204 2 32.274 2C49.0276 2 62.5481 15.5204 62.5481 32.274C62.5481 48.9542 48.9542 62.5481 32.274 62.5481Z" fill="white"/>
<path d="M32.274 62.5481C15.5204 62.5481 2 49.0276 2 32.274C2 15.5204 15.5204 2 32.274 2C49.0276 2 62.5482 15.5204 62.5482 32.274C62.5482 48.9542 48.9542 62.5481 32.274 62.5481Z" stroke="#E51E39" stroke-width="3.43118" stroke-miterlimit="10"/>
<path d="M48.2058 32.1919C48.2058 33.2212 47.348 33.9075 46.4902 33.9075H44.7746V42.8286C44.7746 43.0002 44.7746 43.1717 44.7746 43.3433V44.2011C44.7746 45.402 43.7453 46.4314 42.5443 46.4314H41.6865C41.515 46.4314 41.515 46.4314 41.515 46.4314H41.3434H39.6278H38.2553C37.0544 46.4314 36.025 45.402 36.025 44.2011V42.8286V39.2258C36.025 38.1965 35.1672 37.5102 34.3094 37.5102H30.7066C29.6773 37.5102 28.991 38.368 28.991 39.2258V42.8286V44.2011C28.991 45.402 27.9617 46.4314 26.7608 46.4314H25.3883H23.6727C23.5011 46.4314 23.5011 46.4314 23.3295 46.4314H23.158H22.3002C21.0992 46.4314 20.0699 45.402 20.0699 44.2011V38.0249C20.0699 38.0249 20.0699 38.0249 20.0699 37.8534V33.9075H18.3543C17.3249 33.9075 16.6387 33.0497 16.6387 32.1919C16.6387 31.6772 16.8102 31.1625 17.1534 30.8194L31.3929 18.2954C31.736 17.9523 32.2507 17.7808 32.5938 17.7808C32.9369 17.7808 33.4516 17.9523 33.7947 18.1239L48.0343 30.6478C48.0343 31.3341 48.2058 31.6772 48.2058 32.1919Z" fill="#E31738"/>
</svg>
