<svg width="65" height="65" viewBox="0 0 65 65" fill="none" xmlns="http://www.w3.org/2000/svg">
<path d="M32.2741 62.5481C15.5205 62.5481 2 49.0276 2 32.274C2 15.5204 15.5205 2 32.2741 2C49.0277 2 62.5481 15.5204 62.5481 32.274C62.5481 49.0276 49.0277 62.5481 32.2741 62.5481Z" fill="white"/>
<path d="M32.2741 62.5481C15.5205 62.5481 2 49.0276 2 32.274C2 15.5204 15.5205 2 32.2741 2C49.0277 2 62.5482 15.5204 62.5482 32.274C62.5482 49.0276 49.0277 62.5481 32.2741 62.5481Z" stroke="#E51E39" stroke-width="3.43118" stroke-miterlimit="10"/>
<path d="M32.2725 46.4315C26.4394 46.4315 21.6357 41.6278 21.6357 35.7947C21.6357 30.8194 28.8413 21.212 30.9 18.6386C31.2431 18.2955 31.7578 17.9524 32.2725 17.9524C32.7872 17.9524 33.3019 18.2955 33.645 18.6386C35.7037 21.212 42.9093 30.6479 42.9093 35.7947C42.9093 41.6278 38.1056 46.4315 32.2725 46.4315ZM26.9541 36.6525C26.9541 36.1378 26.4394 35.7947 26.0963 35.7947C25.5816 35.7947 25.2385 36.3094 25.2385 36.6525C25.2385 40.0837 27.9835 42.8287 31.4147 42.8287C31.9294 42.8287 32.2725 42.4856 32.2725 41.9709C32.2725 41.4562 31.7578 41.1131 31.4147 41.1131C28.8413 41.1131 26.9541 39.2259 26.9541 36.6525Z" fill="#E31738"/>
</svg>
