<svg width="65" height="65" viewBox="0 0 65 65" fill="none" xmlns="http://www.w3.org/2000/svg">
<path d="M32.274 63.1826C15.5204 63.1826 2 49.6622 2 32.9086C2 16.1549 15.5204 2.63452 32.274 2.63452C49.0276 2.63452 62.5481 16.1549 62.5481 32.9086C62.5481 49.5887 48.9542 63.1826 32.274 63.1826Z" fill="white"/>
<path d="M32.274 63.1826C15.5204 63.1826 2 49.6622 2 32.9085C2 16.1549 15.5204 2.63452 32.274 2.63452C49.0276 2.63452 62.5482 16.1549 62.5482 32.9085C62.5482 49.5887 48.9542 63.1826 32.274 63.1826Z" stroke="#E51E39" stroke-width="3.43118" stroke-miterlimit="10"/>
<g clip-path="url(#clip0_291_1729)">
<path d="M30.6417 47.0607C29.236 47.0607 28.0282 46.1408 27.7015 44.761C27.652 44.531 27.6223 44.301 27.6223 44.061C27.6223 41.4714 27.6223 38.8817 27.6223 36.292C27.6223 34.8922 28.2955 33.9223 29.5627 33.4724V32.3325C29.5627 31.7826 29.5627 31.2226 29.5627 30.6727C29.5627 30.2528 29.7508 29.9828 30.1468 29.8628C33.8097 28.723 37.4726 27.5831 41.1355 26.4332L42.076 26.1333V23.1137H41.5117V23.6036C41.5117 24.4435 41.185 25.1634 40.5514 25.7433C40.0663 26.1833 39.4921 26.4132 38.8487 26.4132H22.1378C20.544 26.3932 19.3362 25.1734 19.3164 23.5636C19.3164 22.5237 19.3164 21.4839 19.3164 20.434C19.3362 18.8842 20.5143 17.7043 22.0487 17.6943H23.4347V21.0139C23.4347 21.3539 23.5238 21.5739 23.7218 21.7438C23.999 21.9838 24.2762 22.0238 24.5831 21.8838C24.9098 21.7338 25.0781 21.4939 25.0781 21.1239C25.088 20.504 25.0781 19.8741 25.0781 19.2541V17.7043H26.5234L26.5432 18.1843C26.5432 18.3143 26.5531 18.3842 26.5531 18.4542V18.8542C26.5531 19.2241 26.563 19.5941 26.5531 19.9641C26.5531 20.164 26.6026 20.324 26.7214 20.444C26.8303 20.554 26.9788 20.624 27.1372 20.624C27.3253 20.624 27.5332 20.524 27.6718 20.384C27.7807 20.264 27.8401 20.124 27.8302 19.9541C27.8104 19.5641 27.8203 19.1742 27.8302 18.7942L27.8698 18.0943L27.9787 17.7743L28.3351 17.7143C28.4638 17.7143 28.5232 17.7043 28.5925 17.7043H38.8388C40.2445 17.7043 41.4325 18.8742 41.482 20.304C41.482 20.534 41.482 20.764 41.482 21.0039H44.1351V22.7737C44.1351 24.2235 44.1351 25.6733 44.1351 27.1332C44.1351 27.5431 43.9371 27.8231 43.5511 27.9431L38.522 29.5029C36.2153 30.2228 33.9087 30.9427 31.602 31.6526C31.602 32.1825 31.602 32.6925 31.602 33.1924V33.4824C32.889 33.9523 33.5226 34.8722 33.5325 36.292C33.5424 38.9017 33.5424 41.5114 33.5325 44.121C33.5226 45.6508 32.4039 46.9107 30.9387 47.0607C30.8298 47.0707 30.7209 47.0807 30.612 47.0807L30.6417 47.0607ZM30.5428 30.7827C30.5428 31.3126 30.5428 31.8226 30.5428 32.3325V33.6423C30.5428 34.0023 30.3646 34.2623 30.0181 34.3722C29.0479 34.6722 28.6123 35.2621 28.6123 36.302C28.6123 38.8917 28.6123 41.4814 28.6123 44.071C28.6123 44.231 28.6321 44.391 28.6618 44.541C28.8895 45.5209 29.8102 46.1608 30.8694 46.0608C31.8297 45.9608 32.5623 45.1209 32.5722 44.111C32.5821 41.5114 32.5821 38.9017 32.5722 36.292C32.5722 35.2421 32.1465 34.6822 31.1268 34.3623L30.6912 34.1923L30.6417 33.8323V33.1924C30.6417 32.6625 30.6417 32.1325 30.6417 31.6026C30.6318 31.1527 30.8397 30.8627 31.2654 30.7227C33.6018 30.0028 35.9282 29.2729 38.2646 28.543L43.1749 27.0132C43.1749 25.5833 43.1749 24.1835 43.1749 22.7737V22.0038H40.5217V21.0939C40.5217 20.8339 40.5217 20.584 40.5217 20.334C40.492 19.4341 39.7495 18.7042 38.8685 18.7042H28.8499V18.8142C28.8499 19.1841 28.84 19.5541 28.8499 19.9241C28.8697 20.354 28.7113 20.764 28.4143 21.0839C28.0975 21.4239 27.6322 21.6338 27.1669 21.6438C26.761 21.6238 26.365 21.4939 26.0681 21.2039C26.0483 21.9438 25.6622 22.5237 24.9791 22.8237C24.3158 23.1237 23.6327 23.0137 23.0684 22.5237C22.6427 22.1538 22.4348 21.6538 22.4348 21.0239V18.6942H22.0388C21.039 18.6942 20.3064 19.4341 20.2965 20.444C20.2965 21.4839 20.2965 22.5137 20.2965 23.5536C20.2965 24.6135 21.0687 25.3934 22.1279 25.3934H38.8289C39.2249 25.3934 39.5713 25.2634 39.8782 24.9834C40.3039 24.6035 40.5118 24.1435 40.5118 23.5836V22.1038H43.0561V26.8532L41.4127 27.3731C37.7894 28.503 34.1661 29.6428 30.5428 30.7627V30.7827Z" fill="#EE2340"/>
</g>
<defs>
<clipPath id="clip0_291_1729">
<rect width="24.8484" height="29.3663" fill="white" transform="translate(19.3164 17.6943)"/>
</clipPath>
</defs>
</svg>
