<svg width="65" height="65" viewBox="0 0 65 65" fill="none" xmlns="http://www.w3.org/2000/svg">
<path d="M32.274 63.1824C15.5204 63.1824 2 49.6619 2 32.9083C2 16.1547 15.5204 2.63428 32.274 2.63428C49.0276 2.63428 62.5481 16.1547 62.5481 32.9083C62.5481 49.5884 48.9542 63.1824 32.274 63.1824Z" fill="white"/>
<path d="M32.274 63.1824C15.5204 63.1824 2 49.6619 2 32.9083C2 16.1547 15.5204 2.63428 32.274 2.63428C49.0276 2.63428 62.5482 16.1547 62.5482 32.9083C62.5482 49.5884 48.9542 63.1824 32.274 63.1824Z" stroke="#E51E39" stroke-width="3.43118" stroke-miterlimit="10"/>
<g clip-path="url(#clip0_291_1715)">
<path d="M30.0531 47.0604C29.9086 47.0604 29.7641 47.0315 29.6293 46.964C29.1381 46.7228 28.9455 46.144 29.167 45.6327C29.3789 45.16 29.5908 44.6969 29.8027 44.2242L29.8893 44.0409C30.0531 43.6743 30.3806 43.4331 30.7273 43.4235H30.7465C31.0933 43.4235 31.4689 43.5875 31.6615 43.8769C31.8349 44.1374 31.8638 44.4557 31.7386 44.7644C31.4978 45.3433 31.2281 45.9221 30.9584 46.4913C30.8429 46.7324 30.631 46.9254 30.3709 47.0122C30.265 47.0508 30.159 47.0701 30.0434 47.0701L30.0531 47.0604ZM30.8043 44.3882L30.6888 44.6197C30.4769 45.0828 30.265 45.5555 30.0531 46.0186C30.3517 45.5073 30.6117 44.9477 30.8525 44.3882C30.8525 44.3882 30.8332 44.3882 30.814 44.3882H30.8043ZM37.6523 47.0508C37.267 47.0508 36.9299 46.8772 36.7373 46.5877C36.5639 46.3176 36.5351 45.9703 36.6603 45.6713C36.7951 45.3529 36.9396 45.0346 37.084 44.7162L37.5849 43.6068C37.8642 42.9797 38.1435 42.3623 38.4228 41.7352C38.548 41.4458 38.7792 41.2432 39.0585 41.1468C39.3282 41.0599 39.6075 41.0889 39.8579 41.2336C40.3202 41.4941 40.4743 41.9957 40.2528 42.4974L38.6636 46.0475C38.6058 46.1729 38.5577 46.2983 38.4902 46.4237C38.3072 46.8 37.9894 47.0315 37.6619 47.0412L37.6523 47.0508ZM39.3667 42.1115C39.0007 42.7675 38.7214 43.3849 38.4517 44.012L37.9509 45.1214C37.8064 45.4301 37.6716 45.7388 37.5367 46.0475C37.5367 46.0475 37.5464 46.0668 37.5753 46.0764C37.5849 46.0668 37.6041 46.0379 37.6138 46.0186C37.6716 45.9028 37.7197 45.787 37.7679 45.6713L39.3571 42.1115H39.3667ZM35.3311 47.0508C35.0037 47.0508 34.6954 46.8868 34.5221 46.6167C34.3391 46.3369 34.3102 45.98 34.445 45.652C34.5799 45.324 34.734 45.0056 34.8784 44.6776L36.9974 39.9795C37.0744 39.8155 37.267 39.3813 37.7871 39.2849C38.1628 39.2173 38.5191 39.3524 38.7599 39.6611C38.8948 39.8348 39.0874 40.1917 38.8659 40.6933C38.1435 42.2851 37.4308 43.8769 36.7084 45.4687L36.3039 46.3755C36.0535 46.935 35.6393 47.0508 35.3311 47.0604V47.0508ZM37.9605 40.2592C37.9605 40.2592 37.9124 40.2978 37.8738 40.375L35.7549 45.0828C35.6104 45.4011 35.466 45.7195 35.3311 46.0379V46.0861C35.3311 46.0861 35.3793 46.0861 35.4274 45.9703L35.832 45.0635C36.5447 43.4717 37.267 41.8799 37.9894 40.2882C37.9798 40.2689 37.9701 40.2592 37.9509 40.2592H37.9605ZM39.9061 47.0412C39.7616 47.0412 39.6075 47.0122 39.4534 46.9447C39.2319 46.8482 39.0681 46.6746 38.9718 46.4527C38.8659 46.2019 38.8755 45.9028 38.9911 45.6327C39.1163 45.3433 39.2511 45.0538 39.3763 44.7644L42.0154 38.9279C42.1117 38.7157 42.2465 38.407 42.6318 38.2526H41.1678C41.6301 38.4938 41.8324 39.0533 41.6205 39.5453C41.4567 39.9216 41.293 40.2882 41.1196 40.6548C40.9559 41.0021 40.6381 41.2336 40.3106 41.2529H40.2913C39.935 41.2722 39.5979 41.1275 39.4052 40.8766C39.2319 40.6548 39.1644 40.3653 39.2415 40.0663C39.28 39.9023 39.3474 39.7383 39.4149 39.5839L39.9157 39.6515L39.4727 39.4585C39.5882 39.2077 39.6942 38.9472 39.8194 38.706C39.9157 38.5035 40.0794 38.3491 40.2624 38.2526H36.0246C36.2461 38.3491 36.4291 38.542 36.5351 38.7929C36.5639 38.8604 36.5832 38.9279 36.5928 39.0051L36.6217 39.1402L36.5928 39.3331L36.1402 39.1788L36.5736 39.4006C36.5543 39.4778 36.5254 39.555 36.4965 39.6322L33.453 46.3755C33.2218 46.8772 32.8077 47.1183 32.3165 47.0219C31.9986 46.964 31.7482 46.7807 31.6037 46.5202C31.4689 46.2597 31.4593 45.951 31.5845 45.6713C31.7097 45.3722 31.8445 45.0828 31.9794 44.7837L34.6762 38.8218C34.7918 38.5517 34.9844 38.3684 35.2155 38.2623H33.5686C34.0983 38.5035 34.3198 39.0823 34.079 39.6129C33.6745 40.5101 33.27 41.4169 32.8655 42.3141L32.8077 42.4298C32.615 42.864 32.2779 43.0665 31.7386 43.0569C31.4593 43.0569 31.1896 42.9025 31.0259 42.6517C30.8332 42.3527 30.814 41.9668 30.9681 41.6195C31.2378 41.0214 31.5074 40.4136 31.7771 39.8155L32.1142 39.063C32.1624 38.9665 32.2009 38.8604 32.2491 38.7639C32.3646 38.5227 32.5573 38.3491 32.7788 38.2526H31.4207L38.1435 23.4443L38.5866 23.6469C39.3474 23.9942 40.0024 24.4476 40.5899 25.0264C41.553 25.9719 42.1791 27.1102 42.468 28.4029C42.5451 28.7695 42.5836 29.1361 42.6125 29.493V29.6088C44.2499 30.1105 45.2708 31.2392 45.6753 32.9467C45.7331 33.2168 45.7427 33.4773 45.7427 33.7281C46.6481 34.1237 47.2163 35.0401 47.1489 36.0241C47.0719 37.1625 46.3014 38.0307 45.1937 38.2333C45.0204 38.2623 44.8374 38.2719 44.664 38.2719H43.383C43.4408 38.2912 43.4986 38.3298 43.5468 38.3587C43.8261 38.542 43.9994 38.8508 44.0091 39.198V39.2849L43.9802 39.362L43.5275 39.2077L43.9705 39.4006C43.9513 39.4682 43.9224 39.5453 43.8935 39.6225L40.85 46.3659C40.85 46.3659 40.8018 46.4623 40.7729 46.5202C40.5706 46.8772 40.2528 47.0604 39.8964 47.0604L39.9061 47.0412ZM35.543 39.2077L32.8462 45.1793C32.7114 45.4687 32.5862 45.7581 32.4609 46.0475C32.4995 46.0861 32.5284 46.0475 32.5669 45.9703L35.6104 39.227L35.543 39.2077ZM43.0267 39.1498C42.9689 39.1498 42.9303 39.2559 42.8918 39.3331L40.2528 45.1696C40.1276 45.4494 40.0024 45.7291 39.8772 46.0089L39.9735 45.951L43.017 39.2077C43.017 39.2077 43.0267 39.1788 43.0363 39.1595H43.0267V39.1498ZM33.1929 39.198C33.0774 39.2656 33.0388 39.3524 33.0003 39.4392L32.6632 40.1917C32.3935 40.7898 32.1238 41.3879 31.8542 41.9957C31.8445 42.0247 31.8349 42.0536 31.8349 42.0729C31.8831 42.0729 31.9023 42.0632 31.9023 42.0632L31.9794 41.8992C32.3839 41.0021 32.7884 40.1049 33.1929 39.198ZM40.1661 40.2592C40.1661 40.2592 40.1854 40.2592 40.2046 40.2592C40.4165 39.8541 40.5803 39.4971 40.7247 39.1402C40.5417 39.3524 40.4358 39.5839 40.3395 39.8251L40.2817 39.9602C40.2432 40.0566 40.195 40.1531 40.1661 40.2592ZM38.6251 24.7274L32.9233 37.2783H44.6447C44.7796 37.2783 44.9048 37.2783 45.03 37.259C45.7138 37.1336 46.1473 36.6416 46.1954 35.9277C46.2339 35.3199 45.8583 34.7507 45.2612 34.5578C45.0974 34.4999 44.8085 34.3455 44.7892 33.9114V33.7185C44.7892 33.5062 44.7796 33.3133 44.7411 33.1397C44.4136 31.7312 43.5853 30.8533 42.2272 30.4674C41.8998 30.3806 41.7168 30.1587 41.6879 29.8114L41.6686 29.5606C41.6397 29.2229 41.6108 28.8949 41.5434 28.5862C41.293 27.4768 40.7536 26.5024 39.9253 25.6921C39.5304 25.3062 39.1067 24.9878 38.6347 24.7274H38.6251ZM23.8312 44.6197C23.417 44.6197 23.051 44.4171 22.8102 44.0602C22.5309 43.6454 22.5213 43.1727 22.791 42.7482L25.979 37.6449L28.0883 38.9279L24.9388 43.9734C24.7076 44.34 24.3994 44.5522 24.0238 44.6101C23.9564 44.6101 23.8986 44.6197 23.8312 44.6197ZM26.2968 38.9569L23.6193 43.2498C23.5518 43.356 23.5518 43.4138 23.6193 43.52C23.7059 43.655 23.783 43.6647 23.8889 43.655C23.9275 43.655 24.0045 43.6357 24.1201 43.4621L26.7591 39.2463L26.2968 38.9665V38.9569ZM29.0129 38.7446L28.5698 38.5227C26.9036 37.6931 25.613 36.1978 25.0351 34.4034C24.4572 32.6187 24.6306 30.7086 25.5167 29.03C27.3852 25.5088 31.5845 24.573 34.3391 25.9236L34.7629 26.1262L29.0033 38.7446H29.0129ZM31.6615 26.2902C29.6678 26.2902 27.52 27.3224 26.3739 29.4834C25.613 30.9305 25.4589 32.5705 25.9501 34.114C26.3931 35.4936 27.337 36.6802 28.5602 37.423L33.4915 26.6086C32.9233 26.3963 32.2972 26.2902 31.6615 26.2902ZM19.0539 37.3554C18.6109 37.3554 18.2064 37.1336 17.9945 36.7573C17.6863 36.2171 17.7826 35.59 18.216 35.2138C18.3509 35.098 18.505 35.0112 18.6687 34.963C20.2194 34.5096 21.7604 34.0561 23.3111 33.6124L24.1201 33.3808L24.2646 33.4098H24.6306V33.7474L25.1796 35.6479L19.4392 37.3169C19.314 37.3554 19.1888 37.3651 19.0732 37.3651L19.0539 37.3554ZM23.8312 34.4517L23.5807 34.5288C22.0397 34.9823 20.489 35.426 18.948 35.8794C18.9287 35.8794 18.8902 35.9084 18.8517 35.9373C18.7168 36.0531 18.8035 36.2364 18.8324 36.2846C18.8902 36.3811 19.0251 36.4197 19.1599 36.3811L23.9756 34.9823L23.8312 34.4613V34.4517ZM24.5824 30.6507L19.2369 28.2968C18.6205 28.0267 18.3027 27.4382 18.4375 26.8304C18.582 26.213 19.2273 25.7886 19.863 25.914C19.9786 25.9333 20.1038 25.9719 20.2194 26.0201L25.1314 28.21L25.4974 28.4222L25.3722 28.837L24.592 30.6603L24.5824 30.6507ZM19.6511 26.8594C19.5355 26.8594 19.4103 26.9462 19.3814 27.0523C19.3429 27.226 19.4777 27.3514 19.6222 27.4189L24.0816 29.3773L24.2935 28.8756L19.8245 26.898C19.8245 26.898 19.7378 26.869 19.68 26.8594C19.6704 26.8594 19.6511 26.8594 19.6415 26.8594H19.6511ZM27.4333 26.3867L27.2022 26.0104C27.1636 25.9526 27.1444 25.914 27.1155 25.8657L24.8425 21.2255C24.5439 20.6177 24.6884 19.9906 25.2181 19.624C25.507 19.4215 25.8538 19.3443 26.1812 19.4118C26.5087 19.4793 26.7784 19.6819 26.9614 19.981C27.0673 20.145 27.1444 20.3186 27.2311 20.5019L29.5426 25.2387L28.9069 25.6438L27.443 26.3963L27.4333 26.3867ZM25.9404 20.3476C25.8827 20.3476 25.8249 20.3669 25.7671 20.4055C25.6997 20.4537 25.5841 20.5309 25.7093 20.7913L27.8186 25.094L28.3098 24.8431L26.3642 20.8975C26.2968 20.7528 26.2198 20.6081 26.1427 20.4633C26.1042 20.3958 26.0464 20.3572 25.9886 20.3379C25.979 20.3379 25.9597 20.3379 25.9501 20.3379L25.9404 20.3476ZM34.6569 25.5281L32.2972 24.9975L33.0196 22.0551C33.2315 21.1965 33.453 20.3379 33.6552 19.4793C33.7612 19.0356 34.0501 18.6883 34.4354 18.5339C34.8014 18.3892 35.2252 18.4278 35.5623 18.6497C36.015 18.9487 36.2076 19.489 36.0727 20.0678L34.8592 24.9686C34.8399 25.0264 34.8207 25.0843 34.811 25.1326L34.6666 25.5377L34.6569 25.5281ZM33.4626 24.274L33.9923 24.3994L35.1289 19.8266C35.177 19.653 35.1385 19.5179 35.0325 19.4504C34.9555 19.4022 34.8688 19.3925 34.7918 19.4215C34.6954 19.46 34.6184 19.5565 34.5895 19.7012C34.3872 20.5695 34.1657 21.4281 33.9538 22.2867L33.4626 24.274Z" fill="#EE2340"/>
</g>
<defs>
<clipPath id="clip0_291_1715">
<rect width="29.3663" height="28.6133" fill="white" transform="translate(17.8125 18.447)"/>
</clipPath>
</defs>
</svg>
