<svg width="65" height="65" viewBox="0 0 65 65" fill="none" xmlns="http://www.w3.org/2000/svg">
<path d="M32.274 63.1826C15.5204 63.1826 2 49.6622 2 32.9086C2 16.1549 15.5204 2.63452 32.274 2.63452C49.0276 2.63452 62.5481 16.1549 62.5481 32.9086C62.5481 49.5887 48.9542 63.1826 32.274 63.1826Z" fill="white"/>
<path d="M32.274 63.1826C15.5204 63.1826 2 49.6622 2 32.9085C2 16.1549 15.5204 2.63452 32.274 2.63452C49.0276 2.63452 62.5482 16.1549 62.5482 32.9085C62.5482 49.5887 48.9542 63.1826 32.274 63.1826Z" stroke="#E51E39" stroke-width="3.43118" stroke-miterlimit="10"/>
<g clip-path="url(#clip0_291_1696)">
<path d="M39.9741 45.5546C36.025 45.5546 32.2452 43.5425 30.0901 40.1231L29.9773 39.5074V40.0571C28.5557 40.0681 27.1227 40.0571 25.701 40.0571C24.9789 40.0571 24.3696 39.5953 24.1778 38.9136C23.986 38.2209 24.2681 37.4953 24.8887 37.1544C25.1707 37.0005 25.498 36.9015 25.8026 36.9015C27.1114 36.9015 28.4203 36.9015 29.7291 36.9015H30.9364C31.6021 36.9015 32.1211 37.2204 32.4821 37.8581C33.8361 40.244 35.8445 41.6954 38.4509 42.1901C42.2081 42.8938 46.0105 40.9917 47.6917 37.5612C48.8764 35.1423 48.8313 32.3716 47.5788 29.9747C46.3603 27.6437 44.1827 26.0384 41.5988 25.5656C41.046 25.4667 40.4254 25.4117 39.7033 25.4117C33.3397 25.4117 26.9647 25.4117 20.6011 25.4117H13.7749C13.5379 25.4117 13.2897 25.4117 13.064 25.3567C12.3306 25.2138 11.7891 24.5651 11.7891 23.8174C11.7891 23.0698 12.3081 22.4211 13.0302 22.2671C13.2784 22.2122 13.5154 22.2122 13.7185 22.2122H39.771C41.926 22.2122 43.7765 22.652 45.4464 23.5645C49.1021 25.5656 51.1781 28.6113 51.6295 32.6025C52.2952 38.5838 48.3122 44.0373 42.3774 45.3017C41.5763 45.4667 40.7752 45.5546 39.9741 45.5546ZM29.9773 38.9576C30.4512 38.9576 30.7897 39.1445 31.0492 39.5513C33.3961 43.2567 37.8529 45.1368 42.1404 44.2242C47.5112 43.0807 51.1217 38.133 50.5124 32.7124C50.1063 29.0951 48.222 26.3353 44.9048 24.5101C43.4154 23.6965 41.7342 23.3007 39.7823 23.3007H13.7185C13.5605 23.3007 13.4025 23.3007 13.2671 23.3337C13.064 23.3776 12.9174 23.5755 12.9174 23.7954C12.9174 24.0153 13.0753 24.2133 13.2784 24.2462C13.4364 24.2792 13.6056 24.2792 13.7749 24.2792H20.6011C26.9647 24.2792 33.3397 24.2792 39.7033 24.2792C40.4931 24.2792 41.1814 24.3342 41.8019 24.4442C44.7355 24.9719 47.2065 26.7971 48.583 29.4359C49.9934 32.1407 50.0386 35.2633 48.7072 38.001C46.8003 41.8933 42.4902 44.0483 38.2365 43.2457C35.2916 42.6849 33.0237 41.0467 31.5005 38.3639C31.32 38.045 31.162 37.979 30.9364 37.979H29.7291C28.4203 37.979 27.1114 37.979 25.8139 37.979C25.701 37.979 25.5656 38.023 25.4528 38.078C25.2836 38.177 25.2046 38.3859 25.2723 38.5948C25.3287 38.8037 25.498 38.9356 25.7123 38.9356C27.134 38.9356 28.5557 38.9466 29.9773 38.9356H29.9886L29.9773 38.9576ZM42.7948 38.5618C42.7046 38.5618 42.6143 38.5618 42.524 38.5398C42.163 38.4738 41.8019 38.2869 41.5537 38.056C40.4367 36.9895 39.5566 36.1099 38.7781 35.2853C38.5073 35.0104 38.3268 34.5486 38.3155 34.1308C38.2929 33.3501 38.2929 32.5695 38.2929 31.7888V29.9857C38.2929 29.249 38.2929 28.5013 38.2929 27.7647C38.2929 27.2259 38.5411 26.7311 38.9586 26.4123C39.3648 26.1044 39.8951 26.0054 40.4028 26.1264C41.1024 26.3023 41.565 26.896 41.565 27.6327C41.565 29.5349 41.5424 31.437 41.565 33.3391C42.0276 33.8229 42.4564 34.2517 42.8964 34.6805C43.2462 35.0214 43.5847 35.3622 43.9344 35.7141C44.4309 36.2198 44.5663 36.9785 44.2616 37.6162C43.9796 38.2099 43.4041 38.5728 42.8061 38.5728L42.7948 38.5618ZM39.9854 27.1709C39.8613 27.1709 39.7484 27.2039 39.6582 27.2809C39.5115 27.3908 39.4325 27.5667 39.4325 27.7647C39.4325 28.5013 39.4325 29.249 39.4325 29.9857V31.7998C39.4325 32.5695 39.4325 33.3391 39.4438 34.0978C39.4438 34.2627 39.534 34.4606 39.6017 34.5266C40.369 35.3402 41.2491 36.2088 42.3435 37.2644C42.4338 37.3523 42.5917 37.4293 42.7384 37.4513C42.9302 37.4843 43.1333 37.3193 43.2236 37.1324C43.3251 36.9125 43.28 36.6377 43.1108 36.4617C42.7723 36.1209 42.4338 35.78 42.084 35.4392C41.644 35.0104 41.2152 34.5706 40.7752 34.1308C40.5608 33.9109 40.4254 33.603 40.4254 33.3281C40.4254 31.426 40.4254 29.5129 40.4254 27.6107C40.4254 27.4788 40.3916 27.2479 40.1208 27.1819C40.0644 27.1709 40.0192 27.1599 39.9628 27.1599L39.9854 27.1709ZM28.6798 35.2413H22.2146C21.1427 35.2413 20.4206 34.5926 20.4206 33.658C20.4206 32.7234 21.154 32.0637 22.2033 32.0527H26.4006C27.1791 32.0527 27.9577 32.0527 28.7475 32.0527C29.3455 32.0527 29.8871 32.3386 30.1917 32.7894C30.4851 33.2292 30.5302 33.7679 30.3158 34.2627C30.124 34.7025 29.684 35.2303 28.7023 35.2303L28.6798 35.2413ZM24.9338 34.1418H28.6798C29.0972 34.1418 29.1988 33.9988 29.2552 33.8449C29.3229 33.691 29.3116 33.5261 29.2326 33.4051C29.1311 33.2512 28.9506 33.1632 28.7249 33.1632C27.9464 33.1632 27.1791 33.1632 26.4006 33.1632H22.2033C21.8987 33.1632 21.5376 33.2512 21.5489 33.669C21.5489 33.9878 21.7745 34.1528 22.2259 34.1528H24.9451L24.9338 34.1418ZM21.2668 30.3155C20.1047 30.3155 18.9538 30.3155 17.7916 30.3155C17.4306 30.3155 17.0808 30.2385 16.7874 30.0956C16.212 29.8207 15.8735 29.15 15.9751 28.5013C16.0766 27.8416 16.5956 27.3139 17.2726 27.1819C17.4306 27.1489 17.5885 27.1379 17.7352 27.1379C21.9325 27.1379 26.1298 27.1379 30.3271 27.1379C30.8687 27.1379 31.3426 27.3139 31.6585 27.6437C31.9518 27.9406 32.1098 28.3584 32.0872 28.8202C32.0647 29.5349 31.5569 30.1286 30.8461 30.2715C30.6317 30.3155 30.4174 30.3265 30.203 30.3265H22.6433C22.1807 30.3265 21.7181 30.3265 21.2555 30.3265L21.2668 30.3155ZM25.5092 28.2264C22.9141 28.2264 20.319 28.2264 17.7352 28.2264C17.6562 28.2264 17.566 28.2264 17.487 28.2484C17.2839 28.2924 17.1259 28.4573 17.0921 28.6553C17.0695 28.8202 17.1598 29.0291 17.2952 29.0951C17.4306 29.161 17.6224 29.205 17.8029 29.205C19.4164 29.205 21.0412 29.205 22.6546 29.205H30.2143C30.3609 29.205 30.4963 29.205 30.643 29.172C30.8348 29.128 30.9702 28.9741 30.9815 28.7542C30.9815 28.5893 30.9477 28.4683 30.8574 28.3804C30.7558 28.2704 30.564 28.2155 30.3384 28.2155C28.7362 28.2155 27.134 28.2155 25.5205 28.2155L25.5092 28.2264Z" fill="#EE2340"/>
</g>
<defs>
<clipPath id="clip0_291_1696">
<rect width="39.9081" height="23.3425" fill="white" transform="translate(11.7891 22.2122)"/>
</clipPath>
</defs>
</svg>
