<svg width="65" height="65" viewBox="0 0 65 65" fill="none" xmlns="http://www.w3.org/2000/svg">
<path d="M32.274 63.1826C15.5204 63.1826 2 49.6622 2 32.9086C2 16.1549 15.5204 2.63452 32.274 2.63452C49.0276 2.63452 62.5481 16.1549 62.5481 32.9086C62.5481 49.5887 48.9542 63.1826 32.274 63.1826Z" fill="white"/>
<path d="M32.274 63.1826C15.5204 63.1826 2 49.6622 2 32.9085C2 16.1549 15.5204 2.63452 32.274 2.63452C49.0276 2.63452 62.5482 16.1549 62.5482 32.9085C62.5482 49.5887 48.9542 63.1826 32.274 63.1826Z" stroke="#E51E39" stroke-width="3.43118" stroke-miterlimit="10"/>
<g clip-path="url(#clip0_291_1736)">
<path d="M34.7688 47.0604H29.4716V44.723C28.4816 44.5185 27.5324 44.2068 26.624 43.7783L25.1339 45.6287L20.939 42.5122L22.4496 40.6229C21.8066 39.8827 21.2656 39.0841 20.8267 38.2173L18.4078 38.8309L17.0605 33.9126L19.5509 33.2893C19.5509 33.1627 19.5509 33.0361 19.5509 32.8998C19.5509 32.296 19.602 31.6727 19.704 31.0591L17.2545 30.2021L19.0814 25.4202L21.5718 26.3064C21.9086 25.8195 22.2761 25.3423 22.6945 24.8943L21.0921 22.8296L25.3278 19.7715L26.9608 21.8654C27.7671 21.5148 28.6143 21.2519 29.4716 21.0766V18.447H34.7688V21.0766C35.6976 21.2713 36.5957 21.5538 37.4429 21.9433L39.1065 19.8787L43.3014 22.9952L41.6684 25.0306C42.3012 25.7318 42.8421 26.5012 43.281 27.3193L45.8326 26.6765L47.1697 31.6045L44.6691 32.2375C44.6793 32.4615 44.6895 32.6855 44.6895 32.9193C44.6895 33.4354 44.6487 33.9613 44.5874 34.4775L46.9859 35.3248L45.159 40.1067L42.8217 39.2789C42.4849 39.8145 42.097 40.3209 41.6786 40.7884L43.1585 42.6973L38.9126 45.7553L37.4531 43.8757C36.5957 44.2653 35.6976 44.5574 34.7688 44.7425V47.0798V47.0604ZM30.4923 46.0865H33.7481V43.9147L34.1666 43.8465C35.2893 43.6517 36.3712 43.3011 37.3714 42.8044L37.7593 42.6096L39.1167 44.3529L41.7296 42.4733L40.3517 40.7105L40.6375 40.4183C41.2193 39.8145 41.7296 39.1425 42.1583 38.4218L42.3726 38.0615L44.5568 38.8309L45.6795 35.8799L43.4545 35.0911L43.5259 34.6918C43.628 34.0977 43.679 33.4841 43.679 32.89C43.679 32.5492 43.6586 32.218 43.628 31.8869L43.5872 31.4779L45.9245 30.8838L45.0977 27.8452L42.7196 28.4393L42.5359 28.0789C42.046 27.0953 41.3928 26.1798 40.6171 25.3618L40.3313 25.0598L41.8623 23.151L39.28 21.2324L37.7287 23.1607L37.351 22.9757C36.3406 22.479 35.2689 22.1284 34.1564 21.9433L33.7379 21.8752V19.4209H30.4821V21.8849L30.0636 21.9531C29.0021 22.1381 27.9815 22.4595 27.0119 22.9172L26.6342 23.1023L25.1135 21.1545L22.5006 23.0341L24.0112 24.9722L23.7152 25.2644C23.1436 25.8487 22.6333 26.4817 22.2148 27.1537L22.0005 27.5043L19.6836 26.6863L18.5507 29.6372L20.8369 30.4455L20.7553 30.8448C20.6226 31.5363 20.5512 32.2278 20.5512 32.9095C20.5512 33.153 20.5614 33.3965 20.5818 33.6302L20.6124 34.0295L18.3057 34.6139L19.1325 37.6524L21.3983 37.0778L21.5718 37.4577C22.0515 38.49 22.6945 39.4444 23.4804 40.2917L23.756 40.5936L22.3475 42.3467L24.9297 44.2653L26.3178 42.5414L26.6955 42.7362C27.7467 43.2719 28.8796 43.6517 30.0534 43.8465L30.4719 43.9147V46.0865H30.4923ZM32.1253 41.1488C27.3079 41.1488 23.3988 37.3797 23.3988 32.7537C23.3988 28.1276 27.3079 24.3586 32.1151 24.3586C36.9224 24.3586 40.8416 28.1276 40.8416 32.7537C40.8416 37.3797 36.9224 41.1488 32.1151 41.1488H32.1253ZM32.1253 25.3325C27.8794 25.3325 24.4194 28.6633 24.4194 32.7537C24.4194 36.8441 27.8794 40.1749 32.1253 40.1749C36.3712 40.1749 39.8312 36.8441 39.8312 32.7537C39.8312 28.6633 36.3712 25.3325 32.1253 25.3325Z" fill="#EE2340"/>
</g>
<defs>
<clipPath id="clip0_291_1736">
<rect width="30.1193" height="28.6133" fill="white" transform="translate(17.0605 18.447)"/>
</clipPath>
</defs>
</svg>
