<svg width="65" height="65" viewBox="0 0 65 65" fill="none" xmlns="http://www.w3.org/2000/svg">
<path d="M32.2741 62.5481C15.5205 62.5481 2 49.0276 2 32.274C2 15.5204 15.5205 2 32.2741 2C49.0277 2 62.5481 15.5204 62.5481 32.274C62.5481 48.9542 48.9542 62.5481 32.2741 62.5481Z" fill="white"/>
<path d="M32.2741 62.5481C15.5205 62.5481 2 49.0276 2 32.274C2 15.5204 15.5205 2 32.2741 2C49.0277 2 62.5481 15.5204 62.5481 32.274C62.5481 48.9542 48.9542 62.5481 32.2741 62.5481Z" stroke="#E51E39" stroke-width="3.43118" stroke-miterlimit="10"/>
<path d="M33.8024 18.9691C33.4592 18.2828 32.9446 17.9397 32.2583 17.9397C31.5721 17.9397 30.8858 18.2828 30.7143 18.9691L27.1115 26.3462L19.0481 27.5471C18.3619 27.7187 17.8472 28.0618 17.6757 28.748C17.5041 29.4343 17.6757 30.1205 18.1903 30.4636L24.0234 36.1251L22.6509 44.1885C22.4794 44.8747 22.8225 45.561 23.3372 45.9041C23.8518 46.4188 24.5381 46.4188 25.2243 46.0756L32.4299 42.3013L39.4639 46.0756C40.1501 46.4188 40.8364 46.4188 41.351 45.9041C41.8657 45.561 42.2088 44.8747 42.0373 44.1885L40.6648 36.1251L46.4979 30.4636C47.0125 29.9489 47.1841 29.2627 47.0125 28.748C46.841 28.0618 46.1547 27.7187 45.64 27.5471L37.7483 26.3462L33.8024 18.9691Z" fill="#E31738"/>
</svg>
