<svg width="65" height="65" viewBox="0 0 65 65" fill="none" xmlns="http://www.w3.org/2000/svg">
<path d="M32.2741 62.5481C15.5204 62.5481 2 49.0276 2 32.274C2 15.5204 15.5204 2 32.2741 2C49.0277 2 62.5481 15.5204 62.5481 32.274C62.6216 48.9542 49.0277 62.5481 32.2741 62.5481Z" fill="white"/>
<path d="M32.2741 62.5481C15.5204 62.5481 2 49.0276 2 32.274C2 15.5204 15.5204 2 32.2741 2C49.0277 2 62.5481 15.5204 62.5481 32.274C62.6216 48.9542 49.0277 62.5481 32.2741 62.5481Z" stroke="#E51E39" stroke-width="3.43118" stroke-miterlimit="10"/>
<path d="M24.3369 39.7404C23.8222 40.5982 23.4791 41.6275 23.4791 42.6569C22.9644 42.8284 22.2782 43 21.7635 43C18.8469 43 16.4451 40.5982 16.4451 37.6816V21.7265C15.4157 21.7265 14.7295 20.8687 14.7295 20.0109C14.7295 18.9815 15.5873 18.2953 16.4451 18.2953H20.0479H23.6506H27.2534C28.2828 18.2953 28.969 19.1531 28.969 20.0109C28.969 21.0402 28.1112 21.7265 27.2534 21.7265V35.4513L24.3369 39.7404ZM19.8763 21.5549V26.8733H23.4791V21.5549H19.8763ZM34.1158 17.9521H41.1498H42.8654C43.8948 17.9521 44.581 18.81 44.581 19.6678C44.581 20.6971 43.7232 21.3834 42.8654 21.3834V29.7898L49.3847 40.4266C49.7279 41.1128 50.071 41.6275 50.071 42.4853C50.071 44.5441 48.3554 46.2597 46.1251 46.2597H28.969C26.9103 46.2597 25.1947 44.5441 25.1947 42.4853C25.1947 41.7991 25.3663 41.1128 25.7094 40.4266L32.2287 29.7898V21.3834C31.1993 21.3834 30.5131 20.5256 30.5131 19.6678C30.5131 18.6384 31.3709 17.9521 32.2287 17.9521H34.1158ZM35.8314 21.5549V30.4761C35.8314 30.8192 35.6599 31.1623 35.4883 31.5054L32.7434 35.966H42.1792L39.6058 31.3339C39.4342 30.9908 39.4342 30.6476 39.4342 30.3045V21.3834H35.8314V21.5549Z" fill="#E31738"/>
</svg>
