<svg width="65" height="65" viewBox="0 0 65 65" fill="none" xmlns="http://www.w3.org/2000/svg">
<path d="M32.2741 62.5481C15.5205 62.5481 2 49.0276 2 32.274C2 15.5204 15.5205 2 32.2741 2C49.0277 2 62.5481 15.5204 62.5481 32.274C62.5481 48.9542 49.0277 62.5481 32.2741 62.5481Z" fill="white"/>
<path d="M32.2741 62.5481C15.5205 62.5481 2 49.0276 2 32.274C2 15.5204 15.5205 2 32.2741 2C49.0277 2 62.5482 15.5204 62.5482 32.274C62.5482 48.9542 49.0277 62.5481 32.2741 62.5481Z" stroke="#E51E39" stroke-width="3.43118" stroke-miterlimit="10"/>
<path d="M41.4006 34.1901L32.1364 25.0974C31.9648 24.9258 31.6217 24.9258 31.2786 25.0974L28.1905 27.4992C28.0189 27.6708 27.8474 28.0139 28.1905 28.1855L31.9648 31.7882C32.1364 31.9598 32.4795 31.9598 32.8226 31.7882C32.9942 31.6167 33.3373 31.6167 33.6804 31.7882L38.3126 36.2488C38.4841 36.4204 38.4841 36.7635 38.3126 36.9351L33.1657 41.0525C32.9942 41.2241 32.4795 41.2241 32.3079 41.0525L23.5583 32.8176C23.3868 32.646 23.0437 32.646 22.7005 32.8176L20.2987 34.7048C20.1271 34.8763 19.9556 35.2195 20.2987 35.391L31.9648 46.1993C31.9648 46.1993 32.3079 46.5425 32.9942 46.1993L43.9741 37.1066C44.1456 36.9351 44.1456 36.5919 43.9741 36.4204L41.4006 34.1901ZM44.3172 29.558L32.6511 18.0634C32.6511 18.0634 32.1364 17.7203 31.7932 18.0634L20.2987 26.9845C20.1271 27.1561 19.9556 27.4992 20.2987 27.6708L22.7005 30.0726L32.3079 39.1653C32.4795 39.3369 32.8226 39.3369 33.1657 39.1653L35.9107 36.9351L36.4254 36.5919C36.5969 36.4204 36.5969 36.0773 36.4254 35.9057L33.3373 32.9892C33.1657 32.8176 32.8226 32.8176 32.4795 32.9892C32.3079 33.1607 31.9648 33.1607 31.6217 32.9892L26.4749 27.8423C26.3033 27.6708 26.3033 27.3277 26.4749 27.1561L31.6217 23.2102C31.7933 23.0386 32.1364 23.0386 32.4795 23.2102L41.4006 31.9598C41.5722 32.1314 41.9153 32.1314 42.2584 31.9598L44.8319 29.9011C44.4887 30.0726 44.4887 29.7295 44.3172 29.558Z" fill="#E31738"/>
</svg>
