<svg width="65" height="65" viewBox="0 0 65 65" fill="none" xmlns="http://www.w3.org/2000/svg">
<path d="M32.274 63.1826C15.5204 63.1826 2 49.6622 2 32.9086C2 16.1549 15.5204 2.63452 32.274 2.63452C49.0276 2.63452 62.5481 16.1549 62.5481 32.9086C62.5481 49.5887 48.9542 63.1826 32.274 63.1826Z" fill="white"/>
<path d="M32.274 63.1826C15.5204 63.1826 2 49.6622 2 32.9085C2 16.1549 15.5204 2.63452 32.274 2.63452C49.0276 2.63452 62.5482 16.1549 62.5482 32.9085C62.5482 49.5887 48.9542 63.1826 32.274 63.1826Z" stroke="#E51E39" stroke-width="3.43118" stroke-miterlimit="10"/>
<g clip-path="url(#clip0_291_1727)">
<path d="M37.5496 49.3203C37.2969 49.3203 37.0772 49.2204 36.8905 49.0093C36.4071 48.4762 36.7586 47.9209 36.8685 47.7321C38.1867 45.6218 38.4504 43.5226 37.6704 41.3346C37.5825 41.1014 37.4837 40.9015 37.3848 40.7238C37.0333 41.5568 36.5609 42.312 35.9787 42.9784C35.4294 43.6115 34.6934 43.7448 34.0233 43.3338C33.3532 42.934 33.1006 42.2009 33.3423 41.4235L33.6279 40.5572C33.8915 39.7575 34.1661 38.9356 34.3639 38.1137C34.6824 36.8364 34.3309 35.8257 33.3203 35.026C33.2873 35.0038 33.2654 34.9816 33.2324 34.9594C33.2654 36.1922 32.8369 37.3584 31.9471 38.4358C31.5956 38.8578 31.2221 39.2688 30.8596 39.6797C30.4971 40.0796 30.1456 40.4905 29.7941 40.9015C28.6626 42.2454 28.1682 43.6892 28.2671 45.3108C28.3111 46.0883 28.5637 46.8546 29.058 47.721C29.113 47.8209 29.2887 48.1763 29.2118 48.554C29.1459 48.8316 28.9702 49.0538 28.7285 49.1648C28.4539 49.2981 28.1133 49.2759 27.8057 49.1093C26.839 48.5873 25.9383 47.9431 25.1473 47.1878C22.6427 44.8443 21.0169 42.0232 20.3139 38.8023C19.7756 36.3588 20.1271 33.8931 21.3574 31.4719C22.3791 29.4616 23.7522 27.6734 25.5648 25.9963L25.6746 25.9074L26.4436 25.3077L26.6303 26.2184C26.7402 27.1847 26.9489 27.9622 27.2894 28.673C27.5201 29.1506 27.7948 29.5949 28.1353 30.0169C27.5531 28.4175 27.3444 26.7738 27.4872 25.0522C27.6739 22.742 28.6955 20.6873 30.5301 18.9435C31.3649 18.1439 32.3316 17.4108 33.496 16.6889C33.551 16.6556 33.6059 16.6334 33.6718 16.6L34.6055 16.178L34.4188 17.6218C34.3639 17.955 34.309 18.2882 34.265 18.6103C34.0453 20.3208 34.4078 21.9201 35.3745 23.4751C36.0446 24.5524 36.8905 25.4854 37.6375 26.2628C38.0219 26.6627 38.4064 27.0514 38.7909 27.4402C39.6038 28.2732 40.4167 29.0951 41.1966 29.9503C42.8884 31.8162 43.9869 33.7821 44.5581 35.9701C45.4259 39.3354 44.7778 42.5008 42.6137 45.3886C41.3944 47.0212 39.8894 48.2874 38.1538 49.1426C37.945 49.2426 37.7583 49.2981 37.5825 49.2981L37.5496 49.3203ZM36.9674 38.769L37.5496 39.2244C38.0219 39.5909 38.4504 40.2462 38.703 40.9459C39.5599 43.3227 39.3292 45.6884 38.011 47.9653C39.439 47.1878 40.6803 46.1105 41.7129 44.7333C43.6903 42.0899 44.2725 39.3243 43.4706 36.2589C42.9543 34.2486 41.9327 32.4382 40.3618 30.7055C39.5928 29.8614 38.7909 29.0395 37.989 28.2176C37.6045 27.8178 37.209 27.4291 36.8355 27.0292C36.0556 26.2184 35.1548 25.2299 34.4298 24.0526C33.3423 22.2978 32.9138 20.4096 33.1555 18.4548C33.1665 18.366 33.1775 18.2771 33.1885 18.1883C32.4634 18.6881 31.8263 19.199 31.2661 19.7432C29.6183 21.3204 28.7395 23.0752 28.5637 25.1411C28.4099 27.0403 28.7285 28.8507 29.5304 30.5278C29.838 31.1942 29.5304 31.5718 29.3217 31.7384C29.1349 31.8828 28.6406 32.1494 28.0694 31.5941C27.3114 30.861 26.7182 30.0391 26.2898 29.1506C26.0261 28.6064 25.8394 28.0288 25.6966 27.3846C24.2575 28.8174 23.159 30.3168 22.3241 31.9717C21.2037 34.1819 20.8851 36.3366 21.3684 38.5468C22.0275 41.5457 23.5435 44.1779 25.8723 46.366C26.4875 46.9435 27.1686 47.4544 27.8936 47.8876C27.4432 47.0101 27.2016 46.1882 27.1576 45.3775C27.0368 43.4893 27.641 41.7345 28.9372 40.1795C29.2887 39.7575 29.6512 39.3465 30.0247 38.9356C30.3872 38.5357 30.7388 38.1248 31.0903 37.7138C31.8812 36.7587 32.2108 35.7702 32.1009 34.7039C32.079 34.5484 32.057 34.3818 32.035 34.2041L31.7933 32.5381L33.2324 33.5933C33.496 33.7821 33.7377 33.9598 33.9794 34.1486C35.3306 35.2148 35.8249 36.6809 35.4075 38.3802C35.1987 39.2355 34.9131 40.0907 34.6495 40.9015L34.3639 41.7567C34.2321 42.1787 34.4737 42.3231 34.5506 42.3675C34.7044 42.4564 34.8802 42.5119 35.1328 42.2232C35.6491 41.6345 36.0776 40.9459 36.3851 40.2017C36.4511 40.0462 36.517 39.8796 36.5719 39.7242L36.9454 38.7579L36.9674 38.769Z" fill="#EE2340"/>
</g>
<defs>
<clipPath id="clip0_291_1727">
<rect width="24.8484" height="33.1312" fill="white" transform="translate(20.0713 16.1885)"/>
</clipPath>
</defs>
</svg>
