<svg width="65" height="65" viewBox="0 0 65 65" fill="none" xmlns="http://www.w3.org/2000/svg">
<path d="M32.274 63.1826C15.5204 63.1826 2 49.6622 2 32.9086C2 16.1549 15.5204 2.63452 32.274 2.63452C49.0276 2.63452 62.5481 16.1549 62.5481 32.9086C62.5481 49.5887 48.9542 63.1826 32.274 63.1826Z" fill="white"/>
<path d="M32.274 63.1826C15.5204 63.1826 2 49.6622 2 32.9085C2 16.1549 15.5204 2.63452 32.274 2.63452C49.0276 2.63452 62.5482 16.1549 62.5482 32.9085C62.5482 49.5887 48.9542 63.1826 32.274 63.1826Z" stroke="#E51E39" stroke-width="3.43118" stroke-miterlimit="10"/>
<g clip-path="url(#clip0_291_1698)">
<path d="M27.6897 47.8138C24.9525 47.8138 22.5442 46.7549 20.5179 44.6587C18.7249 42.8085 17.8125 40.5411 17.8125 37.9208C17.8125 37.7069 17.8125 37.4823 17.8337 37.2577C17.908 36.0278 18.3111 34.8513 18.6506 33.9102C19.5842 31.2364 20.8149 28.5199 22.5124 25.3862C23.5839 23.3969 24.6979 21.4397 25.8119 19.4719C26.2893 18.6376 26.7561 17.8034 27.2335 16.9585C27.2759 16.8944 27.3184 16.8195 27.3608 16.7553L27.7321 16.1885L28.2414 16.6056C29.175 17.6109 35.1904 28.9691 35.9012 30.8728L36.0816 31.3434L35.636 31.5466C32.7503 32.8835 30.9892 35.0332 30.395 37.9422C30.2677 38.5839 30.2041 39.2042 30.2041 39.8139C30.2041 42.0063 31.0422 44.017 32.7503 45.9314L33.2807 46.5303L32.5275 46.7977C32.3153 46.8726 32.1137 46.9475 31.9122 47.0223C31.4772 47.1827 31.0316 47.3539 30.5648 47.4715C29.5781 47.7068 28.6339 47.8245 27.7215 47.8245L27.6897 47.8138ZM18.8734 37.9101C18.8734 40.2524 19.6797 42.263 21.2817 43.9101C23.7112 46.4234 26.7455 47.2683 30.2996 46.4127C30.6709 46.3271 31.0528 46.1881 31.4454 46.0384C29.907 44.1026 29.1325 42.0063 29.1325 39.7711C29.1325 39.0973 29.2068 38.4128 29.3447 37.7176C29.9707 34.6161 31.7848 32.2845 34.7236 30.7872C33.5778 28.1455 29.3235 20.2847 27.8807 17.9425C27.4987 18.6269 27.1168 19.3007 26.7242 19.9852C25.6103 21.9424 24.5069 23.8996 23.4354 25.8782C21.7697 28.9691 20.5603 31.6321 19.6479 34.2524C19.2554 35.3754 18.9477 36.3166 18.8946 37.3112C18.884 37.5144 18.8734 37.7069 18.8734 37.8994V37.9101ZM39.0946 47.8138C36.9515 47.8138 34.9252 46.9582 33.3762 45.3967C31.8485 43.8566 31.0104 41.8245 31.0104 39.6962V39.6748C31.021 35.1294 34.5857 31.568 39.1052 31.568C43.5505 31.568 47.1576 35.215 47.1576 39.6855C47.1576 44.156 43.5293 47.8138 39.084 47.8138H39.0946ZM39.0946 46.7443C42.967 46.7443 46.1073 43.5785 46.1073 39.6855C46.1073 35.7925 42.967 32.6375 39.1158 32.6375C35.1798 32.6375 32.0925 35.7283 32.0819 39.6748V39.6962C32.0819 41.5465 32.8139 43.3004 34.1401 44.6373C35.4769 45.9956 37.238 46.7443 39.1052 46.7443H39.0946ZM40.4632 44.8512H37.5244V41.1721H33.7794V38.2096H37.6199V34.5305H40.5587V38.2096H44.3249V41.1721H40.4738V44.8512H40.4632ZM38.5854 43.7817H39.4023V40.1026H43.2534V39.2791H39.4871V35.6H38.6702V39.2791H34.8297V40.1026H38.5748V43.7817H38.5854Z" fill="#EE2340"/>
</g>
<defs>
<clipPath id="clip0_291_1698">
<rect width="29.3663" height="31.6253" fill="white" transform="translate(17.8135 16.1885)"/>
</clipPath>
</defs>
</svg>
