<svg width="65" height="65" viewBox="0 0 65 65" fill="none" xmlns="http://www.w3.org/2000/svg">
<path d="M32.274 63.1824C15.5204 63.1824 2 49.6619 2 32.9083C2 16.1547 15.5204 2.63428 32.274 2.63428C49.0276 2.63428 62.5481 16.1547 62.5481 32.9083C62.5481 49.5884 48.9542 63.1824 32.274 63.1824Z" fill="white"/>
<path d="M32.274 63.1824C15.5204 63.1824 2 49.6619 2 32.9083C2 16.1547 15.5204 2.63428 32.274 2.63428C49.0276 2.63428 62.5482 16.1547 62.5482 32.9083C62.5482 49.5884 48.9542 63.1824 32.274 63.1824Z" stroke="#E51E39" stroke-width="3.43118" stroke-miterlimit="10"/>
<g clip-path="url(#clip0_291_1709)">
<path d="M36.614 47.0607H18.9054C17.8452 47.0607 17.0142 46.5204 16.6608 45.6136C16.3933 44.919 16.4697 44.1665 16.8709 43.5491C17.2721 42.922 17.9407 42.5458 18.6857 42.5169C18.7526 42.5169 18.829 42.5169 18.8958 42.5169H22.3344C27.9699 42.5169 33.5957 42.5169 39.2312 42.5169C39.3171 42.5169 39.4031 42.5169 39.4986 42.5362C39.4986 42.4204 39.5082 42.3046 39.5464 42.1792C39.7756 41.3785 40.1672 40.6743 40.5588 39.9893L40.7785 39.6034L41.3612 39.5166L41.6191 39.8253C41.7146 40.0472 41.8196 40.2691 41.9247 40.491C42.1635 41.0023 42.4023 41.5136 42.6124 42.0442C42.6697 42.1985 42.7079 42.3625 42.7079 42.5265C42.7652 42.5169 42.8512 42.5169 42.899 42.5072C43.367 42.5072 43.8255 42.5072 44.2839 42.5072C44.752 42.5072 45.22 42.5072 45.6785 42.5072C46.8056 42.5169 47.7798 43.3948 47.904 44.5042C48.0282 45.6522 47.3214 46.6844 46.2325 46.9642C45.9555 47.0317 45.6689 47.0414 45.4588 47.0414C42.5074 47.0414 39.5559 47.0414 36.6045 47.0414L36.614 47.0607ZM18.9723 43.4816H18.7335C18.2941 43.5009 17.912 43.7131 17.6732 44.0797C17.444 44.4366 17.3963 44.8611 17.5491 45.2663C17.7592 45.8065 18.2368 46.0959 18.9054 46.0959H34.4267C38.1041 46.0959 41.791 46.0959 45.4683 46.0959C45.6307 46.0959 45.8313 46.0959 46.0128 46.0477C46.6432 45.8837 47.0444 45.2952 46.9679 44.6199C46.9011 43.9929 46.3375 43.5009 45.688 43.4912C45.2296 43.4912 44.7615 43.4912 44.3031 43.4912C43.8541 43.4912 43.4052 43.4912 42.9658 43.4912C42.5838 44.2341 41.9438 44.6296 41.1415 44.6392C40.3391 44.6392 39.6323 44.2341 39.2694 43.4816C33.6244 43.5009 27.989 43.4912 22.3535 43.4912H18.9723V43.4816ZM41.1128 40.983C40.8549 41.4557 40.6257 41.9284 40.4824 42.4397C40.4633 42.4976 40.4633 42.6037 40.492 42.7195C40.5397 42.8931 40.6448 43.0282 40.7881 43.115C40.9409 43.2018 41.1128 43.2211 41.2848 43.1729C41.4758 43.115 41.6286 42.9896 41.705 42.8256C41.7528 42.7291 41.791 42.5747 41.7241 42.3915C41.5426 41.9091 41.323 41.446 41.1033 40.983H41.1128ZM41.1128 38.3879C40.7976 38.3879 40.492 38.3011 40.2245 38.1178C39.661 37.7415 39.384 37.0566 39.5464 36.4488C39.7565 35.6674 40.129 35.0018 40.5206 34.2975L41.1128 33.2363L41.6668 34.23C42.0775 34.9535 42.4691 35.6481 42.6793 36.4488C42.8417 37.0373 42.5742 37.7126 42.0298 38.0888C41.7623 38.2818 41.4376 38.3686 41.1128 38.3686V38.3879ZM41.1128 35.214C40.8454 35.706 40.6066 36.1884 40.4729 36.7093C40.4156 36.9119 40.5397 37.182 40.7499 37.3171C40.9696 37.4618 41.2752 37.4618 41.4853 37.3171C41.6955 37.1724 41.8101 36.9119 41.7623 36.7189C41.6191 36.2077 41.3898 35.7156 41.1128 35.2236V35.214ZM20.5483 37.838C19.9752 37.838 19.4116 37.7222 18.8767 37.4811C17.6255 36.9312 16.7372 35.8314 16.422 34.4712C16.0208 32.7057 16.8327 30.8246 18.3992 29.8888C19.66 29.1363 20.9399 28.3935 22.2102 27.6507L35.7066 19.7304C35.6875 19.4699 35.7544 19.2094 35.8977 18.9875C36.1365 18.6306 36.5281 18.428 36.9579 18.4473C37.4641 18.4666 37.6934 18.8621 37.7793 19.0068L41.6286 25.7019C41.9534 26.2615 41.8292 26.7535 41.2752 27.0815L41.1128 27.1779C40.6257 27.4577 40.2723 27.4674 39.9284 27.1587L33.7103 30.7956C30.0425 32.9469 26.3747 35.0982 22.7069 37.2399C22.0192 37.6354 21.2742 37.838 20.5292 37.838H20.5483ZM18.5806 33.5258C18.5806 33.5258 18.5806 33.5933 18.5806 33.6319C18.5998 34.1914 18.829 34.6931 19.2111 35.0403C19.6122 35.4069 20.1376 35.5806 20.7298 35.5516C20.8826 35.542 21.0354 35.5131 21.1596 35.4745L20.9781 35.1561C20.8826 34.9921 20.8444 34.8378 20.8444 34.7027C20.8444 34.4326 20.9972 34.23 21.1787 34.1142C21.3984 33.9792 21.5989 33.9888 21.7327 34.0178C21.8664 34.0563 22.067 34.1528 22.2198 34.4229C22.2867 34.5387 22.3535 34.6545 22.4204 34.7702L22.9171 34.4808L22.3153 33.4293C22.2389 33.2942 22.2007 33.1592 22.2007 33.0241C22.2007 32.9373 22.2102 32.8601 22.2485 32.7829C22.3249 32.59 22.4681 32.4549 22.6783 32.3874C22.9553 32.3006 23.2323 32.426 23.4137 32.561C23.5666 32.6672 23.6334 32.8215 23.6812 32.9083L24.1683 33.7573L24.665 33.4582L24.4644 33.1109C24.3689 32.9469 24.3307 32.8022 24.3307 32.6575C24.3307 32.397 24.474 32.1945 24.665 32.069C24.8847 31.934 25.0853 31.9436 25.219 31.9726C25.3623 32.0112 25.5533 32.1076 25.7061 32.3874C25.773 32.5032 25.8303 32.6093 25.8972 32.725L26.3938 32.4356L26.2506 32.1945C26.0882 31.9147 25.9258 31.6446 25.7825 31.3552C25.7348 31.2587 25.7157 31.1719 25.7157 31.085C25.7157 30.95 25.7539 30.8342 25.7825 30.757L25.8972 30.265L26.3938 30.3422C26.5658 30.3808 26.6899 30.4097 26.8046 30.4773C26.9956 30.5737 27.0625 30.7377 27.1007 30.8246L27.6164 31.7217L28.1131 31.4323L27.9221 31.0947C27.8266 30.921 27.7884 30.7667 27.7884 30.6316C27.7884 30.3519 27.9507 30.1493 28.1418 30.0335C28.4283 29.8695 28.8677 29.8502 29.1638 30.3711L29.3548 30.6991L29.8515 30.4097L29.2975 29.474C29.2402 29.3871 29.1351 29.1942 29.1351 28.9723C29.1351 28.9241 29.1351 28.8662 29.1542 28.8083C29.1829 28.6829 29.2689 28.5093 29.479 28.3838C29.7082 28.2488 29.9088 28.2584 30.033 28.297C30.3386 28.3838 30.4819 28.6636 30.5392 28.7697C30.5774 28.8373 30.6156 28.9048 30.6538 28.982L31.0741 29.7055L31.5708 29.4161C31.5039 29.3003 31.4466 29.1942 31.3798 29.0881C31.3416 29.0205 31.2365 28.8469 31.2365 28.625C31.2365 28.5671 31.2365 28.5093 31.2651 28.4417C31.3034 28.3163 31.3893 28.133 31.6186 28.0172C31.9051 27.8629 32.3445 27.8629 32.631 28.3742C32.6883 28.4803 32.7552 28.5864 32.8125 28.6925L33.3092 28.4031L32.8985 27.6989C32.8221 27.5831 32.7265 27.4384 32.6788 27.2551C32.6597 27.1876 32.6597 27.1297 32.6597 27.0718C32.6597 26.9271 32.6979 26.8114 32.7265 26.7245L32.8507 26.2036L33.3665 26.3097C33.5384 26.3579 33.6721 26.3965 33.8059 26.493C33.9587 26.5991 34.0256 26.7535 34.0638 26.8403L34.5509 27.6796L35.0476 27.3805L34.8661 27.0622C34.761 26.8885 34.7228 26.7342 34.7228 26.5895C34.7228 26.4737 34.7515 26.3676 34.7992 26.2711L33.9205 26.1457C32.8221 25.9914 31.7332 25.837 30.6347 25.673C30.2813 25.6151 30.0425 25.6634 29.7846 25.8177C28.9346 26.3483 28.0749 26.8499 27.2057 27.3516L19.6409 31.7893C18.9245 32.2041 18.5806 32.7829 18.5806 33.5354V33.5258ZM36.1651 26.4544L36.2702 26.6377L36.4994 26.5027L36.1651 26.4544ZM40.2341 25.9817L40.4251 26.2518C40.4729 26.3194 40.5015 26.3579 40.5302 26.3869C40.5588 26.3772 40.597 26.3579 40.6448 26.329L40.7881 26.2422L40.8358 26.2132C40.8358 26.2132 40.8167 26.1843 40.8072 26.165L36.9579 19.4988C36.9101 19.4217 36.891 19.4024 36.891 19.4024C36.786 19.412 36.7191 19.4988 36.7 19.5374C36.6713 19.576 36.6331 19.6628 36.6904 19.7786L36.8242 20.0777L36.8719 20.0487L40.2914 25.9817L40.2532 26.0106L40.2341 25.9817ZM30.7685 24.7083C31.8573 24.8723 32.9462 25.0266 34.0351 25.181L38.6103 25.837L38.9733 25.6248L36.509 21.3414L30.7685 24.7083ZM41.1128 32.6189C40.7881 32.6189 40.4633 32.5225 40.1863 32.3295C39.6037 31.9147 39.3458 31.1815 39.5846 30.5834C39.8043 30.0335 40.0526 29.4933 40.2914 28.953L40.7403 27.9594L41.4376 28.0751L41.6668 28.4803C42.0489 29.1653 42.45 29.8598 42.6793 30.6702C42.8512 31.278 42.5647 31.9919 42.0011 32.3681C41.7337 32.5417 41.428 32.6286 41.1224 32.6286L41.1128 32.6189ZM41.1128 29.4547C40.8836 29.9467 40.6639 30.4387 40.4633 30.9403C40.3965 31.114 40.5111 31.3841 40.7308 31.5384C40.9504 31.6928 41.2465 31.6928 41.4662 31.5481C41.6764 31.413 41.8005 31.1236 41.7432 30.921C41.6 30.4097 41.3707 29.9274 41.1033 29.445L41.1128 29.4547Z" fill="#EE2340"/>
</g>
<defs>
<clipPath id="clip0_291_1709">
<rect width="31.6253" height="28.6133" fill="white" transform="translate(16.3076 18.4473)"/>
</clipPath>
</defs>
</svg>
