<svg width="65" height="65" viewBox="0 0 65 65" fill="none" xmlns="http://www.w3.org/2000/svg">
<path d="M32.274 63.1824C15.5204 63.1824 2 49.6619 2 32.9083C2 16.1547 15.5204 2.63428 32.274 2.63428C49.0276 2.63428 62.5481 16.1547 62.5481 32.9083C62.5481 49.5884 48.9542 63.1824 32.274 63.1824Z" fill="white"/>
<path d="M32.274 63.1824C15.5204 63.1824 2 49.6619 2 32.9083C2 16.1547 15.5204 2.63428 32.274 2.63428C49.0276 2.63428 62.5482 16.1547 62.5482 32.9083C62.5482 49.5884 48.9542 63.1824 32.274 63.1824Z" stroke="#E51E39" stroke-width="3.43118" stroke-miterlimit="10"/>
<g clip-path="url(#clip0_291_1685)">
<path d="M31.4728 47.0606H23.2782V45.6425C23.2782 45.0251 23.2782 44.4173 23.2782 43.7999C23.2782 43.742 23.2782 43.742 23.2386 43.7034L21.3605 41.8801C20.372 40.9154 19.3934 39.9603 18.395 39.0053C17.367 38.002 16.9321 36.8057 17.0902 35.3201C17.1594 34.6641 17.2088 33.9984 17.2583 33.3328L17.4164 31.3165C17.4856 30.429 17.5548 29.5511 17.6339 28.6636C17.7327 27.641 18.6916 26.8788 19.8086 26.9271C20.8465 26.9753 21.7065 27.8725 21.6768 28.8758C21.6571 29.5704 21.6076 30.2746 21.5582 30.9692L21.4396 32.7925C21.4 33.3906 21.3605 33.9984 21.321 34.5965C21.3012 34.9245 21.4198 35.2043 21.6669 35.4551C21.7065 35.4937 21.7559 35.542 21.7954 35.5805C21.4099 35.0789 21.2814 34.4518 21.4594 33.8441C21.6571 33.1784 22.1908 32.6768 22.9026 32.5128C23.5846 32.3488 24.2172 32.5128 24.6818 32.9565L25.8186 34.0563C27.074 35.2622 28.359 36.5163 29.5749 37.7994C30.7808 39.0728 31.4036 40.6935 31.4332 42.6229L31.4728 47.051V47.0606ZM24.2667 46.0959H30.4843L30.4447 42.6422C30.425 40.9636 29.8813 39.5552 28.8533 38.4554C27.6473 37.182 26.3623 35.9471 25.1267 34.7412L23.9899 33.6415C23.7724 33.4292 23.4858 33.3714 23.1398 33.4485C22.7839 33.5354 22.517 33.7669 22.4182 34.1045C22.3193 34.4518 22.4182 34.8281 22.695 35.0982C23.1497 35.5516 23.6044 35.9954 24.069 36.4488L24.7708 37.1337C25.1959 37.5486 25.2255 38.1177 24.84 38.5133C24.6621 38.6966 24.4149 38.8027 24.1579 38.8123C23.8614 38.8123 23.6044 38.6966 23.3869 38.4843C22.5763 37.7029 21.7757 36.9118 20.975 36.1304C20.5203 35.6867 20.3028 35.1368 20.3424 34.5387C20.372 33.9309 20.4214 33.3328 20.461 32.725L20.5796 30.9017C20.629 30.2167 20.6784 29.5318 20.6982 28.8469C20.7081 28.3645 20.2732 27.9111 19.769 27.8821C19.1759 27.8532 18.6718 28.2198 18.6323 28.7407C18.5532 29.6186 18.484 30.4965 18.4148 31.3744L18.2566 33.3906C18.2072 34.0659 18.1578 34.7316 18.0886 35.4069C17.97 36.5935 18.2863 37.5196 19.1067 38.301C20.1051 39.2561 21.0837 40.2208 22.0722 41.1855L23.9405 43.0088C24.1678 43.2307 24.2766 43.4912 24.2667 43.7999C24.2667 44.4077 24.2667 45.0251 24.2667 45.6328V46.0863V46.0959ZM40.9722 47.0606H32.7776V45.1119C32.7776 44.1954 32.7875 43.2789 32.827 42.3625C32.9061 40.4523 33.6573 38.7737 35.0511 37.3846C36.2175 36.2269 37.3938 35.0789 38.5701 33.9309L39.4697 33.053C40.2605 32.2812 41.4862 32.2716 42.277 33.0241C43.0282 33.7379 43.0579 34.9245 42.3561 35.6963C42.8108 35.2718 42.9788 34.7798 42.9195 34.037C42.8305 33.0434 42.7613 32.0401 42.702 31.0368L42.6032 29.5607C42.5834 29.3389 42.5735 29.117 42.5636 28.8951C42.5636 27.8339 43.4236 26.9464 44.4912 26.9271C45.6181 26.9271 46.5374 27.6796 46.6164 28.789C46.6856 29.744 46.7647 30.6895 46.8438 31.6445L47.0217 33.8537C47.0712 34.5194 47.1305 35.185 47.1601 35.8507C47.2194 36.989 46.8141 38.002 45.9739 38.8509C45.7367 39.0921 45.4896 39.3236 45.2523 39.5552L44.0859 40.6839C43.048 41.6968 42.0101 42.7001 40.9722 43.7131C40.9524 44.3884 40.9524 45.0058 40.9524 45.6328V47.0606H40.9722ZM33.7661 46.0959H39.9837V45.6328C39.9837 45.0154 39.9837 44.398 39.9837 43.7806C39.9837 43.4912 40.0825 43.2404 40.3 43.0378C41.3379 42.0345 42.3758 41.0215 43.4137 40.0086L44.5802 38.8702C44.8174 38.6387 45.0546 38.4072 45.282 38.1756C45.9344 37.51 46.2309 36.7671 46.1914 35.8893C46.1617 35.2332 46.1024 34.5772 46.053 33.9212L45.8751 31.7121C45.796 30.757 45.7169 29.8019 45.6477 28.8469C45.6082 28.2584 45.1436 27.8436 44.5307 27.8821C44.0068 27.8918 43.562 28.3549 43.562 28.8854C43.562 29.0784 43.5818 29.281 43.5917 29.4836L43.6905 30.9692C43.7498 31.9629 43.819 32.9565 43.908 33.9502C44.0068 35.021 43.7103 35.8121 42.9788 36.4488C42.4944 36.8733 42.0299 37.3363 41.5751 37.7897C41.3676 38.002 41.16 38.2142 40.9425 38.4168C40.8437 38.5133 40.7547 38.6001 40.646 38.658C40.3 38.8606 39.8947 38.8509 39.5784 38.6387C39.2225 38.3975 39.0841 38.0116 39.1929 37.6257C39.2423 37.4521 39.351 37.2784 39.5191 37.1241L40.3692 36.2944C40.7844 35.8989 41.1896 35.4937 41.5949 35.0885C41.9903 34.693 41.9903 34.0756 41.5949 33.6994C41.1896 33.3135 40.5867 33.3328 40.1814 33.7283L39.2818 34.6062C38.1055 35.7542 36.9292 36.8926 35.7727 38.0502C34.5569 39.2657 33.8946 40.7321 33.8254 42.3914C33.7858 43.2886 33.7858 44.1954 33.776 45.1022V46.0863L33.7661 46.0959ZM32.1351 37.9923H32.0856C31.2256 37.973 30.5337 37.2398 30.5337 36.3716V29.8695C29.9505 31.1043 29.565 32.4066 29.3772 33.7572L29.3376 33.9019L29.1597 34.394L28.6556 34.2203C27.9636 33.9309 27.3409 33.545 26.817 33.0916C25.3145 31.7989 24.751 30.1106 25.1662 28.0751C25.5319 26.2711 26.4611 24.7372 27.2321 23.6085C28.2701 22.0842 29.5749 20.5503 31.3344 18.7946C31.5518 18.5727 31.8385 18.4473 32.1153 18.4473C32.3822 18.4473 32.6491 18.563 32.8468 18.7656C34.4778 20.4056 36.3361 22.4026 37.7497 24.8337C38.4021 25.9527 38.8173 27.0043 39.0347 28.0558C39.5092 30.3518 38.669 32.3295 36.6722 33.6125C35.8122 34.1624 34.8435 34.5676 33.7068 34.8281C33.7068 35.3683 33.7068 35.8893 33.7068 36.4198C33.7068 36.8733 33.5189 37.2784 33.2125 37.5775C32.9258 37.8476 32.5403 37.9923 32.1252 37.9923H32.1351ZM31.0971 27.4577L31.4036 28.0847C31.4629 28.2391 31.5222 28.3645 31.5222 28.5285C31.5222 29.2134 31.5222 29.908 31.5222 30.593V36.3813C31.5222 36.7286 31.799 37.0373 32.1153 37.0373C32.2833 37.0566 32.4217 36.989 32.5305 36.8926C32.6491 36.7768 32.7183 36.6128 32.7183 36.4198C32.7282 35.841 32.7183 35.2525 32.7183 34.6737C32.7183 34.2782 32.916 34.0274 33.3114 33.9405C34.3987 33.709 35.318 33.3424 36.1187 32.8215C37.7892 31.7506 38.4515 30.1685 38.0561 28.2584C37.8584 27.3033 37.4729 26.3483 36.8798 25.316C35.5256 22.9814 33.7166 21.0327 32.1252 19.4409L31.6705 19.1322L32.0263 19.4699C30.3063 21.187 29.0411 22.6727 28.0427 24.1487C27.3211 25.2099 26.4512 26.6377 26.125 28.268C25.7889 29.9659 26.2239 31.3069 27.4595 32.3777C27.7659 32.6382 28.102 32.8697 28.4678 33.0723C28.7643 31.3744 29.3772 29.7247 30.2767 28.2101C30.3558 28.0847 30.4447 27.9979 30.5238 27.94L31.0873 27.4673L31.0971 27.4577Z" fill="#EE2340"/>
</g>
<defs>
<clipPath id="clip0_291_1685">
<rect width="30.1193" height="28.6133" fill="white" transform="translate(17.0605 18.4473)"/>
</clipPath>
</defs>
</svg>
