<svg width="65" height="65" viewBox="0 0 65 65" fill="none" xmlns="http://www.w3.org/2000/svg">
<path d="M32.2741 62.5481C15.5205 62.5481 2 49.0276 2 32.274C2 15.5204 15.5205 2 32.2741 2C49.0277 2 62.5481 15.5204 62.5481 32.274C62.5481 48.9542 48.9542 62.5481 32.2741 62.5481Z" fill="white"/>
<path d="M32.2741 62.5481C15.5205 62.5481 2 49.0276 2 32.274C2 15.5204 15.5205 2 32.2741 2C49.0277 2 62.5481 15.5204 62.5481 32.274C62.5481 48.9542 48.9542 62.5481 32.2741 62.5481Z" stroke="#E51E39" stroke-width="3.43118" stroke-miterlimit="10"/>
<path d="M31.2768 16.0176C32.3061 16.0176 32.9924 16.8754 32.9924 17.7332L32.9924 18.2479C32.9924 21.336 31.4483 24.0809 28.8749 25.625L31.963 30.0855L36.7667 30.0855C37.6245 30.0855 38.3108 30.6002 38.8255 31.1149L41.2273 34.203C41.9135 35.0608 41.742 36.0902 40.8842 36.7764C40.0264 37.4627 38.997 37.2911 38.3108 36.4333L36.252 33.5168L30.9337 33.5168L30.7621 33.5168L35.9089 41.4086C36.4236 42.2664 36.252 43.2957 35.3942 43.8104C34.5364 44.3251 33.5071 44.1535 32.9924 43.2957L24.0712 29.5709C23.8997 30.0856 23.8997 30.6002 23.8997 31.1149L23.8997 35.2324C23.8997 36.2617 23.0419 36.948 22.1841 36.948C21.1547 36.948 20.4685 36.0902 20.4685 35.2324L20.4685 31.1149C20.4685 27.5121 22.6987 24.2525 25.9584 22.88C28.0171 22.0222 29.2181 20.135 29.2181 17.9047L29.2181 17.3901C29.3896 16.8754 30.2474 16.0176 31.2768 16.0176ZM21.4978 17.9047C22.5272 17.9047 23.2134 18.4194 23.7281 19.2772C24.2428 20.135 24.2428 21.1644 23.7281 22.0222C23.2134 22.88 22.3556 23.3947 21.4978 23.3947C20.4685 23.3947 19.6107 22.88 19.096 22.0222C18.5813 21.1644 18.5813 20.135 19.096 19.2772C19.6107 18.4194 20.4685 17.9047 21.4978 17.9047Z" fill="#E31738"/>
<path d="M45.707 47.6543L17.8162 47.5891L45.707 47.6543Z" fill="#E31738"/>
<path d="M45.707 47.6543L17.8162 47.5891" stroke="#E31738" stroke-width="11.6138" stroke-miterlimit="17.4249" stroke-linecap="round"/>
<path d="M44.5512 35.609C45.264 38.6966 42.6856 41.6149 39.1569 42.4296" stroke="#E31738" stroke-width="6.96824" stroke-miterlimit="17.4249" stroke-linecap="round" stroke-linejoin="round"/>
<path d="M47.4365 37.0337C47.3349 39.6124 46.0798 42.2251 43.1958 43.8202" stroke="#E31738" stroke-width="6.96824" stroke-miterlimit="17.4249" stroke-linecap="round" stroke-linejoin="round"/>
</svg>
