<svg width="65" height="65" viewBox="0 0 65 65" fill="none" xmlns="http://www.w3.org/2000/svg">
<path d="M32.2741 62.5481C15.5205 62.5481 2 49.0276 2 32.274C2 15.5204 15.5205 2 32.2741 2C49.0277 2 62.5481 15.5204 62.5481 32.274C62.5481 48.9542 49.0277 62.5481 32.2741 62.5481Z" fill="white"/>
<path d="M32.2741 62.5481C15.5205 62.5481 2 49.0276 2 32.274C2 15.5204 15.5205 2 32.2741 2C49.0277 2 62.5482 15.5204 62.5482 32.274C62.5482 48.9542 49.0277 62.5481 32.2741 62.5481Z" stroke="#E51E39" stroke-width="3.43118" stroke-miterlimit="10"/>
<path d="M13.3145 28.8586V24.0549H24.4659V36.5789H18.2897V28.8586H13.3145Z" fill="#E31738"/>
<path d="M43.3373 30.4025C44.3666 30.4025 45.396 30.4025 46.4254 30.5741C47.4547 30.7457 48.3125 30.9172 48.9988 31.2603C49.685 31.6035 50.3712 32.1181 50.7144 32.8044C51.229 33.4906 51.4006 34.1769 51.4006 35.0347C51.4006 36.2356 51.0575 37.4365 50.1997 38.1228C49.3419 38.9806 48.141 39.6668 46.4254 40.0099C44.7097 40.3531 42.651 40.6962 40.2492 40.6962C38.7051 40.6962 37.1611 40.5246 35.617 40.353C34.2445 40.1815 32.8721 39.6668 31.6711 39.3237C30.6418 38.809 29.6124 38.2943 29.0977 37.6081C28.4115 36.9218 28.0684 36.064 28.0684 35.2062H33.7299C33.7299 35.3778 34.073 35.7209 34.7592 35.8925C35.2739 36.064 36.1317 36.2356 36.9895 36.4072C37.8473 36.4072 38.8767 36.5787 39.906 36.5787C40.5923 36.5787 41.2785 36.5787 41.7932 36.5787C42.4795 36.5787 42.9941 36.5787 43.5088 36.4072C44.0235 36.4072 44.5382 36.2356 44.8813 36.064C45.2244 35.8925 45.396 35.5494 45.396 35.2062C45.396 34.8631 45.2244 34.52 44.8813 34.3484C44.5382 34.1769 44.1951 34.0053 43.5088 33.8337C42.9941 33.8337 42.3079 33.6622 41.7932 33.6622C41.2785 33.6622 40.4207 33.6622 39.906 33.6622C39.2198 33.6622 38.362 33.6622 37.5042 33.8337C36.6464 33.8337 35.9602 34.0053 35.2739 34.0053C34.5877 34.0053 34.073 34.1769 33.7299 34.1769L28.583 33.3191L29.784 23.7117H49.1703V28.5154H35.2739L34.5877 32.9759L33.7299 32.8044C34.2445 32.4613 34.9308 31.9466 35.7886 31.6035C36.818 31.2603 37.8473 30.9172 39.0482 30.5741C40.5923 30.5741 41.9648 30.4025 43.3373 30.4025Z" fill="#E31738"/>
</svg>
