<svg width="65" height="65" viewBox="0 0 65 65" fill="none" xmlns="http://www.w3.org/2000/svg">
<path d="M32.2741 62.5481C15.5205 62.5481 2 49.0277 2 32.2741C2 15.5205 15.5205 2 32.2741 2C49.0277 2 62.5481 15.5205 62.5481 32.2741C62.5481 49.0277 49.0277 62.5481 32.2741 62.5481Z" fill="white"/>
<path d="M32.2741 62.5482C15.5205 62.5482 2 49.0277 2 32.2741C2 15.5205 15.5205 2 32.2741 2C49.0277 2 62.5481 15.5205 62.5481 32.2741C62.5481 49.0277 49.0277 62.5482 32.2741 62.5482Z" stroke="#E51E39" stroke-width="3.43118" stroke-miterlimit="10"/>
<path d="M30.5255 21.8614C31.3833 24.2632 30.5255 26.6651 28.6383 27.1798C26.9227 27.866 24.6924 26.322 24.0062 23.9201C23.1484 21.5183 24.0062 19.1164 25.8933 18.6017C27.6089 17.9155 29.8392 19.4595 30.5255 21.8614ZM23.4915 27.6945C24.5208 29.4101 24.3493 31.6404 22.9768 32.3266C21.6043 33.1844 19.7172 32.3266 18.5162 30.4394C17.4869 28.5523 17.6584 26.4935 19.0309 25.8073C20.575 25.121 22.4621 25.8073 23.4915 27.6945ZM21.7759 39.0175C24.6924 31.1257 29.8392 29.0669 32.2411 29.0669C34.4714 29.0669 39.6182 31.1257 42.5347 39.0175C42.7063 39.5321 42.8778 40.0468 42.8778 40.7331V40.9046C42.8778 42.2771 41.6769 43.478 40.3044 43.478C39.6182 43.478 39.1035 43.478 38.4173 43.3065L33.442 41.7624C32.5842 41.5909 31.7264 41.5909 30.8686 41.7624L26.0649 42.9634C25.3787 43.1349 24.864 43.1349 24.1777 43.1349C22.8052 43.1349 21.6043 42.1056 21.6043 40.5615V40.3899C21.6043 40.0468 21.6043 39.3606 21.7759 39.0175ZM41.3338 32.3266C39.9613 31.4688 39.7897 29.4101 40.8191 27.6945C41.8485 25.9789 43.7356 25.121 45.2797 25.8073C46.6522 26.6651 46.8237 28.7238 45.7944 30.4394C44.765 32.3266 42.7063 33.1844 41.3338 32.3266ZM35.1576 27.1798C33.2704 26.6651 32.5842 24.2632 33.2704 21.8614C34.1282 19.4595 36.187 18.0871 37.9026 18.6017C39.7897 19.1164 40.476 21.5183 39.7897 23.9201C39.1035 26.322 37.0448 27.6945 35.1576 27.1798Z" fill="#E31738"/>
</svg>
