<svg width="439" height="651" viewBox="0 0 439 651" fill="none" xmlns="http://www.w3.org/2000/svg">
<g clip-path="url(#clip0_159_4386)">
<path d="M44.2701 42.2787V20.4209H438.924V42.2787M44.2701 158.965V137.303H438.924V158.965M38.078 60.9751H20.4883V48.3293H38.078M38.078 650.924H20.4883V166.362H38.078M438.924 60.9751H44.2701V48.3293H438.924V60.9751ZM438.924 650.924H44.2701V166.362H438.924V650.924Z" stroke="white" stroke-width="0.1" stroke-miterlimit="10"/>
<path d="M224.523 120.15V119.091H227.225V125.127H226.041V120.135H224.523V120.15Z" fill="#B5B5B5"/>
<path d="M232.461 121.92C232.841 121.92 233.175 121.98 233.478 122.086C233.782 122.192 234.055 122.374 234.282 122.586C234.51 122.812 234.692 123.085 234.814 123.402C234.95 123.72 235.011 124.083 235.011 124.491C235.011 125.036 234.89 125.49 234.632 125.883C234.374 126.276 234.04 126.564 233.615 126.776C233.19 126.987 232.704 127.093 232.173 127.093C231.778 127.093 231.399 127.033 231.05 126.927C230.701 126.821 230.382 126.655 230.109 126.443C229.836 126.231 229.623 125.974 229.456 125.686C229.289 125.399 229.198 125.051 229.168 124.673H230.321C230.352 124.96 230.443 125.202 230.61 125.414C230.762 125.611 230.974 125.762 231.247 125.868C231.505 125.974 231.809 126.019 232.158 126.019C232.37 126.019 232.583 125.989 232.795 125.928C232.992 125.868 233.175 125.762 233.342 125.641C233.493 125.52 233.63 125.354 233.721 125.157C233.812 124.96 233.858 124.733 233.858 124.476C233.858 124.219 233.812 123.992 233.736 123.796C233.66 123.599 233.539 123.448 233.387 123.312C233.235 123.191 233.068 123.085 232.871 123.009C232.674 122.933 232.461 122.903 232.234 122.903C232.006 122.903 231.794 122.933 231.581 122.979C231.369 123.024 231.156 123.13 230.974 123.251C230.792 123.372 230.625 123.569 230.504 123.811L229.441 123.599L229.729 119.046H234.343V120.105H230.837L230.625 123.357L230.504 123.266C230.595 122.949 230.746 122.676 230.959 122.48C231.156 122.283 231.399 122.132 231.657 122.026C231.93 121.92 232.203 121.875 232.492 121.875L232.461 121.92Z" fill="#B5B5B5"/>
<path d="M236.423 126.881L236.18 126.564C236.301 126.352 236.408 126.14 236.514 125.928C236.62 125.717 236.681 125.49 236.681 125.278L236.059 125.142V123.901H237.546V124.794C237.546 125.308 237.44 125.732 237.212 126.064C236.984 126.397 236.726 126.67 236.408 126.896L236.423 126.881Z" fill="#B5B5B5"/>
<path d="M238.592 120.15V119.091H243.979V120.15L240.58 126.957H239.26L243.039 119.681L243.312 120.15H238.592Z" fill="#B5B5B5"/>
<path d="M249.185 116.595V117.836H247.729V116.595H249.185ZM247.88 119.091H249.049V125.127H247.88V119.091Z" fill="#B5B5B5"/>
<path d="M250.672 119.091H251.856V125.127H250.672V119.091ZM254.178 118.97C254.512 118.97 254.83 119.016 255.103 119.121C255.377 119.227 255.619 119.364 255.817 119.545C256.014 119.742 256.166 119.969 256.272 120.241C256.378 120.513 256.439 120.846 256.439 121.209V125.127H255.255V121.466C255.255 120.982 255.134 120.619 254.921 120.392C254.694 120.165 254.345 120.044 253.859 120.044C253.495 120.044 253.161 120.12 252.857 120.286C252.554 120.453 252.311 120.68 252.114 120.952C251.916 121.224 251.81 121.542 251.765 121.89V121.224C251.795 120.906 251.886 120.604 252.007 120.332C252.144 120.059 252.311 119.817 252.523 119.621C252.736 119.409 252.979 119.258 253.252 119.137C253.525 119.016 253.829 118.97 254.163 118.97H254.178Z" fill="#B5B5B5"/>
<path d="M3.55065 423.694H2.48828V421.001H8.54377V422.181H3.55065V423.694Z" fill="#B5B5B5"/>
<path d="M3.55065 419.474H2.48828V416.781H8.54377V417.961H3.55065V419.474Z" fill="#B5B5B5"/>
<path d="M2.44336 410.095H10.32V411.275H3.67267L3.77891 410.958L8.01319 413.983L7.58825 414.195V411.079H8.60508V415.011H7.58825L2.44336 411.275V410.095ZM8.60508 410.292H7.58825V408.885H8.60508V410.292Z" fill="#B5B5B5"/>
<path d="M0 403.545H1.24449V404.998H0V403.545ZM2.50415 404.846V403.682H8.55963V404.846H2.50415Z" fill="#B5B5B5"/>
<path d="M2.38281 398.554C2.38281 398.221 2.42834 397.903 2.53458 397.631C2.62564 397.359 2.77741 397.117 2.95953 396.92C3.15682 396.723 3.38447 396.572 3.65765 396.466C3.93083 396.36 4.26472 396.3 4.62896 396.3H8.55971V397.48H4.88696C4.40131 397.48 4.03707 397.601 3.80942 397.812C3.56659 398.039 3.46035 398.387 3.46035 398.871C3.46035 399.234 3.53624 399.567 3.70318 399.87C3.87012 400.172 4.09777 400.414 4.37095 400.611C4.64413 400.792 4.96284 400.913 5.31191 400.959H4.64413C4.32542 400.929 4.02189 400.838 3.74871 400.717C3.47553 400.581 3.23271 400.414 3.03541 400.202C2.82294 399.991 2.67117 399.749 2.54976 399.476C2.44352 399.204 2.38281 398.902 2.38281 398.569V398.554ZM2.50423 402.048V400.868H8.55971V402.048H2.50423Z" fill="#B5B5B5"/>
<path d="M8.6963 65.6038C8.6963 66.1937 8.57489 66.7534 8.31688 67.2374C8.05888 67.7366 7.70982 68.1299 7.23934 68.4173C6.76887 68.7047 6.20733 68.856 5.55473 68.856C4.90214 68.856 4.32542 68.7047 3.85495 68.4173C3.38447 68.1299 3.02023 67.7366 2.76223 67.2374C2.50423 66.7383 2.38281 66.1937 2.38281 65.6038C2.38281 65.0138 2.50423 64.4693 2.76223 63.9701C3.02023 63.4861 3.3693 63.0928 3.85495 62.8054C4.32542 62.518 4.90214 62.3667 5.55473 62.3667C6.20733 62.3667 6.76887 62.518 7.23934 62.8054C7.70982 63.0928 8.07406 63.4861 8.31688 63.9701C8.57489 64.4542 8.6963 64.9987 8.6963 65.6038ZM7.66429 65.6038C7.66429 65.2407 7.58841 64.908 7.42146 64.6054C7.25452 64.3029 7.01169 64.0457 6.69298 63.8491C6.37427 63.6525 5.99486 63.5617 5.53956 63.5617C5.08426 63.5617 4.70484 63.6525 4.38613 63.8491C4.06742 64.0306 3.82459 64.2878 3.65765 64.6054C3.49071 64.9231 3.39965 65.2559 3.39965 65.6038C3.39965 65.9517 3.47553 66.2996 3.64248 66.6173C3.80942 66.9349 4.05224 67.1921 4.37095 67.3887C4.68966 67.5853 5.08426 67.6912 5.53956 67.6912C5.99486 67.6912 6.37427 67.6005 6.69298 67.4038C7.01169 67.2072 7.25452 66.95 7.42146 66.6324C7.58841 66.3147 7.66429 65.9668 7.66429 65.6038Z" fill="#B5B5B5"/>
<path d="M10.3043 60.8845L9.98554 61.1265C9.77307 61.0055 9.5606 60.8996 9.34812 60.7937C9.13565 60.6879 8.908 60.6274 8.69553 60.6274L8.55894 61.2475H7.31445V59.7651H8.20988C8.72588 59.7651 9.15083 59.871 9.48471 60.0979C9.8186 60.3248 10.0918 60.582 10.3194 60.8996L10.3043 60.8845Z" fill="#B5B5B5"/>
<path d="M2.44336 53.7599H10.32V54.9398H3.67267L3.77891 54.6221L8.01319 57.6474L7.58825 57.8592V54.7431H8.60508V58.676H7.58825L2.44336 54.9398V53.7599ZM8.60508 53.9566H7.58825V52.5498H8.60508V53.9566Z" fill="#B5B5B5"/>
<path d="M0 47.1948H1.24449V48.647H0V47.1948ZM2.50415 48.4957V47.331H8.55963V48.4957H2.50415Z" fill="#B5B5B5"/>
<path d="M2.38281 42.2182C2.38281 41.8854 2.42834 41.5678 2.53458 41.2955C2.62564 41.0232 2.77741 40.7812 2.95953 40.5845C3.15682 40.3879 3.38447 40.2366 3.65765 40.1307C3.93083 40.0249 4.26472 39.9644 4.62896 39.9644H8.55971V41.1442H4.88696C4.40131 41.1442 4.03707 41.2652 3.80942 41.477C3.58177 41.7039 3.46035 42.0518 3.46035 42.5359C3.46035 42.8989 3.53624 43.2317 3.70318 43.5342C3.87012 43.8367 4.09777 44.0788 4.37095 44.2754C4.64413 44.4569 4.96284 44.5779 5.31191 44.6233H4.64413C4.32542 44.5931 4.02189 44.5023 3.74871 44.3813C3.47553 44.2452 3.23271 44.0788 3.03541 43.867C2.82294 43.6552 2.67117 43.4132 2.54976 43.1409C2.42834 42.8686 2.38281 42.5661 2.38281 42.2333V42.2182ZM2.50423 45.7124V44.5326H8.55971V45.7124H2.50423Z" fill="#B5B5B5"/>
<path d="M224.523 3.53981V2.48096H227.225V8.51644H226.041V3.53981H224.523Z" fill="#B5B5B5"/>
<path d="M232.461 5.30959C232.841 5.30959 233.175 5.37009 233.478 5.47598C233.782 5.58186 234.055 5.76338 234.282 5.97515C234.51 6.20205 234.692 6.47433 234.814 6.79198C234.95 7.10964 235.011 7.47268 235.011 7.88109C235.011 8.42565 234.89 8.87944 234.632 9.27273C234.374 9.66602 234.04 9.95343 233.615 10.1652C233.19 10.377 232.704 10.4829 232.173 10.4829C231.778 10.4829 231.399 10.4223 231.05 10.3165C230.701 10.2106 230.382 10.0442 230.109 9.83241C229.836 9.62064 229.623 9.36349 229.456 9.07609C229.289 8.78868 229.198 8.44077 229.168 8.06261H230.321C230.352 8.35002 230.443 8.59204 230.61 8.80381C230.762 9.00046 230.974 9.15172 231.247 9.25761C231.505 9.36349 231.809 9.40887 232.158 9.40887C232.37 9.40887 232.583 9.37862 232.795 9.31811C232.992 9.25761 233.175 9.15172 233.342 9.03071C233.493 8.9097 233.63 8.7433 233.721 8.54666C233.812 8.35002 233.858 8.12312 233.858 7.86597C233.858 7.60882 233.812 7.38192 233.736 7.18527C233.66 6.98863 233.539 6.83736 233.387 6.70122C233.235 6.58021 233.068 6.47433 232.871 6.39869C232.674 6.32306 232.461 6.29281 232.234 6.29281C232.006 6.29281 231.794 6.32306 231.581 6.36844C231.369 6.41382 231.156 6.51971 230.974 6.64072C230.792 6.76173 230.625 6.95838 230.504 7.2004L229.441 6.98863L229.729 2.43555H234.343V3.4944H230.837L230.625 6.7466L230.504 6.65585C230.595 6.33819 230.746 6.06591 230.959 5.86927C231.156 5.67262 231.399 5.52136 231.657 5.41547C231.93 5.30959 232.203 5.26421 232.492 5.26421L232.461 5.30959Z" fill="#B5B5B5"/>
<path d="M236.423 10.2709L236.18 9.95328C236.301 9.74151 236.408 9.52974 236.514 9.31797C236.62 9.1062 236.681 8.8793 236.681 8.66753L236.059 8.53139V7.29102H237.546V8.18348C237.546 8.69778 237.44 9.12132 237.212 9.45411C236.984 9.78689 236.726 10.0592 236.408 10.2861L236.423 10.2709Z" fill="#B5B5B5"/>
<path d="M238.592 3.53981V2.48096H243.979V3.53981L240.58 10.3467H239.26L243.039 3.07089L243.312 3.53981H238.592Z" fill="#B5B5B5"/>
<path d="M249.185 0V1.24037H247.729V0H249.185ZM247.88 2.49588H249.049V8.53136H247.88V2.49588Z" fill="#B5B5B5"/>
<path d="M250.672 2.49601H251.856V8.53149H250.672V2.49601ZM254.178 2.375C254.512 2.375 254.83 2.42038 255.103 2.52627C255.377 2.63215 255.619 2.76829 255.817 2.94981C256.014 3.14645 256.166 3.37335 256.272 3.64563C256.378 3.9179 256.439 4.25069 256.439 4.61372V8.53149H255.255V4.87088C255.255 4.38683 255.134 4.02379 254.921 3.79689C254.694 3.56999 254.345 3.44898 253.859 3.44898C253.495 3.44898 253.161 3.52462 252.857 3.69101C252.554 3.8574 252.311 4.0843 252.114 4.35657C251.916 4.62885 251.81 4.94651 251.765 5.29442V4.62885C251.795 4.31119 251.886 4.00866 252.007 3.73639C252.144 3.46411 252.311 3.22208 252.523 3.02544C252.736 2.81367 252.979 2.6624 253.252 2.54139C253.525 2.42038 253.829 2.375 254.163 2.375H254.178Z" fill="#B5B5B5"/>
</g>
<defs>
<clipPath id="clip0_159_4386">
<rect width="439" height="651" fill="white"/>
</clipPath>
</defs>
</svg>
