<?xml version="1.0" encoding="UTF-8"?>
<svg id="Layer_2" data-name="Layer 2" xmlns="http://www.w3.org/2000/svg" viewBox="0 0 116.98 138.26">
  <defs>
    <style>
      .cls-1 {
        fill: #a68f61;
      }

      .cls-2 {
        fill: #1b2129;
      }

      .cls-3 {
        fill: #3d3e3b;
      }

      .cls-4 {
        fill: #baa37d;
      }

      .cls-5 {
        fill: #ccbaa1;
      }
    </style>
  </defs>
  <g id="Layer_1-2" data-name="Layer 1">
    <path class="cls-4" d="M84.53,86.64H15.27c-1.17,0-2.11-.94-2.11-2.11V15.27c0-1.17.94-2.11,2.11-2.11h69.26c1.16,0,2.11.94,2.11,2.11v69.26c0,1.17-.94,2.11-2.11,2.11M1,3.11v93.58c0,1.16.94,2.11,2.11,2.11h93.58c1.16,0,2.11-.94,2.11-2.11V3.11c0-1.16-.94-2.11-2.11-2.11H3.11C1.94,1,1,1.94,1,3.11"/>
    <path class="cls-1" d="M84.53,86.64H15.27c-1.17,0-2.11-.94-2.11-2.11V15.27c0-1.17.94-2.11,2.11-2.11h69.26c1.16,0,2.11.94,2.11,2.11v69.26c0,1.17-.94,2.11-2.11,2.11M1,3.11v93.58c0,1.16.94,2.11,2.11,2.11h93.58c1.16,0,2.11-.94,2.11-2.11V3.11c0-1.16-.94-2.11-2.11-2.11H3.11C1.94,1,1,1.94,1,3.11"/>
    <path class="cls-5" d="M96.69,99.8H3.11c-1.71,0-3.11-1.39-3.11-3.11V3.11C0,1.39,1.39,0,3.11,0h93.58c1.71,0,3.11,1.39,3.11,3.11v93.58c0,1.71-1.39,3.11-3.11,3.11ZM3.11,2c-.61,0-1.11.5-1.11,1.11v93.58c0,.61.5,1.11,1.11,1.11h93.58c.61,0,1.11-.5,1.11-1.11V3.11c0-.61-.5-1.11-1.11-1.11H3.11ZM84.53,87.64H15.27c-1.71,0-3.11-1.39-3.11-3.11V15.27c0-1.71,1.4-3.11,3.11-3.11h69.26c1.71,0,3.11,1.39,3.11,3.11v69.26c0,1.71-1.39,3.11-3.11,3.11ZM15.27,14.16c-.61,0-1.11.5-1.11,1.11v69.26c0,.61.5,1.11,1.11,1.11h69.26c.61,0,1.11-.5,1.11-1.11V15.27c0-.61-.5-1.11-1.11-1.11H15.27Z"/>
    <g>
      <path class="cls-2" d="M37.91,119.51v2.34h5.02v1.03h-6.17v-7.79h6.16v1.03h-5v2.38h4.09v1.01h-4.09Z"/>
      <path class="cls-2" d="M44.4,116.89h1.15v5.99h-1.15v-5.99ZM47.83,116.77c.34,0,.64.05.91.14s.5.24.7.43c.19.19.34.42.45.7.11.28.16.59.16.94v3.9h-1.14v-3.65c0-.47-.11-.83-.34-1.06-.23-.24-.57-.35-1.04-.35-.36,0-.69.08-.98.25-.3.17-.54.39-.73.67-.19.28-.3.59-.34.93v-.66c.03-.32.11-.62.25-.89.13-.27.3-.51.5-.71.2-.2.44-.36.71-.47.27-.11.57-.16.89-.16Z"/>
      <path class="cls-2" d="M57.43,120.6c-.05.5-.21.93-.47,1.29-.27.36-.62.64-1.05.83-.43.19-.91.29-1.44.29-.58,0-1.12-.12-1.61-.37-.49-.24-.88-.6-1.17-1.07s-.44-1.03-.44-1.67.15-1.22.44-1.69.68-.83,1.17-1.07c.49-.25,1.02-.37,1.61-.37.53,0,1,.1,1.43.29.42.19.77.47,1.04.82.27.36.44.78.49,1.28h-1.04c-.14-.43-.38-.77-.73-1.03s-.75-.38-1.19-.38c-.37,0-.71.08-1.03.25s-.57.41-.76.73c-.19.32-.28.71-.28,1.17s.09.83.28,1.15c.19.32.44.56.75.72.31.16.66.25,1.03.25.51,0,.93-.12,1.25-.37.32-.25.55-.6.68-1.04h1.03Z"/>
      <path class="cls-2" d="M61.1,123c-.51,0-.98-.13-1.4-.4-.42-.26-.76-.63-1.01-1.1s-.37-1.01-.37-1.61.13-1.15.38-1.61c.25-.47.6-.84,1.04-1.1.44-.27.93-.4,1.48-.4.6,0,1.07.14,1.4.42.33.28.56.66.7,1.13.13.47.2,1,.2,1.57,0,.32-.04.66-.12,1.02-.08.36-.21.7-.38,1.02-.18.32-.42.58-.73.77-.31.2-.7.29-1.16.29ZM61.43,122c.42,0,.78-.09,1.07-.28.29-.19.51-.44.65-.76.14-.32.22-.68.22-1.07,0-.42-.07-.8-.22-1.12-.15-.32-.37-.57-.66-.74s-.65-.26-1.06-.26c-.62,0-1.11.2-1.45.6-.34.4-.51.91-.51,1.52,0,.42.08.78.25,1.1.17.32.4.56.69.74.29.18.63.27,1.01.27ZM63.37,116.89h1.15v5.99h-1.06c-.03-.3-.06-.55-.07-.76s-.02-.39-.02-.55v-4.68Z"/>
      <path class="cls-2" d="M66.02,116.89h1.1l.05,1.36v7.03h-1.15v-8.39ZM69.44,123.01c-.46,0-.85-.1-1.16-.3s-.56-.46-.73-.78c-.18-.32-.3-.66-.38-1.02-.08-.36-.12-.7-.12-1.02,0-.43.04-.84.11-1.21.08-.38.2-.71.38-1,.18-.29.42-.51.73-.67s.7-.24,1.18-.24c.52,0,.99.13,1.4.4.42.27.75.64,1,1.11.25.47.38,1.01.38,1.61s-.13,1.16-.38,1.63c-.26.47-.59.83-1.01,1.1-.42.26-.88.4-1.39.4ZM69.12,122c.38,0,.72-.09,1.02-.27.3-.18.53-.43.69-.74.16-.32.25-.68.25-1.1,0-.62-.17-1.12-.51-1.52-.34-.4-.82-.6-1.45-.6-.38,0-.71.09-1,.26s-.52.42-.69.74c-.17.32-.25.69-.25,1.12,0,.4.07.76.22,1.07.15.32.37.57.65.76.29.19.64.28,1.07.28Z"/>
      <path class="cls-2" d="M73.16,120.94h1.06c.04.32.18.58.43.79s.6.31,1.04.31c.29,0,.51-.03.67-.1.16-.07.27-.16.34-.28.07-.12.1-.25.1-.4,0-.18-.05-.33-.14-.43-.1-.1-.23-.18-.41-.25-.18-.07-.38-.13-.62-.2-.26-.07-.53-.16-.79-.25-.26-.1-.51-.21-.73-.35-.22-.14-.4-.31-.53-.51s-.2-.45-.2-.75c0-.25.05-.48.16-.7.11-.22.26-.4.47-.56s.44-.28.71-.36.57-.13.9-.13c.46,0,.84.08,1.15.25.31.16.55.39.71.69.16.3.25.64.26,1.02h-1.01c-.06-.34-.17-.58-.35-.74-.18-.16-.44-.23-.79-.23s-.61.07-.79.2-.28.32-.28.55c0,.18.06.32.19.43.13.11.3.2.52.28.22.08.46.16.73.25.26.09.5.18.74.27s.45.2.64.32c.19.12.34.28.44.48s.16.44.16.73c0,.35-.09.66-.26.92-.18.26-.43.46-.76.61-.33.14-.73.22-1.21.22-.43,0-.8-.05-1.1-.16-.3-.1-.55-.24-.76-.41s-.36-.35-.47-.53c-.11-.19-.18-.37-.22-.55s-.05-.32-.03-.43Z"/>
      <path class="cls-2" d="M83.75,120.06v.36c0,.1-.02.26-.07.46-.04.2-.12.43-.22.67s-.24.47-.41.7c-.17.22-.39.41-.65.55-.26.14-.58.22-.96.22-.26,0-.52-.04-.79-.11-.27-.07-.51-.19-.74-.36-.22-.17-.4-.4-.54-.69-.14-.29-.2-.66-.2-1.1v-3.86h1.15v3.62c0,.37.06.66.17.86.12.21.28.36.5.44.22.09.46.13.73.13.42,0,.77-.1,1.05-.31.28-.2.51-.45.67-.74s.26-.57.3-.85ZM84.83,122.88h-1.14v-5.99h1.14v5.99Z"/>
      <path class="cls-2" d="M86.46,114.49h1.15v8.39h-1.15v-8.39Z"/>
      <path class="cls-2" d="M91.73,123c-.51,0-.98-.13-1.4-.4-.42-.26-.76-.63-1.01-1.1s-.37-1.01-.37-1.61.13-1.15.38-1.61c.25-.47.6-.84,1.04-1.1.44-.27.93-.4,1.48-.4.6,0,1.07.14,1.4.42.33.28.56.66.7,1.13.13.47.2,1,.2,1.57,0,.32-.04.66-.12,1.02-.08.36-.21.7-.38,1.02-.18.32-.42.58-.73.77-.31.2-.7.29-1.16.29ZM92.05,122c.42,0,.78-.09,1.07-.28.29-.19.51-.44.65-.76.14-.32.22-.68.22-1.07,0-.42-.07-.8-.22-1.12-.15-.32-.37-.57-.66-.74s-.65-.26-1.06-.26c-.62,0-1.11.2-1.45.6-.34.4-.51.91-.51,1.52,0,.42.08.78.25,1.1.17.32.4.56.69.74.29.18.63.27,1.01.27ZM94,116.89h1.15v5.99h-1.06c-.03-.3-.06-.55-.07-.76s-.02-.39-.02-.55v-4.68Z"/>
      <path class="cls-2" d="M96.23,116.89h3.88v1h-3.88v-1ZM97.6,115.31h1.14v7.57h-1.14v-7.57Z"/>
      <path class="cls-2" d="M102.58,114.42v1.24h-1.43v-1.24h1.43ZM101.29,116.89h1.14v5.99h-1.14v-5.99Z"/>
      <path class="cls-2" d="M106.94,123.01c-.58,0-1.12-.12-1.61-.37-.49-.25-.88-.6-1.16-1.07s-.43-1.02-.43-1.67.14-1.22.43-1.69.68-.83,1.16-1.07c.49-.25,1.02-.37,1.61-.37s1.12.12,1.6.37c.48.25.86.61,1.15,1.07s.43,1.03.43,1.69-.14,1.2-.43,1.67-.67.82-1.15,1.07-1.01.37-1.6.37ZM106.94,122.02c.36,0,.69-.08,1-.25.31-.16.56-.4.74-.72.19-.32.28-.7.28-1.15s-.09-.84-.28-1.16c-.19-.32-.44-.56-.74-.73s-.64-.25-1-.25-.7.08-1.01.25-.56.41-.76.73c-.19.32-.29.71-.29,1.18s.09.83.28,1.15c.19.32.44.56.75.72.31.16.65.25,1.02.25Z"/>
      <path class="cls-2" d="M111.32,116.89h1.15v5.99h-1.15v-5.99ZM114.76,116.77c.34,0,.64.05.91.14s.5.24.7.43c.19.19.34.42.45.7.11.28.16.59.16.94v3.9h-1.14v-3.65c0-.47-.11-.83-.34-1.06-.23-.24-.57-.35-1.04-.35-.36,0-.69.08-.98.25-.3.17-.54.39-.73.67-.19.28-.3.59-.34.93v-.66c.03-.32.11-.62.25-.89.13-.27.3-.51.5-.71.2-.2.44-.36.71-.47.27-.11.57-.16.89-.16Z"/>
    </g>
    <g>
      <path class="cls-2" d="M39,138.13l-2.95-7.79h1.26l2.52,6.8h-.36l2.41-6.8h1.28l2.41,6.8h-.35l2.52-6.8h1.22l-2.92,7.79h-1.31l-2.39-6.92h.34l-2.4,6.92h-1.3Z"/>
      <path class="cls-2" d="M51.1,135.44v-1.01h2.8c.46,0,.84-.14,1.12-.42.28-.28.43-.65.43-1.1s-.14-.84-.43-1.12c-.28-.27-.66-.41-1.12-.41h-2.6v6.74h-1.15v-7.79h3.71c.38,0,.74.05,1.07.16s.62.27.88.49c.25.22.45.48.59.8s.21.69.21,1.12-.07.78-.21,1.1c-.14.32-.34.59-.59.8-.25.21-.54.37-.88.47-.33.1-.69.16-1.07.16h-2.75Z"/>
      <path class="cls-2" d="M65.29,135.47c-.07.58-.27,1.08-.59,1.5-.32.42-.75.74-1.27.96s-1.11.34-1.78.34c-.6,0-1.15-.09-1.65-.28-.5-.18-.93-.45-1.3-.79-.37-.34-.66-.77-.86-1.27s-.31-1.06-.31-1.69.1-1.2.31-1.69.5-.92.86-1.27c.37-.35.8-.61,1.3-.8.5-.18,1.05-.28,1.65-.28.67,0,1.27.11,1.79.34.52.23.94.55,1.27.97.32.42.52.92.59,1.51h-1.1c-.1-.38-.28-.7-.52-.96-.24-.26-.53-.47-.88-.61-.34-.14-.73-.21-1.15-.21-.54,0-1.04.12-1.49.35-.45.23-.81.57-1.07,1.01-.27.44-.4.98-.4,1.63s.13,1.18.4,1.63c.27.44.63.78,1.07,1.01.45.23.94.34,1.49.34.42,0,.81-.07,1.15-.2.34-.14.63-.34.87-.6.24-.26.42-.58.53-.95h1.09Z"/>
    </g>
    <polygon class="cls-3" points="32.81 119.88 27.95 119.88 27.95 93.25 28.95 93.25 28.95 118.88 32.81 118.88 32.81 119.88"/>
    <polygon class="cls-3" points="32.81 135.14 13.2 135.14 13.2 98.8 14.2 98.8 14.2 134.14 32.81 134.14 32.81 135.14"/>
    <path class="cls-3" d="M28.45,94.84c.88,0,1.59-.71,1.59-1.59s-.71-1.59-1.59-1.59-1.59.71-1.59,1.59.71,1.59,1.59,1.59"/>
    <path class="cls-3" d="M13.68,100.39c.88,0,1.59-.71,1.59-1.59s-.71-1.59-1.59-1.59-1.59.71-1.59,1.59.71,1.59,1.59,1.59"/>
  </g>
</svg>