<svg width="160" height="128" viewBox="0 0 160 128" fill="none" xmlns="http://www.w3.org/2000/svg">
<g clip-path="url(#clip0_159_5442)">
<path d="M26.3519 34.3309H17.3789V127.321H26.3519M32.487 24.5998V17.4917H159.325V24.5998" stroke="#3B3B38" stroke-miterlimit="10"/>
<path d="M131.297 104.393H60.527M103.797 56.2941C103.797 60.6704 100.27 64.2177 95.9189 64.2177C91.5676 64.2177 88.0405 60.6704 88.0405 56.2941C88.0405 51.9178 91.5676 48.3706 95.9189 48.3706C100.27 48.3706 103.797 51.9178 103.797 56.2941ZM64.8378 76.5311C61.0405 76.5311 57.9324 73.4052 57.9324 69.5861V53.8613C57.9324 50.0422 61.0405 46.9163 64.8378 46.9163C68.6351 46.9163 71.7432 50.0422 71.7432 53.8613V69.5861C71.7432 73.4052 68.6351 76.5311 64.8378 76.5311ZM126.946 76.5311C123.149 76.5311 120.041 73.4052 120.041 69.5861V53.8613C120.041 50.0422 123.149 46.9163 126.946 46.9163C130.743 46.9163 133.851 50.0422 133.851 53.8613V69.5861C133.851 73.4052 130.743 76.5311 126.946 76.5311ZM147.757 127.307H44.0811C37.7027 127.307 32.5 122.061 32.5 115.66V45.9785C32.5 39.5636 37.7162 34.3311 44.0811 34.3311H147.743C154.122 34.3311 159.338 39.5772 159.338 45.9785V115.66C159.338 122.075 154.122 127.307 147.743 127.307H147.757ZM131.162 110.645H60.527V85.2837H131.162V110.645Z" stroke="#3B3B38" stroke-width="0.5" stroke-miterlimit="10"/>
<path d="M7.67631 92.5276C7.67631 93.0577 7.5682 93.5605 7.33847 93.9954C7.10874 94.4439 6.79793 94.7973 6.37901 95.0555C5.96009 95.3138 5.46009 95.4497 4.87901 95.4497C4.29793 95.4497 3.78442 95.3138 3.3655 95.0555C2.94658 94.7973 2.62226 94.4439 2.39253 93.9954C2.1628 93.5469 2.05469 93.0577 2.05469 92.5276C2.05469 91.9976 2.1628 91.5083 2.39253 91.0598C2.62226 90.6249 2.93307 90.2715 3.3655 90.0133C3.78442 89.7551 4.29793 89.6191 4.87901 89.6191C5.46009 89.6191 5.96009 89.7551 6.37901 90.0133C6.79793 90.2715 7.12225 90.6249 7.33847 91.0598C7.5682 91.4947 7.67631 91.984 7.67631 92.5276ZM6.75739 92.5276C6.75739 92.2014 6.68982 91.9024 6.54117 91.6306C6.39253 91.3588 6.17631 91.1277 5.89253 90.9511C5.60874 90.7744 5.2709 90.6928 4.8655 90.6928C4.46009 90.6928 4.12225 90.7744 3.83847 90.9511C3.55469 91.1141 3.33847 91.3452 3.18982 91.6306C3.04117 91.916 2.96009 92.215 2.96009 92.5276C2.96009 92.8402 3.02766 93.1528 3.17631 93.4382C3.32496 93.7236 3.54117 93.9547 3.82496 94.1314C4.10874 94.308 4.46009 94.4032 4.8655 94.4032C5.2709 94.4032 5.60874 94.3216 5.89253 94.1449C6.17631 93.9683 6.39253 93.7372 6.54117 93.4518C6.68982 93.1664 6.75739 92.8538 6.75739 92.5276Z" fill="#1B2129"/>
<path d="M9.10747 88.287L8.82369 88.5044C8.6345 88.3957 8.44531 88.3006 8.25612 88.2054C8.06693 88.1103 7.86423 88.0559 7.67504 88.0559L7.55342 88.6132H6.44531V87.2812H7.24261C7.70207 87.2812 8.08045 87.3764 8.37774 87.5803C8.67504 87.7841 8.91829 88.0152 9.12099 88.3006L9.10747 88.287Z" fill="#1B2129"/>
<path d="M3.10806 87.0095H2.16211V84.5903H7.554V85.6504H3.10806V87.0095Z" fill="#1B2129"/>
<path d="M7.67631 80.0237C7.67631 80.5538 7.5682 81.0566 7.33847 81.4915C7.10874 81.94 6.79793 82.2934 6.37901 82.5516C5.96009 82.8099 5.46009 82.9458 4.87901 82.9458C4.29793 82.9458 3.78442 82.8099 3.3655 82.5516C2.94658 82.2934 2.62226 81.94 2.39253 81.4915C2.1628 81.043 2.05469 80.5538 2.05469 80.0237C2.05469 79.4937 2.1628 79.0044 2.39253 78.5559C2.62226 78.121 2.93307 77.7676 3.3655 77.5094C3.78442 77.2511 4.29793 77.1152 4.87901 77.1152C5.46009 77.1152 5.96009 77.2511 6.37901 77.5094C6.79793 77.7676 7.12225 78.121 7.33847 78.5559C7.5682 78.9908 7.67631 79.4801 7.67631 80.0237ZM6.75739 80.0237C6.75739 79.6975 6.68982 79.3985 6.54117 79.1267C6.39253 78.8549 6.17631 78.6238 5.89253 78.4472C5.60874 78.2705 5.2709 78.1889 4.8655 78.1889C4.46009 78.1889 4.12225 78.2705 3.83847 78.4472C3.55469 78.6102 3.33847 78.8413 3.18982 79.1267C3.04117 79.4121 2.96009 79.7111 2.96009 80.0237C2.96009 80.3363 3.02766 80.6489 3.17631 80.9343C3.32496 81.2197 3.54117 81.4508 3.82496 81.6274C4.10874 81.8041 4.46009 81.8993 4.8655 81.8993C5.2709 81.8993 5.60874 81.8177 5.89253 81.641C6.17631 81.4644 6.39253 81.2333 6.54117 80.9479C6.68982 80.6625 6.75739 80.3499 6.75739 80.0237Z" fill="#1B2129"/>
<path d="M0 70.8903V70.1836H0.945946V70.768C0.945946 70.9583 0.959459 71.135 1.02703 71.2845C1.09459 71.434 1.18919 71.5427 1.32432 71.6378C1.45946 71.7194 1.66216 71.7601 1.90541 71.7601H7.55405V72.8203H1.85135C1.41892 72.8203 1.06757 72.7387 0.797297 72.5892C0.527027 72.4261 0.324324 72.2087 0.202703 71.9232C0.0810811 71.6378 0.0135135 71.2981 0.0135135 70.9039L0 70.8903ZM2.18919 73.8668V70.2787H3.08108V73.8668H2.18919Z" fill="#1B2129"/>
<path d="M0.730469 68.4985V67.4384H7.55479V68.4985H0.730469ZM2.1629 69.7353V66.2017H3.06831V69.7353H2.1629Z" fill="#1B2129"/>
<path d="M85.0265 7.71977C84.4995 7.71977 83.9995 7.61104 83.567 7.38C83.1211 7.14895 82.7697 6.83636 82.513 6.41504C82.2562 5.99372 82.1211 5.49085 82.1211 4.90644C82.1211 4.32202 82.2562 3.80557 82.513 3.38424C82.7697 2.96292 83.1211 2.63674 83.567 2.40569C84.013 2.17465 84.4995 2.06592 85.0265 2.06592C85.5535 2.06592 86.04 2.17465 86.486 2.40569C86.9184 2.63674 87.2697 2.94933 87.5265 3.38424C87.7833 3.80557 87.9184 4.32202 87.9184 4.90644C87.9184 5.49085 87.7833 5.99372 87.5265 6.41504C87.2697 6.83636 86.9184 7.16254 86.486 7.38C86.0535 7.61104 85.567 7.71977 85.0265 7.71977ZM85.0265 6.79558C85.3508 6.79558 85.6481 6.72763 85.9184 6.57813C86.1887 6.42863 86.4184 6.21117 86.5941 5.92576C86.7697 5.64035 86.8508 5.30057 86.8508 4.89284C86.8508 4.48512 86.7697 4.14534 86.5941 3.85993C86.4319 3.57452 86.2022 3.35706 85.9184 3.20756C85.6346 3.05806 85.3373 2.97651 85.0265 2.97651C84.7157 2.97651 84.4049 3.04447 84.1211 3.19397C83.8373 3.34347 83.6076 3.56093 83.4319 3.84634C83.2562 4.13175 83.1616 4.48512 83.1616 4.89284C83.1616 5.30057 83.2427 5.64035 83.4184 5.92576C83.5941 6.21117 83.8238 6.42863 84.1076 6.57813C84.3914 6.72763 84.7022 6.79558 85.0265 6.79558Z" fill="#1B2129"/>
<path d="M89.2423 9.16034L89.0261 8.87493C89.1342 8.68465 89.2288 8.49438 89.3234 8.3041C89.418 8.11383 89.472 7.90996 89.472 7.71969L88.918 7.59737V6.48291H90.2423V7.28478C90.2423 7.74687 90.1477 8.12742 89.945 8.42642C89.7423 8.72542 89.5126 8.97006 89.2288 9.17393L89.2423 9.16034Z" fill="#1B2129"/>
<path d="M90.5273 3.12569V2.17432H92.9327V7.59712H91.8787V3.12569H90.5273Z" fill="#1B2129"/>
<path d="M98.9056 2.12012V9.17384H97.8515V3.22099L98.1353 3.31613L95.4326 7.10801L95.2434 6.72746H98.0272V7.63806H94.5137V6.72746L97.8515 2.12012H98.9056ZM98.7299 7.63806V6.72746H99.9866V7.63806H98.7299Z" fill="#1B2129"/>
<path d="M103.121 2.20174H106.689V3.09875H103.121V2.20174ZM106.081 0H106.783V0.95137H106.202C106.013 0.95137 105.837 0.964961 105.689 1.03292C105.54 1.10087 105.432 1.19601 105.337 1.33192C105.256 1.46783 105.216 1.67169 105.216 1.91633V7.59737H104.162V1.86197C104.162 1.42705 104.243 1.07369 104.391 0.801869C104.554 0.530049 104.77 0.326184 105.054 0.203865C105.337 0.081546 105.675 0.013591 106.067 0.013591L106.081 0Z" fill="#1B2129"/>
<path d="M107.229 2.17453H110.742V3.08513H107.229V2.17453ZM108.458 0.733887H109.512V7.59734H108.458V0.733887Z" fill="#1B2129"/>
</g>
<defs>
<clipPath id="clip0_159_5442">
<rect width="160" height="128" fill="white"/>
</clipPath>
</defs>
</svg>
