<?xml version="1.0" encoding="UTF-8" standalone="no"?>
<!-- Created with Inkscape (http://www.inkscape.org/) -->

<svg
   width="640"
   height="300"
   viewBox="0 0 169.33333 79.374999"
   version="1.1"
   id="svg5"
   xml:space="preserve"
   inkscape:version="1.2.2 (b0a8486541, 2022-12-01)"
   sodipodi:docname="groberfloors-uniclic-system.svg"
   xmlns:inkscape="http://www.inkscape.org/namespaces/inkscape"
   xmlns:sodipodi="http://sodipodi.sourceforge.net/DTD/sodipodi-0.dtd"
   xmlns="http://www.w3.org/2000/svg"
   xmlns:svg="http://www.w3.org/2000/svg"><sodipodi:namedview
     id="namedview7"
     pagecolor="#ffffff"
     bordercolor="#000000"
     borderopacity="0.25"
     inkscape:showpageshadow="2"
     inkscape:pageopacity="0.0"
     inkscape:pagecheckerboard="0"
     inkscape:deskcolor="#d1d1d1"
     inkscape:document-units="mm"
     showgrid="false"
     showguides="true"
     inkscape:zoom="0.83535775"
     inkscape:cx="417.78507"
     inkscape:cy="211.88527"
     inkscape:window-width="1920"
     inkscape:window-height="1043"
     inkscape:window-x="0"
     inkscape:window-y="0"
     inkscape:window-maximized="1"
     inkscape:current-layer="g19275" /><defs
     id="defs2"><rect
       x="115.70174"
       y="24.390747"
       width="77.511703"
       height="44.133411"
       id="rect15119" /><rect
       x="115.70174"
       y="24.390747"
       width="77.511703"
       height="44.133411"
       id="rect15119-5" /><rect
       x="115.70174"
       y="24.390747"
       width="110.40835"
       height="32.11573"
       id="rect15119-5-5" /></defs><g
     inkscape:label="Layer 1"
     inkscape:groupmode="layer"
     id="layer1"><g
       id="g19275"
       transform="translate(0.99837457,4.9167476)"><path
         style="fill:#f48220;fill-opacity:1;stroke:#454746;stroke-width:0.208973;stroke-dasharray:none;stroke-opacity:1"
         d="m 81.87155,56.064085 c -1.216742,0.09795 -73.278076,0 -73.278076,0 v 2.530078 H 4.981807 v 1.78809 h 3.1256519 l 1.6443024,0.949333 h 2.8871757 l 0.965312,-0.557321 h 1.969893 v 2.264344 h 73.545999 v -2.428706 h -1.73826 L 86.465484,61.5263 h -2.759435 l -1.785175,-1.030676 h -3.267128 v -2.082345 h 3.222219 z"
         id="path399"
         sodipodi:nodetypes="ccccccccccccccccccccc" /><path
         style="fill:#f48220;fill-opacity:1;stroke:#454746;stroke-width:0.208973;stroke-dasharray:none;stroke-opacity:1"
         d="m 152.83425,24.830335 c -1.06686,0.593202 -66.694733,30.356022 -66.694733,30.356022 l 1.0481,2.302777 -3.287185,1.496156 0.740725,1.627449 2.844838,-1.294832 1.889842,0.182883 2.627804,-1.196033 0.647708,-0.90714 1.792915,-0.816042 0.938022,2.060918 66.938594,-30.467014 -1.00611,-2.210511 -1.5821,0.720089 -0.45444,1.213693 -2.51153,1.143118 -2.05176,-0.198561 -2.97361,1.353432 -0.86262,-1.895262 2.93273,-1.334836 z"
         id="path399-3"
         sodipodi:nodetypes="ccccccccccccccccccccc" /><g
         id="g12883"
         transform="matrix(0.32622998,0,0,0.32622998,87.711189,49.910696)"><g
           id="g9195"
           transform="matrix(1.295329,0.70674785,-0.70674785,1.295329,-88.718165,-218.91452)"><path
             style="fill:none;fill-opacity:1;stroke:#454746;stroke-width:1.32292;stroke-dasharray:none;stroke-opacity:1"
             id="path8867"
             sodipodi:type="arc"
             sodipodi:cx="233.13164"
             sodipodi:cy="33.563877"
             sodipodi:rx="20.833948"
             sodipodi:ry="20.833948"
             sodipodi:start="0.20858449"
             sodipodi:end="1.5601962"
             sodipodi:arc-type="arc"
             d="M 253.51401,37.878073 A 20.833948,20.833948 0 0 1 233.35248,54.396655"
             transform="matrix(0.94393119,0.33014225,0.33014225,-0.94393119,0,0)"
             sodipodi:open="true" /><path
             sodipodi:type="star"
             style="fill:#454746;fill-opacity:1;stroke:none;stroke-width:0.529167;stroke-dasharray:none;stroke-opacity:1"
             id="path9027"
             inkscape:flatsided="false"
             sodipodi:sides="3"
             sodipodi:cx="72.395943"
             sodipodi:cy="-26.959272"
             sodipodi:r1="8.5299692"
             sodipodi:r2="4.2649846"
             sodipodi:arg1="0.52359878"
             sodipodi:arg2="1.5707963"
             inkscape:rounded="0"
             inkscape:randomized="0"
             d="m 79.783113,-22.694288 -7.38717,0 -7.38717,0 3.693585,-6.397477 3.693585,-6.397477 3.693585,6.397477 z"
             inkscape:transform-center-y="1.1532517"
             transform="matrix(0.19107634,-0.56915909,0.56915909,0.19107634,237.50822,71.119697)"
             inkscape:transform-center-x="0.49644603" /><path
             sodipodi:type="star"
             style="fill:#454746;fill-opacity:1;stroke:none;stroke-width:0.529167;stroke-dasharray:none;stroke-opacity:1"
             id="path9027-6-7"
             inkscape:flatsided="false"
             sodipodi:sides="3"
             sodipodi:cx="72.395943"
             sodipodi:cy="-26.959272"
             sodipodi:r1="8.5299692"
             sodipodi:r2="4.2649846"
             sodipodi:arg1="0.52359878"
             sodipodi:arg2="1.5707963"
             inkscape:rounded="0"
             inkscape:randomized="0"
             d="m 79.783113,-22.694288 -7.38717,0 -7.38717,0 3.693585,-6.397477 3.693585,-6.397477 3.693585,6.397477 z"
             inkscape:transform-center-y="0.66923653"
             transform="matrix(-0.59486398,-0.08117317,0.08117317,-0.59486398,296.78129,39.994949)"
             inkscape:transform-center-x="-2.1704304" /></g></g><g
         aria-label="A"
         transform="matrix(0.20897328,0,0,0.20897328,81.336897,24.434148)"
         id="text15117"
         style="font-weight:800;font-size:33.3333px;font-family:Syne;-inkscape-font-specification:'Syne Ultra-Bold';text-align:center;white-space:pre;shape-inside:url(#rect15119);display:inline;fill:#535353;stroke-width:5"><path
           d="m 147.94038,49.185046 v -3.23333 h 12.86666 v 3.23333 z m -4.99999,5.066662 9.43332,-21.59998 h 4.06666 l 9.5,21.59998 h -4.1 l -8.26666,-19.499982 h 1.66667 l -8.23333,19.499982 z"
           style="font-weight:600;-inkscape-font-specification:'Syne Semi-Bold'"
           id="path690" /></g><g
         aria-label="B"
         transform="matrix(0.20897328,0,0,0.20897328,12.660873,37.651385)"
         id="text15117-3"
         style="font-weight:800;font-size:33.3333px;font-family:Syne;-inkscape-font-specification:'Syne Ultra-Bold';text-align:center;white-space:pre;shape-inside:url(#rect15119-5);display:inline;fill:#535353;stroke-width:5"><path
           d="m 145.07371,54.251708 v -21.59998 h 10.99999 q 3.96666,0 6.06666,1.499999 2.13333,1.466665 2.13333,4.266662 0,1.799999 -0.83333,2.866664 -0.8,1.033333 -2.3,1.566666 -1.5,0.499999 -3.53333,0.633332 l 0.13333,-0.2 q 1.46667,0.03333 2.76667,0.266667 1.33333,0.2 2.33333,0.733332 1.03333,0.533333 1.6,1.499999 0.6,0.933332 0.6,2.433331 0,1.999998 -1,3.299997 -1,1.299999 -2.76667,1.999998 -1.76666,0.666666 -4.06666,0.733333 z m 3.8,-3.233331 h 7.76665 q 2.16667,0 3.36667,-0.733332 1.2,-0.766666 1.2,-2.366665 0,-1.266665 -0.73334,-1.833331 -0.73333,-0.6 -1.89999,-0.766666 -1.13334,-0.166667 -2.43333,-0.166667 h -7.26666 z m 0,-9.033324 h 6.96666 q 2.16666,0 3.33333,-0.733333 1.19999,-0.766666 1.19999,-2.399998 0,-1.599998 -1.19999,-2.266664 -1.16667,-0.7 -3.06667,-0.7 h -7.23332 z"
           style="font-weight:600;-inkscape-font-specification:'Syne Semi-Bold'"
           id="path693" /></g><g
         aria-label="20 - 30°"
         transform="matrix(0.20897328,0,0,0.20897328,104.06571,42.805439)"
         id="text15117-3-6"
         style="font-weight:800;font-size:26.6667px;font-family:Syne;-inkscape-font-specification:'Syne Ultra-Bold';text-align:center;white-space:pre;shape-inside:url(#rect15119-5-5);display:inline;fill:#535353;stroke-width:5"><path
           d="m 128.49185,44.252872 -4.02667,2.240003 -0.16,-0.640001 h 9.17334 v 2.42667 h -12.61335 v -2.42667 q 2.16001,-1.173334 3.86667,-1.973335 1.70667,-0.826668 2.88001,-1.493336 1.2,-0.666667 1.81333,-1.360001 0.64,-0.693335 0.64,-1.546669 0,-0.693334 -0.34666,-1.200002 -0.34667,-0.506667 -1.09334,-0.773334 -0.72,-0.293334 -1.86667,-0.293334 -1.49333,0 -2.45333,0.693335 -0.96,0.666667 -1.01334,1.813335 h -2.8 q -0.10667,-1.466668 0.64,-2.58667 0.77333,-1.120001 2.21334,-1.760002 1.46666,-0.666667 3.36,-0.666667 1.46667,0 2.64,0.32 1.17334,0.32 2.00001,0.933335 0.85333,0.586667 1.30666,1.413335 0.45334,0.800001 0.45334,1.786669 0,0.800001 -0.29334,1.466668 -0.26666,0.640001 -0.85333,1.253335 -0.56,0.586667 -1.44,1.173335 -0.85334,0.560001 -2.02667,1.200001 z"
           style="font-weight:600;-inkscape-font-specification:'Syne Semi-Bold'"
           id="path696" /><path
           d="m 143.69189,48.572878 q -2.21334,0 -3.97334,-0.800001 -1.76,-0.800001 -2.77334,-2.34667 -1.01333,-1.546668 -1.01333,-3.760005 0,-2.186669 1.01333,-3.733338 1.01334,-1.573335 2.77334,-2.400003 1.76,-0.826667 3.97334,-0.826667 2.21334,0 3.94667,0.826667 1.73334,0.826668 2.72001,2.400003 1.01333,1.546669 1.01333,3.733338 0,2.213337 -1.01333,3.760005 -0.98667,1.546669 -2.72001,2.34667 -1.73333,0.800001 -3.94667,0.800001 z m 0,-2.42667 q 1.25333,0 2.32,-0.506667 1.06667,-0.533334 1.70667,-1.520002 0.64,-1.013335 0.64,-2.453337 0,-1.413335 -0.64,-2.426669 -0.64,-1.040002 -1.70667,-1.573336 -1.04,-0.533334 -2.32,-0.533334 -1.28,0 -2.37334,0.533334 -1.06666,0.533334 -1.73333,1.546669 -0.64,1.013335 -0.64,2.453336 0,1.440002 0.64,2.453337 0.66667,0.986668 1.73333,1.520002 1.09334,0.506667 2.37334,0.506667 z"
           style="font-weight:600;-inkscape-font-specification:'Syne Semi-Bold'"
           id="path698" /><path
           d="m 161.02525,39.879533 h 8.48001 v 2.373337 h -8.48001 z"
           style="font-weight:600;-inkscape-font-specification:'Syne Semi-Bold'"
           id="path700" /><path
           d="m 185.77195,43.319538 0.0267,-0.133334 q 1.36,0.05333 2.50667,0.293334 1.14667,0.213334 1.97333,0.693334 0.85334,0.480001 1.30667,1.306669 0.48,0.826667 0.48,2.080002 0,1.440002 -0.85333,2.58667 -0.82667,1.146668 -2.34667,1.813336 -1.52,0.666667 -3.57334,0.666667 -1.97333,0 -3.49334,-0.720001 -1.52,-0.693334 -2.34667,-1.893335 -0.8,-1.200002 -0.69333,-2.720004 h 2.8 q 0.0267,0.800001 0.45334,1.413335 0.45333,0.613334 1.28,0.960001 0.85333,0.346668 2,0.346668 1.76,0 2.69334,-0.746668 0.96,-0.720001 0.96,-2.053336 0,-1.333335 -1.09334,-1.973336 -1.06666,-0.666667 -3.01333,-0.666667 h -2 V 42.17287 h 2 q 1.33333,0 2.18667,-0.240001 0.85333,-0.266667 1.25333,-0.800001 0.4,-0.56 0.4,-1.360001 0,-1.146668 -0.82667,-1.813336 -0.8,-0.666667 -2.56,-0.666667 -1.62667,0 -2.56,0.693334 -0.93334,0.693334 -0.96,1.840002 h -2.82667 q -0.08,-1.173335 0.37333,-2.106669 0.48,-0.933335 1.36,-1.600002 0.90667,-0.693334 2.08001,-1.066668 1.2,-0.373334 2.53333,-0.373334 2,0 3.44001,0.613334 1.46666,0.586667 2.24,1.653335 0.77333,1.066668 0.77333,2.453337 0,1.146668 -0.45333,1.893336 -0.42667,0.746667 -1.25334,1.200001 -0.8,0.426667 -1.89333,0.613334 -1.06667,0.186667 -2.37334,0.213334 z"
           style="font-weight:600;-inkscape-font-specification:'Syne Semi-Bold'"
           id="path702" /><path
           d="m 202.17199,48.572878 q -2.21334,0 -3.97334,-0.800001 -1.76,-0.800001 -2.77334,-2.34667 -1.01333,-1.546668 -1.01333,-3.760005 0,-2.186669 1.01333,-3.733338 1.01334,-1.573335 2.77334,-2.400003 1.76,-0.826667 3.97334,-0.826667 2.21333,0 3.94667,0.826667 1.73334,0.826668 2.72,2.400003 1.01334,1.546669 1.01334,3.733338 0,2.213337 -1.01334,3.760005 -0.98666,1.546669 -2.72,2.34667 -1.73334,0.800001 -3.94667,0.800001 z m 0,-2.42667 q 1.25333,0 2.32,-0.506667 1.06667,-0.533334 1.70667,-1.520002 0.64,-1.013335 0.64,-2.453337 0,-1.413335 -0.64,-2.426669 -0.64,-1.040002 -1.70667,-1.573336 -1.04,-0.533334 -2.32,-0.533334 -1.28,0 -2.37334,0.533334 -1.06667,0.533334 -1.73333,1.546669 -0.64,1.013335 -0.64,2.453336 0,1.440002 0.64,2.453337 0.66666,0.986668 1.73333,1.520002 1.09334,0.506667 2.37334,0.506667 z"
           style="font-weight:600;-inkscape-font-specification:'Syne Semi-Bold'"
           id="path704" /><path
           d="m 216.73202,37.932864 q -1.2,0 -2.16,-0.453334 -0.96,-0.48 -1.52,-1.280001 -0.53334,-0.826668 -0.53334,-1.893336 0,-1.066668 0.53334,-1.866669 0.56,-0.826668 1.52,-1.280002 0.96,-0.453333 2.16,-0.453333 1.22667,0 2.16,0.453333 0.96001,0.453334 1.49334,1.280002 0.56,0.800001 0.56,1.866669 0,1.066668 -0.56,1.893336 -0.53333,0.800001 -1.49334,1.280001 -0.93333,0.453334 -2.16,0.453334 z m 0,-1.813335 q 1.04,0 1.62667,-0.506668 0.58667,-0.533334 0.58667,-1.306668 0,-0.773334 -0.58667,-1.280002 -0.58667,-0.506667 -1.62667,-0.506667 -1.01333,0 -1.6,0.506667 -0.58667,0.506668 -0.58667,1.280002 0,0.773334 0.58667,1.306668 0.58667,0.506668 1.6,0.506668 z"
           style="font-weight:600;-inkscape-font-specification:'Syne Semi-Bold'"
           id="path706" /></g><g
         id="g18227"
         transform="matrix(0.11596855,0,0,0.11596855,3.6176246,6.3984783)"><path
           d="m 271.3,0.2 h 78 v 15.9 h -47.8 c 0,0 -9.7,-0.7 -12.4,2.3 a 10,10 0 0 0 -2.3,7.6 v 12 a 7.88,7.88 0 0 0 7.5,8.1 h 0.9 c 8.8,0 24.9,0.1 24.9,0.1 7.4,0.4 23.9,8 30.2,8 4.6,0 7.8,-8.1 12,-8.1 h 18.2 V 64.6 H 271.3 Z"
           style="fill:#1a4074"
           id="path17967" /><path
           d="m 364.8,8.5 a 8.4005952,8.4005952 0 0 1 16.8,-0.2 8.45,8.45 0 0 1 -8.3,8.5 h -0.1 a 8.22,8.22 0 0 1 -8.4,-8.2 z m 8.4,6.9 a 7,7 0 1 0 0.3,-13.9 6.87,6.87 0 0 0 -7.1,6.8 v 0.2 a 6.7,6.7 0 0 0 6.5,6.9 z m -1.8,-2.1 H 370 V 3.7 h 3.7 c 2.3,0 3.4,0.8 3.4,2.7 A 2.4,2.4 0 0 1 374.8,9 h -0.1 l 2.8,4.2 h -1.6 l -2.6,-4.1 h -1.6 z m 1.8,-5.4 c 1.2,0 2.3,-0.1 2.3,-1.6 0,-1.2 -1.1,-1.4 -2.1,-1.4 h -2 v 3 z"
           style="fill:#1a4074"
           id="path17969" /><rect
           x="21.700001"
           y="0.2"
           width="244.60001"
           height="64.300003"
           style="fill:#1a4074"
           id="rect17971" /><path
           d="m 23.7,80 h -1 v 3.9 H 21 V 73.1 h 3.1 c 2.5,0 4,1.3 4,3.2 0.1,2.2 -1.7,3.7 -4.4,3.7 z m 0.2,-5.7 h -1.3 v 4.4 h 1.1 c 1.8,0 2.8,-0.8 2.8,-2.3 0,-1.2 -0.9,-2.1 -2.6,-2.1 z"
           style="fill:#1a4074"
           id="path17973" /><path
           d="m 39.6,83.8 -0.9,-2.4 h -5 l -0.9,2.4 H 31.2 L 35.4,73 h 1.8 l 4.2,10.8 z m -2.8,-7.3 a 18.94,18.94 0 0 1 -0.6,-1.8 v 0 l -0.6,1.8 -1.4,3.7 h 4.2 z"
           style="fill:#1a4074"
           id="path17975" /><path
           d="m 48.5,74.4 v 9.5 h -1.6 v -9.5 h -3.2 v -1.3 h 8 v 1.3 z"
           style="fill:#1a4074"
           id="path17977" /><path
           d="M 56.8,83.8 V 73.1 h 5.9 v 1.2 h -4.3 v 3.4 h 4.1 v 1.2 h -4.1 v 3.7 h 4.3 v 1.3 z"
           style="fill:#1a4074"
           id="path17979" /><path
           d="m 75.9,83.8 -4.4,-6.7 a 9.41,9.41 0 0 1 -1.2,-2.2 v 0 c 0,0.7 0.1,1.6 0.1,2.8 v 6.1 H 68.8 V 73.1 h 2.1 l 4.4,6.7 a 15.92,15.92 0 0 1 1.3,2.2 v 0 -8.9 H 78 v 10.8 z"
           style="fill:#1a4074"
           id="path17981" /><path
           d="m 87.6,74.4 v 9.5 H 86 v -9.5 h -3.2 v -1.3 h 8 v 1.3 z"
           style="fill:#1a4074"
           id="path17983" /><path
           d="M 95.9,83.8 V 73.1 h 5.9 v 1.2 h -4.4 v 3.4 h 4.1 v 1.2 h -4.1 v 3.7 h 4.3 v 1.3 z"
           style="fill:#1a4074"
           id="path17985" /><path
           d="m 110.8,83.9 h -2.9 V 73.1 h 3.5 c 3.6,0 5.8,1.6 5.8,5.3 0,3.7 -2.8,5.5 -6.4,5.5 z m 0.3,-9.7 h -1.6 v 8.2 h 1.6 c 2.6,0 4.5,-1.3 4.5,-4.2 0,-2.9 -1.6,-4 -4.5,-4 z"
           style="fill:#1a4074"
           id="path17987" /><path
           d="m 139.8,74.4 v 9.5 h -1.6 V 74.4 H 135 v -1.3 h 8 v 1.3 z"
           style="fill:#1a4074"
           id="path17989" /><path
           d="M 148,83.8 V 73.1 h 5.9 v 1.2 h -4.3 v 3.4 h 4.1 v 1.2 h -4.1 v 3.7 h 4.3 v 1.3 z"
           style="fill:#1a4074"
           id="path17991" /><path
           d="m 164.1,84 a 4.83,4.83 0 0 1 -5.2,-4.4 v -0.9 a 5.19,5.19 0 0 1 4.7,-5.7 h 0.9 a 10.68,10.68 0 0 1 2.5,0.3 l -0.1,1.4 a 7.46,7.46 0 0 0 -2.6,-0.4 c -2.5,0 -3.7,1.9 -3.7,4.2 a 3.62,3.62 0 0 0 3.1,4.1 h 0.8 A 5.42,5.42 0 0 0 167,82 l 0.1,1.4 a 7.31,7.31 0 0 1 -3,0.6 z"
           style="fill:#1a4074"
           id="path17993" /><path
           d="m 180.1,83.8 v -4.9 h -5.8 v 4.9 h -1.6 V 73.1 h 1.6 v 4.5 h 5.8 v -4.5 h 1.6 v 10.8 z"
           style="fill:#1a4074"
           id="path17995" /><path
           d="m 195.5,83.8 -4.4,-6.7 a 9.41,9.41 0 0 1 -1.2,-2.2 v 0 c 0,0.7 0.1,1.6 0.1,2.8 v 6.1 h -1.6 V 73.1 h 2.1 l 4.3,6.7 a 15.92,15.92 0 0 1 1.3,2.2 v 0 -8.9 h 1.6 v 10.8 z"
           style="fill:#1a4074"
           id="path17997" /><path
           d="m 208.3,84 c -3.5,0 -5.1,-2.3 -5.1,-5.5 a 5.41,5.41 0 0 1 4.9,-5.7 h 0.5 c 3.2,0 5.1,2 5.1,5.5 a 5.18,5.18 0 0 1 -4.8,5.6 1.27,1.27 0 0 1 -0.6,0.1 z m 0.2,-9.8 a 3.83,3.83 0 0 0 -3.6,3.8 v 0.4 c 0,2.3 0.9,4.2 3.5,4.2 a 3.65,3.65 0 0 0 3.7,-3.5 v -0.5 c -0.1,-2.9 -1.4,-4.4 -3.6,-4.4 z"
           style="fill:#1a4074"
           id="path17999" /><path
           d="M 219.3,83.8 V 73.1 h 1.6 v 9.4 h 4 v 1.3 z"
           style="fill:#1a4074"
           id="path18001" /><path
           d="m 233.8,84 c -3.5,0 -5,-2.3 -5,-5.5 a 5.41,5.41 0 0 1 4.9,-5.7 h 0.5 c 3.2,0 5.1,2 5.1,5.5 a 5.18,5.18 0 0 1 -4.8,5.6 2,2 0 0 1 -0.7,0.1 z m 0.2,-9.8 a 3.83,3.83 0 0 0 -3.6,3.8 v 0.4 c 0,2.3 0.9,4.2 3.5,4.2 a 3.74,3.74 0 0 0 3.7,-3.6 v -0.5 c 0,-2.8 -1.4,-4.3 -3.6,-4.3 z"
           style="fill:#1a4074"
           id="path18003" /><path
           d="m 249.3,84 a 5.12,5.12 0 0 1 -5.5,-4.6 v -0.8 a 5.49,5.49 0 0 1 5.3,-5.7 h 0.6 a 8.59,8.59 0 0 1 3.2,0.5 l -0.2,1.4 a 8,8 0 0 0 -3,-0.6 4,4 0 0 0 -4.3,3.7 v 0.6 a 3.67,3.67 0 0 0 3.4,4.1 h 0.7 a 6.93,6.93 0 0 0 2,-0.3 v -3.9 h 1.6 v 5 a 12.09,12.09 0 0 1 -3.8,0.6 z"
           style="fill:#1a4074"
           id="path18005" /><path
           d="m 262.8,80 v 3.8 h -1.6 V 80 l -3.7,-7 h 1.8 l 1.9,3.6 c 0.3,0.6 0.6,1.3 0.9,2 v 0 c 0.3,-0.7 0.7,-1.4 1,-2.1 L 265,73 h 1.6 z"
           style="fill:#1a4074"
           id="path18007" /><path
           d="m 60.6,34.8 c 0,5.3 -0.4,11.3 -7.2,11.3 -6.8,0 -7.2,-5.8 -7.2,-11.3 V 13.2 H 35.4 v 23.1 c 0,5.3 0.2,10.5 4.3,14.5 3.4,3.4 8.8,4.6 13.6,4.6 4.8,0 10.2,-1.2 13.6,-4.6 4.1,-4 4.3,-9.2 4.3,-14.5 V 13.2 H 60.6 Z"
           style="fill:#ffffff"
           id="path18009" /><polygon
           points="79.1,54.2 89.7,54.2 89.7,29.1 89.9,29.1 109.4,54.2 120,54.2 120,13.2 109.4,13.2 109.4,38.3 109.3,38.3 89.7,13.2 79.1,13.2 "
           style="fill:#ffffff"
           id="polygon18011" /><rect
           x="127.1"
           y="13.2"
           width="10.7"
           height="41.099998"
           style="fill:#ffffff"
           id="rect18013" /><rect
           x="206.89999"
           y="13.2"
           width="10.7"
           height="41.099998"
           style="fill:#ffffff"
           id="rect18015" /><polygon
           points="202.5,45.2 189.7,45.2 189.7,13.2 179,13.2 179,54.2 202.5,54.2 "
           style="fill:#ffffff"
           id="polygon18017" /><path
           d="m 244.8,22.4 a 11.56,11.56 0 0 1 9.4,4.5 V 14.1 a 27.25,27.25 0 0 0 -9.7,-2.1 22.63,22.63 0 0 0 -15.6,6.6 21,21 0 0 0 -6,15 20.15,20.15 0 0 0 6.6,15.6 22.57,22.57 0 0 0 15.4,6 30.25,30.25 0 0 0 9.4,-1.9 V 40.5 A 12.47,12.47 0 0 1 245.1,44.9 10.62,10.62 0 0 1 234,34.8 v -1 c -0.1,-6.4 4.3,-11.4 10.8,-11.4 z"
           style="fill:#ffffff"
           id="path18019" /><path
           d="m 148.3,18.7 a 21,21 0 0 0 -6,15 19.8,19.8 0 0 0 6.6,15.5 22.57,22.57 0 0 0 15.4,6 30.25,30.25 0 0 0 9.4,-1.9 V 40.5 a 12.47,12.47 0 0 1 -9.2,4.4 10.57,10.57 0 0 1 -11.1,-10.2 v -1 a 10.84,10.84 0 0 1 10.2,-11.4 h 0.7 a 11.94,11.94 0 0 1 9.4,4.6 V 14.1 A 27.25,27.25 0 0 0 164,12 22.35,22.35 0 0 0 148.3,18.7 Z"
           style="fill:#ffffff"
           id="path18021" /></g></g></g></svg>
