<?xml version="1.0" encoding="UTF-8" standalone="no"?>
<!-- Created with Inkscape (http://www.inkscape.org/) -->

<svg
   version="1.1"
   id="svg2"
   width="180"
   height="91.683113"
   viewBox="0 0 179.99999 91.683109"
   xmlns="http://www.w3.org/2000/svg"
   xmlns:svg="http://www.w3.org/2000/svg">
  <defs
     id="defs6">
    <clipPath
       clipPathUnits="userSpaceOnUse"
       id="clipPath18">
      <path
         d="M 0,800 H 800 V 0 H 0 Z"
         id="path16" />
    </clipPath>
  </defs>
  <g
     id="g10"
     transform="matrix(1.3333333,0,0,-1.3333333,-191.56255,702.5336)">
    <g
       id="g12"
       transform="translate(-5.9462924,-0.63139395)">
      <g
         id="g14"
         clip-path="url(#clipPath18)"
         transform="matrix(0.26958856,0,0,0.26958856,109.28285,385.31512)">
        <g
           id="g20"
           transform="translate(351.0623,376.9972)">
          <path
             d="m 0,0 h -54.318 l 43.621,41.184 c 0.772,-1.486 1.486,-2.971 2.139,-4.457 4.992,-11.054 7.785,-22.82 8.439,-35.122 z"
             style="fill:#e31738;fill-opacity:1;fill-rule:nonzero;stroke:none"
             id="path22" />
        </g>
        <g
           id="g24"
           transform="translate(340.3651,418.2408)">
          <path
             d="m 0,0 v -0.059 l -43.621,-41.185 h -42.61 c 0,11.411 4.635,21.692 12.064,29.18 C -66.679,-4.635 -56.398,0 -44.988,0 Z"
             style="fill:#f78f1f;fill-opacity:1;fill-rule:nonzero;stroke:none"
             id="path26" />
        </g>
        <g
           id="g28"
           transform="translate(246.4282,473.7537)">
          <path
             d="m 0,0 v -55.744 l -1.01,-0.119 c -20.978,-2.496 -37.321,-18.839 -39.758,-39.699 l -0.119,-1.188 h -55.804 l 0.119,1.604 c 2.912,51.287 43.799,92.234 95.086,95.086 z"
             style="fill:#e31738;fill-opacity:1;fill-rule:nonzero;stroke:none"
             id="path30" />
        </g>
        <g
           id="g32"
           transform="translate(246.4282,328.331)">
          <path
             d="m 0,0 v -55.863 l -1.604,0.119 c -22.643,1.248 -44.453,10.341 -61.509,25.495 -1.011,0.891 -2.08,1.842 -3.09,2.852 l -2.2,2.199 c -0.95,0.951 -1.782,1.902 -2.674,2.912 C -86.35,-5.17 -95.383,16.7 -96.691,39.342 l -0.119,1.605 h 55.864 l 0.118,-1.13 c 0.951,-8.319 4.16,-16.224 9.45,-22.761 1.902,-2.436 4.1,-4.695 6.656,-6.775 C -17.888,4.517 -9.33,1.07 -0.475,0.059 Z"
             style="fill:#e31738;fill-opacity:1;fill-rule:nonzero;stroke:none"
             id="path34" />
        </g>
        <g
           id="g36"
           transform="translate(351.0232,369.2776)">
          <path
             d="m 0,0 -0.119,-1.604 c -1.307,-22.643 -10.341,-44.513 -25.495,-61.45 -0.951,-1.07 -1.902,-2.139 -2.853,-3.09 l -2.198,-2.199 c -1.011,-1.01 -2.021,-1.961 -3.091,-2.853 -16.996,-15.154 -38.866,-24.247 -61.449,-25.495 l -1.664,-0.119 v 55.863 l 0.535,0.06 c 8.855,1.01 17.353,4.457 24.247,10.222 2.496,2.08 4.754,4.338 6.596,6.775 5.29,6.537 8.558,14.441 9.45,22.761 L -55.923,0 Z"
             style="fill:#e31738;fill-opacity:1;fill-rule:nonzero;stroke:none"
             id="path38" />
        </g>
        <g
           id="g40"
           transform="translate(369.8897,417.6437)">
          <path
             d="M 0,0 H 47.717 V -12.545 H 14.923 V -28.23 h 28.42 V -39.824 H 14.923 V -67.865 H 0 Z"
             style="fill:#e31738;fill-opacity:1;fill-rule:nonzero;stroke:none"
             id="path42" />
        </g>
        <path
           d="m 421.065,417.644 h 13.499 v -67.865 h -13.499 z"
           style="fill:#e31738;fill-opacity:1;fill-rule:nonzero;stroke:none"
           id="path44" />
        <g
           id="g46"
           transform="translate(465.4354,358.6194)">
          <path
             d="m 0,0 c 9.219,0 11.974,7.89 11.974,15.682 0,7.889 -2.755,15.779 -11.974,15.779 -9.125,0 -11.882,-7.89 -11.882,-15.779 C -11.882,7.89 -9.125,0 0,0 m 0,41.631 c 15.492,0 25.473,-10.265 25.473,-25.949 C 25.473,0.095 15.492,-10.17 0,-10.17 c -15.4,0 -25.378,10.265 -25.378,25.852 0,15.684 9.978,25.949 25.378,25.949"
             style="fill:#e31738;fill-opacity:1;fill-rule:nonzero;stroke:none"
             id="path48" />
        </g>
        <g
           id="g50"
           transform="translate(519.5771,358.6194)">
          <path
             d="m 0,0 c 9.219,0 11.974,7.89 11.974,15.682 0,7.889 -2.755,15.779 -11.974,15.779 -9.125,0 -11.882,-7.89 -11.882,-15.779 C -11.882,7.89 -9.125,0 0,0 m 0,41.631 c 15.492,0 25.473,-10.265 25.473,-25.949 C 25.473,0.095 15.492,-10.17 0,-10.17 c -15.4,0 -25.378,10.265 -25.378,25.852 0,15.684 9.978,25.949 25.378,25.949"
             style="fill:#e31738;fill-opacity:1;fill-rule:nonzero;stroke:none"
             id="path52" />
        </g>
        <g
           id="g54"
           transform="translate(550.4003,398.9177)">
          <path
             d="m 0,0 h 12.833 v -9.125 h 0.189 c 2.47,6.181 9.125,10.458 15.682,10.458 0.95,0 2.091,-0.19 2.946,-0.477 v -12.545 c -1.235,0.284 -3.231,0.474 -4.845,0.474 -9.886,0 -13.309,-7.129 -13.309,-15.777 V -49.139 H 0 Z"
             style="fill:#e31738;fill-opacity:1;fill-rule:nonzero;stroke:none"
             id="path56" />
        </g>
        <g
           id="g58"
           transform="translate(595.3858,365.748)">
          <path
             d="m 0,0 c 0.095,-5.894 5.038,-8.269 10.362,-8.269 3.895,0 8.838,1.52 8.838,6.273 0,4.087 -5.606,5.511 -15.303,7.602 -7.792,1.712 -15.586,4.469 -15.586,13.117 0,12.548 10.836,15.779 21.385,15.779 10.742,0 20.625,-3.613 21.67,-15.684 h -12.83 c -0.382,5.227 -4.374,6.655 -9.219,6.655 -3.042,0 -7.51,-0.572 -7.51,-4.564 0,-4.845 7.605,-5.512 15.302,-7.318 7.89,-1.807 15.59,-4.656 15.59,-13.781 0,-12.927 -11.216,-17.109 -22.434,-17.109 -11.405,0 -22.526,4.277 -23.095,17.299 z"
             style="fill:#e31738;fill-opacity:1;fill-rule:nonzero;stroke:none"
             id="path60" />
        </g>
        <g
           id="g62"
           transform="translate(332.7619,446.6616)">
          <path
             d="m 0,0 c -6.842,-8.833 -15.8,-12.193 -24.387,-12.193 -27.494,0 -43.669,20.53 -43.669,46.159 0,26.374 16.175,46.904 43.669,46.904 18.166,0 35.335,-11.198 37.451,-31.354 H -5.6 c -2.238,9.829 -9.579,14.93 -18.787,14.93 -17.541,0 -24.134,-14.93 -24.134,-30.48 0,-14.805 6.593,-29.735 24.134,-29.735 12.693,0 20.031,6.842 21.151,19.158 H -22.892 V 37.947 H 14.431 V -10.078 H 1.991 Z"
             style="fill:#000000;fill-opacity:1;fill-rule:nonzero;stroke:none"
             id="path64" />
        </g>
        <g
           id="g66"
           transform="translate(354.9635,500.905)">
          <path
             d="m 0,0 h 16.796 v -11.944 h 0.249 c 3.236,8.087 11.944,13.688 20.53,13.688 1.242,0 2.737,-0.25 3.857,-0.624 v -16.421 c -1.619,0.371 -4.231,0.621 -6.346,0.621 -12.939,0 -17.417,-9.329 -17.417,-20.652 V -64.321 H 0 Z"
             style="fill:#000000;fill-opacity:1;fill-rule:nonzero;stroke:none"
             id="path68" />
        </g>
        <g
           id="g70"
           transform="translate(430.0467,448.1502)">
          <path
             d="M 0,0 C -11.95,0 -15.555,10.329 -15.555,20.532 -15.555,30.861 -11.95,41.19 0,41.19 12.063,41.19 15.668,30.861 15.668,20.532 15.668,10.329 12.063,0 0,0 m 0,54.5 c -20.158,0 -33.219,-13.435 -33.219,-33.968 0,-20.407 13.061,-33.842 33.219,-33.842 20.283,0 33.343,13.435 33.343,33.842 C 33.343,41.065 20.283,54.5 0,54.5"
             style="fill:#000000;fill-opacity:1;fill-rule:nonzero;stroke:none"
             id="path72" />
        </g>
        <path
           d="m 408.893,525.417 h 16.796 v -14.558 h -16.796 z"
           style="fill:#f78f1f;fill-opacity:1;fill-rule:nonzero;stroke:none"
           id="path74" />
        <path
           d="m 434.522,525.417 h 16.796 v -14.558 h -16.796 z"
           style="fill:#f78f1f;fill-opacity:1;fill-rule:nonzero;stroke:none"
           id="path76" />
        <g
           id="g78"
           transform="translate(502.3576,489.3355)">
          <path
             d="m 0,0 c -10.449,0 -15.055,-9.828 -15.055,-20.652 0,-10.702 4.606,-20.53 15.055,-20.53 10.449,0 15.055,9.828 15.055,20.53 C 15.055,-9.828 10.449,0 0,0 m -32.1,36.081 h 17.669 V 3.732 h 0.247 c 4.356,6.596 12.318,9.581 20.281,9.581 12.814,0 26.624,-10.327 26.624,-33.84 0,-23.641 -13.81,-33.966 -26.624,-33.966 -9.457,0 -17.295,2.861 -21.152,9.953 h -0.249 v -8.212 H -32.1 Z"
             style="fill:#000000;fill-opacity:1;fill-rule:nonzero;stroke:none"
             id="path80" />
        </g>
        <g
           id="g82"
           transform="translate(585.262,475.6506)">
          <path
             d="M 0,0 C -1.619,8.958 -5.476,13.685 -14.059,13.685 -25.257,13.685 -28.493,4.977 -28.739,0 Z m -28.739,-11.198 c 0.496,-11.198 5.971,-16.299 15.8,-16.299 7.092,0 12.814,4.355 13.934,8.336 H 16.549 C 11.57,-34.34 0.995,-40.808 -13.563,-40.808 c -20.278,0 -32.846,13.934 -32.846,33.841 0,19.282 13.314,33.965 32.846,33.965 21.897,0 32.474,-18.414 31.232,-38.196 z"
             style="fill:#000000;fill-opacity:1;fill-rule:nonzero;stroke:none"
             id="path84" />
        </g>
        <g
           id="g86"
           transform="translate(608.9553,500.905)">
          <path
             d="m 0,0 h 16.796 v -11.944 h 0.249 c 3.233,8.087 11.944,13.688 20.528,13.688 1.241,0 2.733,-0.25 3.853,-0.624 v -16.421 c -1.613,0.371 -4.231,0.621 -6.343,0.621 -12.936,0 -17.417,-9.329 -17.417,-20.652 V -64.321 H 0 Z"
             style="fill:#000000;fill-opacity:1;fill-rule:nonzero;stroke:none"
             id="path88" />
        </g>
      </g>
    </g>
  </g>
</svg>
