<?xml version="1.0" encoding="UTF-8" standalone="no"?>
<!-- Created with Inkscape (http://www.inkscape.org/) -->

<svg
   width="9.2388353mm"
   height="9.2386827mm"
   viewBox="0 0 9.2388353 9.2386827"
   version="1.1"
   id="svg1010"
   xmlns="http://www.w3.org/2000/svg"
   xmlns:svg="http://www.w3.org/2000/svg">
  <defs
     id="defs1007" />
  <g
     id="layer1"
     transform="translate(-162.25002,-115.89702)">
    <path
       d="m 163.00942,118.42758 c 0.0222,0.18168 0.0339,0.36548 0.0684,0.54504 0.10901,0.57115 0.34925,1.09114 0.6484,1.58468 0.51541,0.85019 1.16982,1.58115 1.92511,2.2232 0.61278,0.52106 1.27388,0.96838 2.02142,1.276 0.52529,0.21661 1.06645,0.35842 1.64253,0.28117 0.38841,-0.0519 0.72531,-0.20885 0.98566,-0.51118 0.0981,-0.11395 0.19721,-0.22719 0.29704,-0.33972 0.17357,-0.19509 0.14852,-0.46779 -0.0568,-0.62654 -0.30022,-0.23177 -0.60008,-0.46425 -0.89924,-0.69709 -0.16192,-0.12559 -0.37359,-0.12629 -0.5334,0.001 -0.25893,0.20673 -0.51893,0.4117 -0.77434,0.6223 -0.14746,0.12171 -0.2981,0.145 -0.47696,0.073 -1.58997,-0.63818 -2.70051,-1.7526 -3.33622,-3.34292 -0.067,-0.16828 -0.0437,-0.31433 0.0699,-0.45367 0.2092,-0.25683 0.41487,-0.51647 0.6223,-0.7747 0.13088,-0.16263 0.14041,-0.3736 0.0176,-0.53305 -0.242,-0.31538 -0.48648,-0.62865 -0.73025,-0.94227 -0.0709,-0.0914 -0.16792,-0.13265 -0.28116,-0.14041 -0.11712,-0.008 -0.22049,0.0265 -0.30727,0.10443 -0.17216,0.15487 -0.36407,0.29421 -0.50977,0.47095 -0.27798,0.33761 -0.38241,0.74366 -0.39299,1.17934 m 1.35925,-2.53012 c 0.0219,0.007 0.0437,0.0155 0.066,0.0212 0.28152,0.0667 0.51506,0.20426 0.69215,0.43992 0.23142,0.30797 0.47131,0.60925 0.70979,0.91193 0.35348,0.44909 0.33408,1.09714 -0.0409,1.53035 -0.15558,0.17956 -0.30127,0.36795 -0.44521,0.55703 -0.0197,0.0261 -0.0159,0.0857 -0.001,0.1203 0.29599,0.68474 0.72637,1.27247 1.2887,1.76283 0.37677,0.32879 0.79622,0.58985 1.25166,0.79516 0.0699,0.0314 0.11641,0.0261 0.17568,-0.024 0.1838,-0.15557 0.37359,-0.30374 0.56092,-0.45508 0.42509,-0.34325 1.04704,-0.34995 1.48096,-0.0134 0.31609,0.24482 0.62935,0.49424 0.9465,0.73801 0.23142,0.17815 0.35737,0.41627 0.41628,0.69603 0.004,0.0198 0.0123,0.0384 0.0187,0.0579 v 0.30727 c -0.0617,0.16475 -0.0949,0.34925 -0.19191,0.48966 -0.19439,0.28116 -0.41417,0.54892 -0.68439,0.76376 -0.65088,0.51753 -1.39947,0.61736 -2.19358,0.48966 -0.68827,-0.11113 -1.3208,-0.37853 -1.91911,-0.72814 -1.24671,-0.72848 -2.27118,-1.69933 -3.09633,-2.88043 -0.51188,-0.73272 -0.91193,-1.51976 -1.08514,-2.40665 -0.0952,-0.48754 -0.0974,-0.97366 0.0342,-1.45697 0.19403,-0.71367 0.69814,-1.17616 1.27917,-1.57374 0.0815,-0.0557 0.18838,-0.0748 0.28399,-0.10936 0.036,-0.0131 0.073,-0.0222 0.10971,-0.0332 z"
       style="fill:#e41c38;fill-opacity:1;fill-rule:nonzero;stroke:none;stroke-width:0.352778"
       id="path196" />
  </g>
</svg>
