<?xml version="1.0" encoding="UTF-8" standalone="no"?>
<!-- Created with Inkscape (http://www.inkscape.org/) -->

<svg
   width="8.9298372mm"
   height="10.660944mm"
   viewBox="0 0 8.9298372 10.660944"
   version="1.1"
   id="svg604"
   xmlns="http://www.w3.org/2000/svg"
   xmlns:svg="http://www.w3.org/2000/svg">
  <defs
     id="defs601" />
  <g
     id="layer1"
     transform="translate(-100.60097,-143.34121)">
    <g
       id="g144"
       transform="matrix(0.35277777,0,0,-0.35277777,105.06144,152.72933)">
      <path
         d="m 0,0 c 0.092,0.08 0.147,0.121 0.196,0.169 1.369,1.369 2.772,2.706 4.097,4.116 1.605,1.706 3.044,3.548 4.244,5.569 1.156,1.946 1.69,3.97 1.161,6.248 -1.136,4.89 -5.762,8.426 -11.037,7.646 -3.999,-0.592 -6.699,-2.91 -8.051,-6.726 -0.5,-1.412 -0.704,-2.885 -0.321,-4.373 0.35,-1.356 1.022,-2.567 1.782,-3.729 C -6.251,6.357 -4.204,4.103 -2.038,1.953 -1.376,1.296 -0.692,0.662 0,0 m 0.776,26.612 c 0.533,-0.078 1.071,-0.128 1.597,-0.237 4.174,-0.859 7.199,-3.219 9.083,-7.03 0.831,-1.682 1.205,-3.483 1.213,-5.354 C 12.676,12.528 12.229,11.169 11.615,9.86 10.598,7.69 9.205,5.767 7.673,3.941 5.405,1.236 2.884,-1.216 0.176,-3.477 0.131,-3.514 0.085,-3.551 0.015,-3.608 c -0.371,0.317 -0.746,0.629 -1.113,0.95 -3.13,2.742 -6.042,5.686 -8.462,9.088 -0.803,1.131 -1.499,2.325 -2.1,3.577 -1.062,2.212 -1.251,4.514 -0.631,6.861 1.285,4.863 4.38,7.984 9.221,9.346 0.666,0.187 1.371,0.23 2.058,0.341 0.085,0.014 0.17,0.037 0.254,0.057 z"
         style="fill:#e41c38;fill-opacity:1;fill-rule:nonzero;stroke:none"
         id="path146" />
    </g>
    <g
       id="g148"
       transform="matrix(0.35277777,0,0,-0.35277777,105.94639,147.81048)">
      <path
         d="M 0,0 C 0.005,1.39 -1.118,2.52 -2.499,2.515 -3.874,2.509 -4.984,1.395 -4.986,0.017 -4.989,-1.366 -3.889,-2.485 -2.517,-2.496 -1.13,-2.506 -0.005,-1.391 0,0 M 2.518,0.017 C 2.522,-2.761 0.28,-5.014 -2.492,-5.017 -5.241,-5.02 -7.506,-2.763 -7.511,-0.015 -7.516,2.775 -5.251,5.047 -2.48,5.03 0.292,5.014 2.514,2.785 2.518,0.017"
         style="fill:#e41c38;fill-opacity:1;fill-rule:nonzero;stroke:none"
         id="path150" />
    </g>
  </g>
</svg>
