<?xml version="1.0" encoding="UTF-8" standalone="no"?>
<!-- Created with Inkscape (http://www.inkscape.org/) -->

<svg
   width="9.7821894mm"
   height="9.7817602mm"
   viewBox="0 0 9.7821894 9.7817602"
   version="1.1"
   id="svg1222"
   xmlns="http://www.w3.org/2000/svg"
   xmlns:svg="http://www.w3.org/2000/svg">
  <defs
     id="defs1219" />
  <g
     id="layer1"
     transform="translate(-82.663821,-154.08137)">
    <g
       id="g198"
       transform="matrix(0.35277777,0,0,-0.35277777,91.609575,158.64173)">
      <path
         d="m 0,0 c -0.03,0.013 -0.06,0.026 -0.09,0.039 -0.06,-0.079 -0.111,-0.166 -0.18,-0.236 -2.353,-2.356 -4.71,-4.708 -7.061,-7.065 -1.014,-1.017 -2.231,-1.619 -3.659,-1.73 -1.819,-0.142 -3.384,0.451 -4.679,1.747 -2.346,2.35 -4.696,4.696 -7.042,7.047 -0.074,0.075 -0.113,0.184 -0.168,0.278 l -0.107,-0.077 c -0.016,-0.149 -0.044,-0.299 -0.044,-0.449 -0.003,-2.915 -0.015,-5.83 0.002,-8.744 0.011,-1.729 1.558,-3.278 3.289,-3.282 5.495,-0.013 10.991,-0.013 16.486,0 1.745,0.004 3.287,1.555 3.297,3.302 0.016,2.896 0.005,5.793 0.002,8.69 0,0.16 -0.03,0.32 -0.046,0.48 m -21.774,2.09 c 0.1,-0.081 0.19,-0.143 0.266,-0.218 2.47,-2.468 4.939,-4.937 7.407,-7.406 1.529,-1.529 3.69,-1.528 5.222,0.004 2.476,2.475 4.95,4.951 7.427,7.424 0.069,0.069 0.166,0.11 0.268,0.176 -0.144,0.136 -0.223,0.21 -0.301,0.284 -2.495,2.39 -4.989,4.78 -7.485,7.17 -1.517,1.454 -3.537,1.449 -5.05,-0.004 -1.887,-1.812 -3.779,-3.618 -5.668,-5.428 -0.683,-0.654 -1.364,-1.309 -2.086,-2.002 m 9.794,10.837 h 0.975 c 0.377,-0.078 0.761,-0.134 1.131,-0.239 0.907,-0.257 1.705,-0.718 2.388,-1.372 C -4.823,8.766 -2.163,6.212 0.502,3.664 1.268,2.932 1.826,2.074 2.126,1.057 2.23,0.706 2.291,0.342 2.371,-0.016 v -9.64 C 2.353,-9.705 2.325,-9.752 2.319,-9.803 c -0.362,-2.811 -2.813,-4.991 -5.645,-4.994 -5.442,-0.007 -10.883,-0.003 -16.325,0.001 -0.296,0 -0.597,0.019 -0.888,0.073 -2.876,0.533 -4.815,2.874 -4.816,5.802 0,2.726 0.008,5.451 -0.003,8.177 -0.006,1.747 0.623,3.211 1.881,4.416 2.64,2.527 5.278,5.057 7.915,7.587 0.696,0.667 1.497,1.156 2.425,1.419 0.379,0.108 0.771,0.167 1.157,0.249"
         style="fill:#e41c38;fill-opacity:1;fill-rule:nonzero;stroke:none"
         id="path200" />
    </g>
  </g>
</svg>
